<?xml version="1.0" encoding="utf-8"?>
<!-- Generator: Adobe Illustrator 21.1.0, SVG Export Plug-In . SVG Version: 6.00 Build 0)  -->
<svg version="1.1" id="UL" xmlns="http://www.w3.org/2000/svg" xmlns:xlink="http://www.w3.org/1999/xlink" x="0px" y="0px"
	 viewBox="0 0 310.5 127.9" style="enable-background:new 0 0 310.5 127.9;" xml:space="preserve">
<style type="text/css">
	.st0{fill:#CC2229;}
	.st1{fill:#F2CA30;}
	.st2{fill:#00ACEC;}
	.st3{fill:#DBDCDD;}
</style>
<g>
	<g>
		<path d="M136.4,16.4h3.1v15.5c0,4-2.9,8-9.3,8c-5.8,0-9.3-2.9-9.3-7.9V16.4h3.5v15.2c0,4,1.9,5.8,6.1,5.8c4.1,0,5.9-2.9,5.9-5.8
			V16.4z"/>
		<path d="M149.5,16.4h-3v23.1h3V21.9l13.8,17.7h3.2V16.4h-3v17.9L149.5,16.4z"/>
		<path d="M177.4,16.4v23.1h-3.5V16.4H177.4z"/>
		<path d="M182.3,16.4h3.5l5.7,17.3l6.3-17.3h3l-8.8,23.1h-1.8L182.3,16.4z"/>
		<path d="M219.2,16.4v2.4H209v7.5h8.2v2.4H209v8.3h10.3v2.4h-13.8V16.4H219.2z"/>
		<path d="M234.6,28.7l0.4-0.1c1.8-0.5,4.3-3.3,4.3-6.3c0-2.8-2.6-5.8-8.2-5.8h-6.3v23.1h3.5V18.6h2.5c3.7,0,5.1,2.2,5.1,4
			c0,1.9-1.6,4.7-5.1,4.7c0,0-0.6,0-0.9,0l7.8,12.3h4.1L234.6,28.7z"/>
		<path d="M256,34.1c0-2.2-2.1-3.4-4.4-4.8l-0.8-0.5c-2.6-1.6-5.5-3.6-5.5-6.9c0-3.4,3-5.9,6.9-5.9c3.4,0,5.3,0.8,6.1,1.2
			c-0.1,0.2-0.9,2.1-1,2.3c-0.8-0.4-2.4-1-4.6-1c-2.5,0-4.1,1.1-4.1,2.8c0,2.1,1.8,3.2,4,4.6l1,0.6c0,0,0.1,0.1,0.1,0.1
			c2.3,1.5,5.8,3.7,5.8,6.8c0,3.9-4.2,6.6-8.2,6.6c-3.8,0-6-1.1-6.9-1.5c0.1-0.2,0.9-2,1-2.2c0,0,0,0,0,0c1,0.5,2.9,1.3,5.9,1.3
			C254,37.5,256,36,256,34.1z"/>
		<path d="M269,16.4v23.1h-3.5V16.4H269z"/>
		<path d="M292.2,16.4v2.4h-7.6v20.7h-3.5V18.9h-7.6v-2.4H292.2z"/>
		<g>
			<path d="M300.2,18.9v7.5h8.2v2.4h-8.2v8.3c0,0,10,0,10.3,0v2.4h-13.8V16.4h13.8v2.4H300.2z"/>
			<path d="M307.1,8.7l1.4,2l-5.9,3.2l-0.8-1.3L307.1,8.7z"/>
		</g>
	</g>
	<g>
		<path d="M223.7,48.7v0.2c4.9,1.9,2.2,8.2,0.1,13.6l-10.8,27.4l-15.8-41.2h-10.6v0.2c3.1,2.4,4.7,7,6.2,10.9l15.1,39.1h7.6
			l20.1-50.2H223.7z"/>
		<path d="M310.5,91.4c-2.9,1.3-6.1,2-9.7,2H290V48.7h-11.7v0.2c3.7,1.3,3.6,7,3.6,10.5l0,39.2c-3.9-1.9-5.9-6.5-7.8-10.8
			l-16.6-39.1h-12.6v0.2c3.8,1.1,2.3,4.3,1.2,7.1l-13.3,31.8c-1.8,4.3-3.7,8.8-7.7,10.8v0.2h10l5.1-13.3h24.5l5.3,13.3h40.7V91.4z
			 M242.3,80l10-24.8L262.3,80H242.3z"/>
		<path d="M190.9,87.8l-16.6-39.1h-12.6v0.2c3.8,1.1,2.3,4.3,1.2,7.1l0,0l0,0l-13.3,31.8c-0.7,1.6-1.3,3.2-2.1,4.7
			c-1.9,0.6-4,0.9-6.1,0.9h-10.8V48.7h-11.7v0.2c3.7,1.3,3.6,7,3.6,10.5l0,39.4h29.5l5.1-13.3h24.5h0l5.3,13.3h12v-0.2
			C194.6,96.6,192.8,92.2,190.9,87.8z M159.1,80l9.9-24.8L179.2,80H159.1z"/>
	</g>
	<path d="M0,0v100c0,8.6,6.6,15.3,15.1,15.3h23.8c3.2,0,7.3,2.1,9.4,8.2l1.1,3.3c0.3,0.7,0.7,1.1,1.1,1.1c0.4,0,0.9-0.4,1.1-1.1
		l1.1-3.3c2.1-6,6.2-8.2,9.4-8.2h23.8c8.5,0,15.1-6.7,15.1-15.3V0H0z"/>
	<g>
		<rect x="2.4" y="2.4" class="st0" width="39.1" height="46.3"/>
		<path class="st0" d="M2.4,66.6V100c0,7.5,5.8,12.9,12.7,12.9c0,0,23.7,0,23.8,0c0.9,0,1.8,0.1,2.7,0.4V66.6H2.4z"/>
		<rect x="59.5" y="2.4" class="st0" width="39.1" height="46.3"/>
		<path class="st0" d="M59.5,113.3c0.9-0.3,1.8-0.4,2.7-0.4c0,0,23.8,0,23.8,0c6.9,0,12.7-5.4,12.7-12.9V66.6H59.5V113.3z"/>
	</g>
	<path class="st1" d="M59.5,48.7V2.4H41.5v46.3H2.4v17.9h39.1v46.7c3.4,1,7,3.8,9,9.4c1.9-5.6,5.6-8.5,8.9-9.4V66.6h39.1V48.7H59.5z
		"/>
	<g>
		<path d="M16.8,21.5c0.1,0.3-0.1,0.5-0.3,0.6c-0.4,0.2-1.6,0.3-2,0.1c0,0-0.6,1.1-1.5,1.1c-0.9,0-1.5-1.1-1.5-1.1
			c-0.5,0.1-1.6,0.1-2-0.1c-0.2-0.1-0.4-0.3-0.3-0.6c0.3-0.9,1-4,1.3-5.1L8.9,17c-0.3,1.2-1.1,3.2-2.6,3.3c-0.2,0-0.5-0.1-0.5-0.3
			C6,18.4,7,10.9,7.1,10.2c0.1-0.7,0.3-1,0.8-1.2c0.5-0.2,0.8,0,1.4,0.4c0.4,0.4,1.9,1.7,1.9,1.7s0.2-1.2,0.2-1.6
			c-0.2,0-0.4,0-0.4,0c-0.2,0-0.4-0.2-0.4-0.4l0.2-1.5c0-0.1,0.1-0.3,0.2-0.3c0,0,0.6-0.3,1.1-0.5C12.6,6.6,13,6.6,13,6.6
			c0.4,0,0.7,0.1,1,0.3c0.3,0.2,0.5,0.6,0.5,1l0.3,3.2c0,0,1.5-1.3,1.9-1.7C17.3,9,17.6,8.8,18.1,9c0.5,0.2,0.7,0.5,0.8,1.2
			c0.1,0.7,1.1,8.2,1.3,9.8c0,0.2-0.3,0.3-0.5,0.3c-1.5-0.1-2.3-2.1-2.6-3.3l-1.6-0.6C15.8,17.5,16.6,20.6,16.8,21.5z"/>
		<path d="M34.8,21.5c0.1,0.3-0.1,0.5-0.3,0.6c-0.4,0.2-1.6,0.3-2,0.1c0,0-0.6,1.1-1.5,1.1c-0.9,0-1.5-1.1-1.5-1.1
			c-0.5,0.1-1.6,0.1-2-0.1c-0.2-0.1-0.4-0.3-0.3-0.6c0.2-0.9,1-4,1.3-5.1L26.8,17c-0.3,1.2-1.1,3.2-2.6,3.3c-0.2,0-0.5-0.1-0.5-0.3
			c0.2-1.6,1.2-9.1,1.3-9.8c0.1-0.7,0.3-1,0.8-1.2c0.5-0.2,0.8,0,1.4,0.4c0.4,0.4,1.9,1.7,1.9,1.7s0.2-1.2,0.2-1.6
			c-0.2,0-0.4,0-0.4,0c-0.2,0-0.4-0.2-0.4-0.4l0.2-1.5c0-0.1,0.1-0.3,0.2-0.3c0,0,0.6-0.3,1.1-0.5c0.5-0.2,0.9-0.2,0.9-0.2
			c0.4,0,0.7,0.1,1,0.3c0.3,0.2,0.5,0.6,0.5,1l0.3,3.2c0,0,1.5-1.3,1.9-1.7C35.2,9,35.6,8.8,36,9c0.5,0.2,0.7,0.5,0.8,1.2
			c0.1,0.7,1.1,8.2,1.3,9.8c0,0.2-0.3,0.3-0.5,0.3c-1.5-0.1-2.3-2.1-2.6-3.3l-1.6-0.6C33.7,17.5,34.5,20.6,34.8,21.5z"/>
		<path d="M16.8,42.7c0.1,0.3-0.1,0.5-0.3,0.6c-0.4,0.2-1.6,0.3-2,0.1c0,0-0.6,1.1-1.5,1.1c-0.9,0-1.5-1.1-1.5-1.1
			c-0.5,0.1-1.6,0.1-2-0.1c-0.2-0.1-0.4-0.3-0.3-0.6c0.3-0.9,1-4,1.3-5.1l-1.6,0.6c-0.3,1.2-1.1,3.2-2.6,3.3c-0.2,0-0.5-0.1-0.5-0.3
			C6,39.5,7,32,7.1,31.3c0.1-0.7,0.3-1,0.8-1.2c0.5-0.2,0.8,0,1.4,0.4c0.4,0.4,1.9,1.7,1.9,1.7s0.2-1.2,0.2-1.6c-0.2,0-0.4,0-0.4,0
			c-0.2,0-0.4-0.2-0.4-0.4l0.2-1.5c0-0.1,0.1-0.3,0.2-0.3c0,0,0.6-0.3,1.1-0.5c0.5-0.2,0.9-0.2,0.9-0.2c0.4,0,0.7,0.1,1,0.3
			c0.3,0.2,0.5,0.6,0.5,1l0.3,3.2c0,0,1.5-1.3,1.9-1.7c0.5-0.5,0.9-0.6,1.4-0.4c0.5,0.2,0.7,0.5,0.8,1.2c0.1,0.7,1.1,8.2,1.3,9.8
			c0,0.2-0.3,0.3-0.5,0.3c-1.5-0.1-2.3-2.1-2.6-3.3l-1.6-0.6C15.8,38.6,16.6,41.7,16.8,42.7z"/>
		<path d="M34.8,42.7c0.1,0.3-0.1,0.5-0.3,0.6c-0.4,0.2-1.6,0.3-2,0.1c0,0-0.6,1.1-1.5,1.1c-0.9,0-1.5-1.1-1.5-1.1
			c-0.5,0.1-1.6,0.1-2-0.1c-0.2-0.1-0.4-0.3-0.3-0.6c0.2-0.9,1-4,1.3-5.1l-1.6,0.6c-0.3,1.2-1.1,3.2-2.6,3.3c-0.2,0-0.5-0.1-0.5-0.3
			c0.2-1.7,1.2-9.1,1.3-9.8c0.1-0.7,0.3-1,0.8-1.2c0.5-0.2,0.8,0,1.4,0.4c0.4,0.4,1.9,1.7,1.9,1.7s0.2-1.2,0.2-1.6
			c-0.2,0-0.4,0-0.4,0c-0.2,0-0.4-0.2-0.4-0.4l0.2-1.5c0-0.1,0.1-0.3,0.2-0.3c0,0,0.6-0.3,1.1-0.5c0.5-0.2,0.9-0.2,0.9-0.2
			c0.4,0,0.7,0.1,1,0.3c0.3,0.2,0.5,0.6,0.5,1l0.3,3.2c0,0,1.5-1.3,1.9-1.7c0.5-0.5,0.9-0.6,1.4-0.4c0.5,0.2,0.7,0.5,0.8,1.2
			c0.1,0.7,1.1,8.2,1.3,9.8c0,0.2-0.3,0.3-0.5,0.3c-1.5-0.1-2.3-2.1-2.6-3.3l-1.6-0.6C33.7,38.6,34.5,41.7,34.8,42.7z"/>
		<path d="M73.9,21.5c0.1,0.3-0.1,0.5-0.3,0.6c-0.4,0.2-1.6,0.3-2,0.1c0,0-0.6,1.1-1.5,1.1c-0.9,0-1.5-1.1-1.5-1.1
			c-0.5,0.1-1.6,0.1-2-0.1c-0.2-0.1-0.4-0.3-0.3-0.6c0.2-0.9,1-4,1.3-5.1L65.9,17c-0.3,1.2-1.1,3.2-2.6,3.3c-0.2,0-0.5-0.1-0.5-0.3
			c0.2-1.6,1.2-9.1,1.3-9.8c0.1-0.7,0.3-1,0.8-1.2c0.5-0.2,0.8,0,1.4,0.4c0.4,0.4,1.9,1.7,1.9,1.7s0.2-1.2,0.2-1.6
			c-0.2,0-0.4,0-0.4,0c-0.2,0-0.4-0.2-0.4-0.4l0.2-1.5c0-0.1,0.1-0.3,0.2-0.3c0,0,0.6-0.3,1.1-0.5c0.5-0.2,0.9-0.2,0.9-0.2
			c0.4,0,0.7,0.1,1,0.3c0.3,0.2,0.5,0.6,0.5,1l0.3,3.2c0,0,1.5-1.3,1.9-1.7C74.3,9,74.7,8.8,75.2,9c0.5,0.2,0.7,0.5,0.8,1.2
			c0.1,0.7,1.1,8.2,1.3,9.8c0,0.2-0.3,0.3-0.5,0.3c-1.5-0.1-2.3-2.1-2.6-3.3l-1.6-0.6C72.8,17.5,73.6,20.6,73.9,21.5z"/>
		<path d="M91.8,21.5c0.1,0.3-0.1,0.5-0.3,0.6c-0.4,0.2-1.6,0.3-2,0.1c0,0-0.6,1.1-1.5,1.1c-0.9,0-1.5-1.1-1.5-1.1
			c-0.5,0.1-1.6,0.1-2-0.1c-0.2-0.1-0.4-0.3-0.3-0.6c0.2-0.9,1-4,1.3-5.1L83.9,17c-0.3,1.2-1.1,3.2-2.6,3.3c-0.2,0-0.5-0.1-0.5-0.3
			c0.2-1.6,1.2-9.1,1.3-9.8c0.1-0.7,0.3-1,0.8-1.2c0.5-0.2,0.8,0,1.4,0.4c0.4,0.4,1.9,1.7,1.9,1.7s0.2-1.2,0.2-1.6
			c-0.2,0-0.4,0-0.4,0c-0.2,0-0.4-0.2-0.4-0.4l0.2-1.5c0-0.1,0.1-0.3,0.2-0.3c0,0,0.6-0.3,1.1-0.5C87.6,6.6,88,6.6,88,6.6
			c0.4,0,0.7,0.1,1,0.3c0.3,0.2,0.5,0.6,0.5,1l0.3,3.2c0,0,1.5-1.3,1.9-1.7C92.2,9,92.6,8.8,93.1,9c0.5,0.2,0.7,0.5,0.8,1.2
			c0.1,0.7,1.1,8.2,1.3,9.8c0,0.2-0.3,0.3-0.5,0.3c-1.5-0.1-2.3-2.1-2.6-3.3l-1.6-0.6C90.8,17.5,91.6,20.6,91.8,21.5z"/>
		<path d="M73.9,42.7c0.1,0.3-0.1,0.5-0.3,0.6c-0.4,0.2-1.6,0.3-2,0.1c0,0-0.6,1.1-1.5,1.1c-0.9,0-1.5-1.1-1.5-1.1
			c-0.5,0.1-1.6,0.1-2-0.1c-0.2-0.1-0.4-0.3-0.3-0.6c0.2-0.9,1-4,1.3-5.1l-1.6,0.6c-0.3,1.2-1.1,3.2-2.6,3.3c-0.2,0-0.5-0.1-0.5-0.3
			c0.2-1.7,1.2-9.1,1.3-9.8c0.1-0.7,0.3-1,0.8-1.2c0.5-0.2,0.8,0,1.4,0.4c0.4,0.4,1.9,1.7,1.9,1.7s0.2-1.2,0.2-1.6
			c-0.2,0-0.4,0-0.4,0c-0.2,0-0.4-0.2-0.4-0.4l0.2-1.5c0-0.1,0.1-0.3,0.2-0.3c0,0,0.6-0.3,1.1-0.5c0.5-0.2,0.9-0.2,0.9-0.2
			c0.4,0,0.7,0.1,1,0.3c0.3,0.2,0.5,0.6,0.5,1l0.3,3.2c0,0,1.5-1.3,1.9-1.7c0.5-0.5,0.9-0.6,1.4-0.4c0.5,0.2,0.7,0.5,0.8,1.2
			c0.1,0.7,1.1,8.2,1.3,9.8c0,0.2-0.3,0.3-0.5,0.3c-1.5-0.1-2.3-2.1-2.6-3.3l-1.6-0.6C72.8,38.6,73.6,41.7,73.9,42.7z"/>
		<path d="M91.8,42.7c0.1,0.3-0.1,0.5-0.3,0.6c-0.4,0.2-1.6,0.3-2,0.1c0,0-0.6,1.1-1.5,1.1c-0.9,0-1.5-1.1-1.5-1.1
			c-0.5,0.1-1.6,0.1-2-0.1c-0.2-0.1-0.4-0.3-0.3-0.6c0.2-0.9,1-4,1.3-5.1l-1.6,0.6c-0.3,1.2-1.1,3.2-2.6,3.3c-0.2,0-0.5-0.1-0.5-0.3
			c0.2-1.7,1.2-9.1,1.3-9.8c0.1-0.7,0.3-1,0.8-1.2c0.5-0.2,0.8,0,1.4,0.4c0.4,0.4,1.9,1.7,1.9,1.7s0.2-1.2,0.2-1.6
			c-0.2,0-0.4,0-0.4,0c-0.2,0-0.4-0.2-0.4-0.4l0.2-1.5c0-0.1,0.1-0.3,0.2-0.3c0,0,0.6-0.3,1.1-0.5c0.5-0.2,0.9-0.2,0.9-0.2
			c0.4,0,0.7,0.1,1,0.3c0.3,0.2,0.5,0.6,0.5,1l0.3,3.2c0,0,1.5-1.3,1.9-1.7c0.5-0.5,0.9-0.6,1.4-0.4c0.5,0.2,0.7,0.5,0.8,1.2
			c0.1,0.7,1.1,8.2,1.3,9.8c0,0.2-0.3,0.3-0.5,0.3c-1.5-0.1-2.3-2.1-2.6-3.3l-1.6-0.6C90.8,38.6,91.6,41.7,91.8,42.7z"/>
		<path d="M16.8,85.7c0.1,0.3-0.1,0.5-0.3,0.6c-0.4,0.2-1.6,0.3-2,0.1c0,0-0.6,1.1-1.5,1.1c-0.9,0-1.5-1.1-1.5-1.1
			c-0.5,0.1-1.6,0.1-2-0.1c-0.2-0.1-0.4-0.3-0.3-0.6c0.3-1,1-4,1.3-5.1l-1.6,0.6c-0.3,1.2-1.1,3.2-2.6,3.3c-0.2,0-0.5-0.1-0.5-0.3
			C6,82.6,7,75.1,7.1,74.4c0.1-0.7,0.3-1,0.8-1.2c0.5-0.2,0.8,0,1.4,0.4c0.4,0.4,1.9,1.7,1.9,1.7s0.2-1.2,0.2-1.6
			c-0.2,0-0.4,0-0.4,0c-0.2,0-0.4-0.2-0.4-0.4l0.2-1.5c0-0.2,0.1-0.3,0.2-0.3c0,0,0.6-0.3,1.1-0.5c0.5-0.2,0.9-0.2,0.9-0.2
			c0.4,0,0.7,0.1,1,0.3c0.3,0.2,0.5,0.6,0.5,1l0.3,3.2c0,0,1.5-1.3,1.9-1.7c0.5-0.5,0.9-0.6,1.4-0.4c0.5,0.2,0.7,0.5,0.8,1.2
			c0.1,0.7,1.1,8.2,1.3,9.8c0,0.2-0.3,0.3-0.5,0.3c-1.5-0.1-2.3-2.1-2.6-3.3l-1.6-0.6C15.8,81.7,16.6,84.8,16.8,85.7z"/>
		<path d="M34.8,85.7c0.1,0.3-0.1,0.5-0.3,0.6c-0.4,0.2-1.6,0.3-2,0.1c0,0-0.6,1.1-1.5,1.1c-0.9,0-1.5-1.1-1.5-1.1
			c-0.5,0.1-1.6,0.1-2-0.1c-0.2-0.1-0.4-0.3-0.3-0.6c0.2-1,1-4,1.3-5.1l-1.6,0.6c-0.3,1.2-1.1,3.2-2.6,3.3c-0.2,0-0.5-0.1-0.5-0.3
			c0.2-1.7,1.2-9.1,1.3-9.8c0.1-0.7,0.3-1,0.8-1.2c0.5-0.2,0.8,0,1.4,0.4c0.4,0.4,1.9,1.7,1.9,1.7s0.2-1.2,0.2-1.6
			c-0.2,0-0.4,0-0.4,0c-0.2,0-0.4-0.2-0.4-0.4l0.2-1.5c0-0.2,0.1-0.3,0.2-0.3c0,0,0.6-0.3,1.1-0.5c0.5-0.2,0.9-0.2,0.9-0.2
			c0.4,0,0.7,0.1,1,0.3c0.3,0.2,0.5,0.6,0.5,1l0.3,3.2c0,0,1.5-1.3,1.9-1.7c0.5-0.5,0.9-0.6,1.4-0.4c0.5,0.2,0.7,0.5,0.8,1.2
			c0.1,0.7,1.1,8.2,1.3,9.8c0,0.2-0.3,0.3-0.5,0.3c-1.5-0.1-2.3-2.1-2.6-3.3l-1.6-0.6C33.7,81.7,34.5,84.8,34.8,85.7z"/>
		<path d="M16.8,106.9c0.1,0.3-0.1,0.5-0.3,0.6c-0.4,0.2-1.6,0.3-2,0.1c0,0-0.6,1.1-1.5,1.1c-0.9,0-1.5-1.1-1.5-1.1
			c-0.5,0.1-1.6,0.1-2-0.1c-0.2-0.1-0.4-0.3-0.3-0.6c0.3-1,1-4,1.3-5.1l-1.6,0.6c-0.3,1.2-1.1,3.2-2.6,3.3c-0.2,0-0.5-0.1-0.5-0.3
			c0.2-1.7,1.2-9.1,1.3-9.8c0.1-0.7,0.3-1,0.8-1.2c0.5-0.2,0.8,0,1.4,0.4c0.4,0.4,1.9,1.7,1.9,1.7s0.2-1.2,0.2-1.6
			c-0.2,0-0.4,0-0.4,0c-0.2,0-0.4-0.2-0.4-0.4l0.2-1.5c0-0.2,0.1-0.3,0.2-0.3c0,0,0.6-0.3,1.1-0.5c0.5-0.2,0.9-0.2,0.9-0.2
			c0.4,0,0.7,0.1,1,0.3c0.3,0.2,0.5,0.6,0.5,1l0.3,3.2c0,0,1.5-1.3,1.9-1.7c0.5-0.5,0.9-0.6,1.4-0.4c0.5,0.2,0.7,0.5,0.8,1.2
			c0.1,0.7,1.1,8.2,1.3,9.8c0,0.2-0.3,0.3-0.5,0.3c-1.5-0.1-2.3-2.1-2.6-3.3l-1.6-0.6C15.8,102.8,16.6,105.9,16.8,106.9z"/>
		<path d="M34.8,106.9c0.1,0.3-0.1,0.5-0.3,0.6c-0.4,0.2-1.6,0.3-2,0.1c0,0-0.6,1.1-1.5,1.1c-0.9,0-1.5-1.1-1.5-1.1
			c-0.5,0.1-1.6,0.1-2-0.1c-0.2-0.1-0.4-0.3-0.3-0.6c0.2-1,1-4,1.3-5.1l-1.6,0.6c-0.3,1.2-1.1,3.2-2.6,3.3c-0.2,0-0.5-0.1-0.5-0.3
			c0.2-1.7,1.2-9.1,1.3-9.8c0.1-0.7,0.3-1,0.8-1.2c0.5-0.2,0.8,0,1.4,0.4c0.4,0.4,1.9,1.7,1.9,1.7s0.2-1.2,0.2-1.6
			c-0.2,0-0.4,0-0.4,0c-0.2,0-0.4-0.2-0.4-0.4l0.2-1.5c0-0.2,0.1-0.3,0.2-0.3c0,0,0.6-0.3,1.1-0.5c0.5-0.2,0.9-0.2,0.9-0.2
			c0.4,0,0.7,0.1,1,0.3c0.3,0.2,0.5,0.6,0.5,1l0.3,3.2c0,0,1.5-1.3,1.9-1.7c0.5-0.5,0.9-0.6,1.4-0.4c0.5,0.2,0.7,0.5,0.8,1.2
			c0.1,0.7,1.1,8.2,1.3,9.8c0,0.2-0.3,0.3-0.5,0.3c-1.5-0.1-2.3-2.1-2.6-3.3l-1.6-0.6C33.7,102.8,34.5,105.9,34.8,106.9z"/>
		<path d="M73.9,85.7c0.1,0.3-0.1,0.5-0.3,0.6c-0.4,0.2-1.6,0.3-2,0.1c0,0-0.6,1.1-1.5,1.1c-0.9,0-1.5-1.1-1.5-1.1
			c-0.5,0.1-1.6,0.1-2-0.1c-0.2-0.1-0.4-0.3-0.3-0.6c0.2-1,1-4,1.3-5.1l-1.6,0.6c-0.3,1.2-1.1,3.2-2.6,3.3c-0.2,0-0.5-0.1-0.5-0.3
			c0.2-1.7,1.2-9.1,1.3-9.8c0.1-0.7,0.3-1,0.8-1.2c0.5-0.2,0.8,0,1.4,0.4c0.4,0.4,1.9,1.7,1.9,1.7s0.2-1.2,0.2-1.6
			c-0.2,0-0.4,0-0.4,0c-0.2,0-0.4-0.2-0.4-0.4l0.2-1.5c0-0.2,0.1-0.3,0.2-0.3c0,0,0.6-0.3,1.1-0.5c0.5-0.2,0.9-0.2,0.9-0.2
			c0.4,0,0.7,0.1,1,0.3c0.3,0.2,0.5,0.6,0.5,1l0.3,3.2c0,0,1.5-1.3,1.9-1.7c0.5-0.5,0.9-0.6,1.4-0.4c0.5,0.2,0.7,0.5,0.8,1.2
			c0.1,0.7,1.1,8.2,1.3,9.8c0,0.2-0.3,0.3-0.5,0.3c-1.5-0.1-2.3-2.1-2.6-3.3l-1.6-0.6C72.8,81.7,73.6,84.8,73.9,85.7z"/>
		<path d="M91.8,85.7c0.1,0.3-0.1,0.5-0.3,0.6c-0.4,0.2-1.6,0.3-2,0.1c0,0-0.6,1.1-1.5,1.1c-0.9,0-1.5-1.1-1.5-1.1
			c-0.5,0.1-1.6,0.1-2-0.1c-0.2-0.1-0.4-0.3-0.3-0.6c0.2-1,1-4,1.3-5.1l-1.6,0.6c-0.3,1.2-1.1,3.2-2.6,3.3c-0.2,0-0.5-0.1-0.5-0.3
			c0.2-1.7,1.2-9.1,1.3-9.8c0.1-0.7,0.3-1,0.8-1.2c0.5-0.2,0.8,0,1.4,0.4c0.4,0.4,1.9,1.7,1.9,1.7s0.2-1.2,0.2-1.6
			c-0.2,0-0.4,0-0.4,0c-0.2,0-0.4-0.2-0.4-0.4l0.2-1.5c0-0.2,0.1-0.3,0.2-0.3c0,0,0.6-0.3,1.1-0.5c0.5-0.2,0.9-0.2,0.9-0.2
			c0.4,0,0.7,0.1,1,0.3c0.3,0.2,0.5,0.6,0.5,1l0.3,3.2c0,0,1.5-1.3,1.9-1.7c0.5-0.5,0.9-0.6,1.4-0.4c0.5,0.2,0.7,0.5,0.8,1.2
			c0.1,0.7,1.1,8.2,1.3,9.8c0,0.2-0.3,0.3-0.5,0.3c-1.5-0.1-2.3-2.1-2.6-3.3l-1.6-0.6C90.8,81.7,91.6,84.8,91.8,85.7z"/>
		<path d="M73.9,106.9c0.1,0.3-0.1,0.5-0.3,0.6c-0.4,0.2-1.6,0.3-2,0.1c0,0-0.6,1.1-1.5,1.1c-0.9,0-1.5-1.1-1.5-1.1
			c-0.5,0.1-1.6,0.1-2-0.1c-0.2-0.1-0.4-0.3-0.3-0.6c0.2-1,1-4,1.3-5.1l-1.6,0.6c-0.3,1.2-1.1,3.2-2.6,3.3c-0.2,0-0.5-0.1-0.5-0.3
			c0.2-1.7,1.2-9.1,1.3-9.8c0.1-0.7,0.3-1,0.8-1.2c0.5-0.2,0.8,0,1.4,0.4c0.4,0.4,1.9,1.7,1.9,1.7s0.2-1.2,0.2-1.6
			c-0.2,0-0.4,0-0.4,0c-0.2,0-0.4-0.2-0.4-0.4l0.2-1.5c0-0.2,0.1-0.3,0.2-0.3c0,0,0.6-0.3,1.1-0.5c0.5-0.2,0.9-0.2,0.9-0.2
			c0.4,0,0.7,0.1,1,0.3c0.3,0.2,0.5,0.6,0.5,1l0.3,3.2c0,0,1.5-1.3,1.9-1.7c0.5-0.5,0.9-0.6,1.4-0.4c0.5,0.2,0.7,0.5,0.8,1.2
			c0.1,0.7,1.1,8.2,1.3,9.8c0,0.2-0.3,0.3-0.5,0.3c-1.5-0.1-2.3-2.1-2.6-3.3l-1.6-0.6C72.8,102.8,73.6,105.9,73.9,106.9z"/>
		<path d="M91.8,106.9c0.1,0.3-0.1,0.5-0.3,0.6c-0.4,0.2-1.6,0.3-2,0.1c0,0-0.6,1.1-1.5,1.1c-0.9,0-1.5-1.1-1.5-1.1
			c-0.5,0.1-1.6,0.1-2-0.1c-0.2-0.1-0.4-0.3-0.3-0.6c0.2-1,1-4,1.3-5.1l-1.6,0.6c-0.3,1.2-1.1,3.2-2.6,3.3c-0.2,0-0.5-0.1-0.5-0.3
			c0.2-1.7,1.2-9.1,1.3-9.8c0.1-0.7,0.3-1,0.8-1.2c0.5-0.2,0.8,0,1.4,0.4c0.4,0.4,1.9,1.7,1.9,1.7s0.2-1.2,0.2-1.6
			c-0.2,0-0.4,0-0.4,0c-0.2,0-0.4-0.2-0.4-0.4l0.2-1.5c0-0.2,0.1-0.3,0.2-0.3c0,0,0.6-0.3,1.1-0.5c0.5-0.2,0.9-0.2,0.9-0.2
			c0.4,0,0.7,0.1,1,0.3c0.3,0.2,0.5,0.6,0.5,1l0.3,3.2c0,0,1.5-1.3,1.9-1.7c0.5-0.5,0.9-0.6,1.4-0.4c0.5,0.2,0.7,0.5,0.8,1.2
			c0.1,0.7,1.1,8.2,1.3,9.8c0,0.2-0.3,0.3-0.5,0.3c-1.5-0.1-2.3-2.1-2.6-3.3l-1.6-0.6C90.8,102.8,91.6,105.9,91.8,106.9z"/>
	</g>
	<g>
		<path d="M50.5,32.2c0.8,0,1.4-0.4,1.8-1c0.3,0.2,0.6,0.2,1,0.2c1.1,0,2-0.9,2.2-1.9c1.2,0,2.1-1,2.1-2.2c0-0.5-0.2-1-0.5-1.4
			c-0.5-0.6-2.4-2.9-2.5-2.9c0-0.1,0-1.2,0-1.2c0-0.6-0.5-1.1-1-1.1c0,0-1,0-1.1,0c-0.1-0.1-1-1-1-1c-0.3-0.3-0.6-0.4-1-0.4
			c-0.4,0-0.8,0.1-1,0.4c0,0-0.9,0.9-1,1c-0.1,0-1.1,0-1.1,0c-0.6,0-1,0.5-1,1.1c0,0,0,1.1,0,1.2c0,0-1.9,2.3-2.5,2.9
			c-0.3,0.4-0.5,0.9-0.5,1.4c0,1.2,1,2.1,2.1,2.2c0.1,1.1,1,1.9,2.2,1.9c0.4,0,0.7-0.1,1-0.2C49.1,31.7,49.7,32.2,50.5,32.2z"/>
		<path d="M50.5,64.3c0.8,0,1.4-0.4,1.8-1c0.3,0.2,0.6,0.2,1,0.2c1.1,0,2-0.9,2.2-1.9c1.2,0,2.1-1,2.1-2.2c0-0.5-0.2-1-0.5-1.4
			c-0.5-0.6-2.4-2.9-2.5-2.9c0-0.1,0-1.2,0-1.2c0-0.6-0.5-1.1-1-1.1c0,0-1,0-1.1,0c-0.1-0.1-1-1-1-1c-0.3-0.3-0.6-0.4-1-0.4
			c-0.4,0-0.8,0.1-1,0.4c0,0-0.9,0.9-1,1c-0.1,0-1.1,0-1.1,0c-0.6,0-1,0.5-1,1.1c0,0,0,1.1,0,1.2c0,0-1.9,2.3-2.5,2.9
			c-0.3,0.4-0.5,0.9-0.5,1.4c0,1.2,1,2.1,2.1,2.2c0.1,1.1,1,1.9,2.2,1.9c0.4,0,0.7-0.1,1-0.2C49.1,63.8,49.7,64.3,50.5,64.3z"/>
		<path d="M22,64.3c0.8,0,1.4-0.4,1.8-1c0.3,0.2,0.6,0.2,1,0.2c1.1,0,2-0.9,2.2-1.9c1.2,0,2.1-1,2.1-2.2c0-0.5-0.2-1-0.5-1.4
			C28,57.3,26.1,55,26.1,55c0-0.1,0-1.2,0-1.2c0-0.6-0.5-1.1-1-1.1c0,0-1,0-1.1,0c-0.1-0.1-1-1-1-1c-0.3-0.3-0.6-0.4-1-0.4
			c-0.4,0-0.8,0.1-1,0.4c0,0-0.9,0.9-1,1c-0.1,0-1.1,0-1.1,0c-0.6,0-1,0.5-1,1.1c0,0,0,1.1,0,1.2c0,0-1.9,2.3-2.5,2.9
			c-0.3,0.4-0.5,0.9-0.5,1.4c0,1.2,1,2.1,2.1,2.2c0.1,1.1,1,1.9,2.2,1.9c0.4,0,0.7-0.1,1-0.2C20.5,63.8,21.2,64.3,22,64.3z"/>
		<path d="M79,64.3c0.8,0,1.4-0.4,1.8-1c0.3,0.2,0.6,0.2,1,0.2c1.1,0,2-0.9,2.2-1.9c1.2,0,2.1-1,2.1-2.2c0-0.5-0.2-1-0.5-1.4
			c-0.5-0.6-2.4-2.9-2.5-2.9c0-0.1,0-1.2,0-1.2c0-0.6-0.5-1.1-1-1.1c0,0-1,0-1.1,0c-0.1-0.1-1-1-1-1c-0.3-0.3-0.6-0.4-1-0.4
			c-0.4,0-0.8,0.1-1,0.4c0,0-0.9,0.9-1,1c-0.1,0-1.1,0-1.1,0c-0.6,0-1,0.5-1,1.1c0,0,0,1.1,0,1.2c0,0-1.9,2.3-2.5,2.9
			c-0.3,0.4-0.5,0.9-0.5,1.4c0,1.2,1,2.1,2.1,2.2c0.1,1.1,1,1.9,2.2,1.9c0.4,0,0.7-0.1,1-0.2C77.6,63.8,78.3,64.3,79,64.3z"/>
		<path d="M50.5,96.3c0.8,0,1.4-0.4,1.8-1c0.3,0.2,0.6,0.2,1,0.2c1.1,0,2-0.9,2.2-1.9c1.2,0,2.1-1,2.1-2.2c0-0.5-0.2-1-0.5-1.4
			c-0.5-0.6-2.4-2.9-2.5-2.9c0-0.1,0-1.2,0-1.2c0-0.6-0.5-1.1-1-1.1c0,0-1,0-1.1,0c-0.1-0.1-1-1-1-1c-0.3-0.3-0.6-0.4-1-0.4
			c-0.4,0-0.8,0.2-1,0.4c0,0-0.9,0.9-1,1c-0.1,0-1.1,0-1.1,0c-0.6,0-1,0.5-1,1.1c0,0,0,1.1,0,1.2c0,0-1.9,2.3-2.5,2.9
			c-0.3,0.4-0.5,0.9-0.5,1.4c0,1.2,1,2.1,2.1,2.2c0.1,1.1,1,1.9,2.2,1.9c0.4,0,0.7-0.1,1-0.2C49.1,95.9,49.7,96.3,50.5,96.3z"/>
	</g>
	<g>
		<path class="st2" d="M50.5,31.4c0.5,0,0.9-0.3,1.2-0.7l-0.4-3.9c0-0.2,0.1-0.3,0.2-0.3c0.2,0,0.3,0.1,0.3,0.2l0.7,3.8
			c0.2,0.1,0.5,0.2,0.7,0.2c0.8,0,1.4-0.6,1.5-1.3l-1.6-3.7c-0.1-0.1,0-0.3,0.2-0.4c0.1-0.1,0.3,0,0.4,0.1l1.7,3.4c0,0,0,0,0,0
			c0.8,0,1.5-0.7,1.5-1.5c0-0.3,0-0.6-0.2-0.8l-2.8-3.3v-1.5c0-0.2-0.1-0.3-0.3-0.3c0,0-1.4,0-1.4,0L51,20.2
			C50.9,20,50.7,20,50.5,20c-0.2,0-0.4,0.1-0.5,0.2l-1.2,1.2c0,0-1.4,0-1.4,0c-0.2,0-0.3,0.1-0.3,0.3v1.5l-2.8,3.3
			c-0.2,0.2-0.2,0.5-0.2,0.8c0,0.8,0.7,1.5,1.5,1.5c0,0,0,0,0,0l1.7-3.4c0.1-0.1,0.2-0.2,0.4-0.1c0.1,0.1,0.2,0.2,0.2,0.4l-1.6,3.7
			c0.1,0.8,0.7,1.3,1.5,1.3c0.3,0,0.5-0.1,0.7-0.2l0.7-3.8c0-0.2,0.2-0.3,0.3-0.2c0.2,0,0.3,0.2,0.2,0.3l-0.4,3.9
			C49.6,31.1,50,31.4,50.5,31.4z"/>
		<path class="st2" d="M50.5,63.5c0.5,0,0.9-0.3,1.2-0.7l-0.4-3.9c0-0.2,0.1-0.3,0.2-0.3c0.2,0,0.3,0.1,0.3,0.2l0.7,3.8
			c0.2,0.1,0.5,0.2,0.7,0.2c0.8,0,1.4-0.6,1.5-1.3l-1.6-3.7c-0.1-0.1,0-0.3,0.2-0.4c0.1-0.1,0.3,0,0.4,0.1l1.7,3.4c0,0,0,0,0,0
			c0.8,0,1.5-0.7,1.5-1.5c0-0.3,0-0.6-0.2-0.8l-2.8-3.3v-1.5c0-0.2-0.1-0.3-0.3-0.3c0,0-1.4,0-1.4,0L51,52.3
			c-0.1-0.1-0.3-0.2-0.5-0.2c-0.2,0-0.4,0.1-0.5,0.2l-1.2,1.2c0,0-1.4,0-1.4,0c-0.2,0-0.3,0.1-0.3,0.3v1.5l-2.8,3.3
			c-0.2,0.2-0.2,0.5-0.2,0.8c0,0.8,0.7,1.5,1.5,1.5c0,0,0,0,0,0l1.7-3.4c0.1-0.1,0.2-0.2,0.4-0.1c0.1,0.1,0.2,0.2,0.2,0.4l-1.6,3.7
			c0.1,0.8,0.7,1.3,1.5,1.3c0.3,0,0.5-0.1,0.7-0.2l0.7-3.8c0-0.2,0.2-0.3,0.3-0.2c0.2,0,0.3,0.2,0.2,0.3l-0.4,3.9
			C49.6,63.2,50,63.5,50.5,63.5z"/>
		<path class="st2" d="M22,63.5c0.5,0,0.9-0.3,1.2-0.7l-0.4-3.9c0-0.2,0.1-0.3,0.2-0.3c0.2,0,0.3,0.1,0.3,0.2l0.7,3.8
			c0.2,0.1,0.5,0.2,0.7,0.2c0.8,0,1.4-0.6,1.5-1.3l-1.6-3.7c-0.1-0.1,0-0.3,0.1-0.4c0.1-0.1,0.3,0,0.4,0.1l1.7,3.4c0,0,0,0,0,0
			c0.8,0,1.5-0.7,1.5-1.5c0-0.3,0-0.6-0.2-0.8l-2.8-3.3v-1.5c0-0.2-0.1-0.3-0.3-0.3c0,0-1.4,0-1.4,0l-1.2-1.2
			c-0.1-0.1-0.3-0.2-0.5-0.2c-0.2,0-0.4,0.1-0.5,0.2l-1.2,1.2c0,0-1.4,0-1.4,0c-0.2,0-0.3,0.1-0.3,0.3v1.5l-2.8,3.3
			c-0.2,0.2-0.2,0.5-0.2,0.8c0,0.8,0.7,1.5,1.5,1.5c0,0,0,0,0,0l1.7-3.4c0.1-0.1,0.2-0.2,0.4-0.1c0.1,0.1,0.2,0.2,0.2,0.4l-1.6,3.7
			c0.1,0.8,0.7,1.3,1.5,1.3c0.3,0,0.5-0.1,0.7-0.2l0.7-3.8c0-0.2,0.2-0.3,0.3-0.2c0.2,0,0.3,0.2,0.2,0.3l-0.4,3.9
			C21,63.2,21.5,63.5,22,63.5z"/>
		<path class="st2" d="M79,63.5c0.5,0,0.9-0.3,1.2-0.7l-0.4-3.9c0-0.2,0.1-0.3,0.2-0.3c0.2,0,0.3,0.1,0.3,0.2l0.7,3.8
			c0.2,0.1,0.5,0.2,0.7,0.2c0.8,0,1.4-0.6,1.5-1.3l-1.6-3.7c-0.1-0.1,0-0.3,0.1-0.4c0.1-0.1,0.3,0,0.4,0.1l1.7,3.4c0,0,0,0,0,0
			c0.8,0,1.5-0.7,1.5-1.5c0-0.3,0-0.6-0.2-0.8l-2.8-3.3v-1.5c0-0.2-0.1-0.3-0.3-0.3c0,0-1.4,0-1.4,0l-1.2-1.2
			c-0.1-0.1-0.3-0.2-0.5-0.2c-0.2,0-0.4,0.1-0.5,0.2l-1.2,1.2c0,0-1.4,0-1.4,0c-0.2,0-0.3,0.1-0.3,0.3v1.5l-2.8,3.3
			c-0.2,0.2-0.2,0.5-0.2,0.8c0,0.8,0.7,1.5,1.5,1.5c0,0,0,0,0,0l1.7-3.4c0.1-0.1,0.2-0.2,0.4-0.1c0.1,0.1,0.2,0.2,0.2,0.4l-1.6,3.7
			c0.1,0.8,0.7,1.3,1.5,1.3c0.3,0,0.5-0.1,0.7-0.2l0.7-3.8c0-0.2,0.2-0.3,0.3-0.2c0.2,0,0.3,0.2,0.2,0.3l-0.4,3.9
			C78.1,63.2,78.5,63.5,79,63.5z"/>
		<path class="st2" d="M50.5,95.6c0.5,0,0.9-0.3,1.2-0.7L51.3,91c0-0.2,0.1-0.3,0.2-0.3c0.2,0,0.3,0.1,0.3,0.2l0.7,3.8
			c0.2,0.1,0.5,0.2,0.7,0.2c0.8,0,1.4-0.6,1.5-1.3l-1.6-3.7c-0.1-0.1,0-0.3,0.2-0.4c0.1-0.1,0.3,0,0.4,0.1l1.7,3.4c0,0,0,0,0,0
			c0.8,0,1.5-0.7,1.5-1.5c0-0.3,0-0.6-0.2-0.8l-2.8-3.3v-1.5c0-0.2-0.1-0.3-0.3-0.3c0,0-1.4,0-1.4,0L51,84.4
			c-0.1-0.1-0.3-0.2-0.5-0.2c-0.2,0-0.4,0.1-0.5,0.2l-1.2,1.2c0,0-1.4,0-1.4,0c-0.2,0-0.3,0.1-0.3,0.3v1.5l-2.8,3.3
			c-0.2,0.2-0.2,0.5-0.2,0.8c0,0.8,0.7,1.5,1.5,1.5c0,0,0,0,0,0l1.7-3.4c0.1-0.1,0.2-0.2,0.4-0.1c0.1,0.1,0.2,0.2,0.2,0.4l-1.6,3.7
			c0.1,0.8,0.7,1.3,1.5,1.3c0.3,0,0.5-0.1,0.7-0.2l0.7-3.8c0-0.2,0.2-0.3,0.3-0.2c0.2,0,0.3,0.2,0.2,0.3l-0.4,3.9
			C49.6,95.3,50,95.6,50.5,95.6z"/>
	</g>
	<g>
		<path class="st3" d="M16.1,21.5c-0.3,0.1-0.8,0.1-1.1,0.1c-0.1,0-0.1,0-0.2,0l0,0l-0.6-2.8c-0.1-0.5-0.5-0.5-0.5,0.1l0.3,2.9
			c-0.1,0.1-0.5,0.9-0.9,0.9c-0.4,0-0.8-0.7-0.9-0.9l0.3-2.9c0.1-0.6-0.4-0.6-0.5-0.1l-0.6,2.8l0,0c-0.1,0-0.1,0-0.2,0
			c-0.3,0-0.9,0-1.1-0.1c0.4-1.5,1.2-4.6,1.4-5.7c0-0.2-0.1-0.4-0.4-0.4c0,0-0.1,0-0.2,0c-0.4,0.1-1.4,0.5-1.7,0.6l0.2-2.3
			c0-0.6-0.4-0.6-0.5-0.1c-0.5,2.1-0.7,4.8-2.2,5.7c0.1-1,1.1-8.3,1.2-9.2c0-0.2,0-0.4,0.3-0.5c0.2-0.1,0.4,0,0.5,0.2
			c0,0,2.4,2.2,2.4,2.2c0.1,0.1,0.3,0.2,0.4,0.1c0.1,0,0.3-0.2,0.3-0.3l0.3-2.8c0-0.1,0-0.2-0.1-0.3c-0.1-0.1-0.2-0.1-0.3-0.1
			c0,0-0.2,0-0.4,0l0.1-0.9c0.3-0.1,1-0.5,1.4-0.5c0,0,0,0,0,0c0,0,0.1,0,0.1,0c0.2,0,0.4,0.1,0.6,0.2c0.1,0.1,0.2,0.3,0.3,0.5
			l0.4,3.9c0,0.2,0.1,0.3,0.3,0.3c0.1,0,0.3,0,0.4-0.1c0,0,2.4-2.2,2.4-2.2c0.2-0.2,0.3-0.2,0.5-0.2c0.3,0.1,0.3,0.3,0.3,0.5
			c0.1,1,1.1,8.3,1.2,9.2c-1.5-0.9-1.7-3.7-2.2-5.7c-0.1-0.5-0.6-0.5-0.5,0.1l0.2,2.3c-0.3-0.1-1.4-0.5-1.7-0.6c-0.1,0-0.1,0-0.2,0
			c-0.3,0-0.4,0.3-0.4,0.4C14.9,16.9,15.7,20.1,16.1,21.5z"/>
		<path class="st3" d="M34,21.5c-0.3,0.1-0.8,0.1-1.1,0.1c-0.1,0-0.1,0-0.2,0l0,0l-0.6-2.8c-0.1-0.5-0.5-0.5-0.5,0.1l0.3,2.9
			c-0.1,0.1-0.5,0.9-0.9,0.9c-0.4,0-0.8-0.7-0.9-0.9l0.3-2.9c0.1-0.6-0.4-0.6-0.5-0.1l-0.6,2.8l0,0c-0.1,0-0.1,0-0.2,0
			c-0.3,0-0.9,0-1.1-0.1c0.4-1.5,1.2-4.6,1.4-5.7c0-0.2-0.1-0.4-0.4-0.4c0,0-0.1,0-0.2,0c-0.4,0.1-1.4,0.5-1.7,0.6l0.2-2.3
			c0-0.6-0.4-0.6-0.5-0.1c-0.5,2.1-0.7,4.8-2.2,5.7c0.1-1,1.1-8.3,1.2-9.2c0-0.2,0-0.4,0.3-0.5c0.2-0.1,0.4,0,0.5,0.2
			c0,0,2.4,2.2,2.4,2.2c0.1,0.1,0.3,0.2,0.4,0.1c0.1,0,0.3-0.2,0.3-0.3l0.3-2.8c0-0.1,0-0.2-0.1-0.3c-0.1-0.1-0.2-0.1-0.3-0.1
			c0,0-0.2,0-0.4,0l0.1-0.9c0.3-0.1,1-0.5,1.4-0.5c0,0,0,0,0,0c0,0,0.1,0,0.1,0c0.2,0,0.4,0.1,0.5,0.2c0.2,0.1,0.2,0.3,0.3,0.5
			l0.4,3.9c0,0.2,0.1,0.3,0.3,0.3c0.1,0,0.3,0,0.4-0.1c0,0,2.4-2.2,2.4-2.2c0.2-0.2,0.3-0.2,0.5-0.2c0.3,0.1,0.3,0.3,0.3,0.5
			c0.1,1,1.1,8.3,1.2,9.2c-1.5-0.9-1.7-3.7-2.2-5.7c-0.1-0.5-0.6-0.5-0.5,0.1l0.2,2.3c-0.3-0.1-1.4-0.5-1.7-0.6c-0.1,0-0.1,0-0.2,0
			c-0.3,0-0.4,0.3-0.4,0.4C32.8,16.9,33.6,20.1,34,21.5z"/>
		<path class="st3" d="M16.1,42.7c-0.3,0.1-0.8,0.1-1.1,0.1c-0.1,0-0.1,0-0.2,0l0,0l-0.6-2.8c-0.1-0.5-0.5-0.5-0.5,0.1l0.3,2.9
			c-0.1,0.1-0.5,0.9-0.9,0.9c-0.4,0-0.8-0.7-0.9-0.9l0.3-2.9c0.1-0.6-0.4-0.6-0.5-0.1l-0.6,2.8l0,0c-0.1,0-0.1,0-0.2,0
			c-0.3,0-0.9,0-1.1-0.1c0.4-1.5,1.2-4.6,1.4-5.7c0-0.2-0.1-0.4-0.4-0.4c0,0-0.1,0-0.2,0c-0.4,0.1-1.4,0.5-1.7,0.6l0.2-2.3
			c0-0.6-0.4-0.6-0.5-0.1c-0.5,2-0.7,4.8-2.2,5.7c0.1-1,1.1-8.3,1.2-9.2c0-0.2,0-0.4,0.3-0.5c0.2-0.1,0.4,0,0.5,0.2
			c0,0,2.4,2.2,2.4,2.2c0.1,0.1,0.3,0.2,0.4,0.1c0.1,0,0.3-0.2,0.3-0.3l0.3-2.8c0-0.1,0-0.2-0.1-0.3c-0.1-0.1-0.2-0.1-0.3-0.1
			c0,0-0.2,0-0.4,0l0.1-0.9c0.3-0.1,1-0.5,1.4-0.5c0,0,0,0,0,0c0,0,0.1,0,0.1,0c0.2,0,0.4,0.1,0.6,0.2c0.1,0.1,0.2,0.3,0.3,0.5
			l0.4,3.9c0,0.1,0.1,0.3,0.3,0.3c0.1,0,0.3,0,0.4-0.1c0,0,2.4-2.2,2.4-2.2c0.2-0.2,0.3-0.2,0.5-0.2c0.3,0.1,0.3,0.3,0.3,0.5
			c0.1,1,1.1,8.3,1.2,9.2c-1.5-0.9-1.7-3.7-2.2-5.7c-0.1-0.5-0.6-0.5-0.5,0.1l0.2,2.3c-0.3-0.1-1.4-0.5-1.7-0.6c-0.1,0-0.1,0-0.2,0
			c-0.3,0-0.4,0.3-0.4,0.4C14.9,38,15.7,41.2,16.1,42.7z"/>
		<path class="st3" d="M34,42.7c-0.3,0.1-0.8,0.1-1.1,0.1c-0.1,0-0.1,0-0.2,0l0,0l-0.6-2.8c-0.1-0.5-0.5-0.5-0.5,0.1l0.3,2.9
			c-0.1,0.1-0.5,0.9-0.9,0.9c-0.4,0-0.8-0.7-0.9-0.9l0.3-2.9c0.1-0.6-0.4-0.6-0.5-0.1l-0.6,2.8l0,0c-0.1,0-0.1,0-0.2,0
			c-0.3,0-0.9,0-1.1-0.1c0.4-1.5,1.2-4.6,1.4-5.7c0-0.2-0.1-0.4-0.4-0.4c0,0-0.1,0-0.2,0c-0.4,0.1-1.4,0.5-1.7,0.6l0.2-2.3
			c0-0.6-0.4-0.6-0.5-0.1c-0.5,2-0.7,4.8-2.2,5.7c0.1-1,1.1-8.3,1.2-9.2c0-0.2,0-0.4,0.3-0.5c0.2-0.1,0.4,0,0.5,0.2
			c0,0,2.4,2.2,2.4,2.2c0.1,0.1,0.3,0.2,0.4,0.1c0.1,0,0.3-0.2,0.3-0.3l0.3-2.8c0-0.1,0-0.2-0.1-0.3c-0.1-0.1-0.2-0.1-0.3-0.1
			c0,0-0.2,0-0.4,0l0.1-0.9c0.3-0.1,1-0.5,1.4-0.5c0,0,0,0,0,0c0,0,0.1,0,0.1,0c0.2,0,0.4,0.1,0.5,0.2c0.2,0.1,0.2,0.3,0.3,0.5
			l0.4,3.9c0,0.1,0.1,0.3,0.3,0.3c0.1,0,0.3,0,0.4-0.1c0,0,2.4-2.2,2.4-2.2c0.2-0.2,0.3-0.2,0.5-0.2c0.3,0.1,0.3,0.3,0.3,0.5
			c0.1,1,1.1,8.3,1.2,9.2c-1.5-0.9-1.7-3.7-2.2-5.7c-0.1-0.5-0.6-0.5-0.5,0.1l0.2,2.3c-0.3-0.1-1.4-0.5-1.7-0.6c-0.1,0-0.1,0-0.2,0
			c-0.3,0-0.4,0.3-0.4,0.4C32.8,38,33.6,41.2,34,42.7z"/>
		<path class="st3" d="M73.1,21.5c-0.3,0.1-0.8,0.1-1.1,0.1c-0.1,0-0.1,0-0.2,0l0,0l-0.6-2.8c-0.1-0.5-0.5-0.5-0.5,0.1l0.3,2.9
			c-0.1,0.1-0.5,0.9-0.9,0.9s-0.8-0.7-0.9-0.9l0.3-2.9c0.1-0.6-0.4-0.6-0.5-0.1l-0.6,2.8l0,0c-0.1,0-0.1,0-0.2,0
			c-0.3,0-0.9,0-1.1-0.1c0.4-1.5,1.2-4.6,1.4-5.7c0-0.2-0.1-0.4-0.4-0.4c0,0-0.1,0-0.2,0c-0.4,0.1-1.4,0.5-1.7,0.6l0.2-2.3
			c0-0.6-0.4-0.6-0.5-0.1c-0.5,2.1-0.7,4.8-2.2,5.7c0.1-1,1.1-8.3,1.2-9.2c0-0.2,0-0.4,0.3-0.5c0.2-0.1,0.4,0,0.5,0.2
			c0,0,2.4,2.2,2.4,2.2c0.1,0.1,0.3,0.2,0.4,0.1c0.1,0,0.3-0.2,0.3-0.3l0.3-2.8c0-0.1,0-0.2-0.1-0.3c-0.1-0.1-0.2-0.1-0.3-0.1
			c0,0-0.2,0-0.4,0l0.1-0.9c0.3-0.1,1-0.5,1.4-0.5c0,0,0,0,0,0c0,0,0.1,0,0.1,0c0.2,0,0.4,0.1,0.6,0.2c0.1,0.1,0.2,0.3,0.3,0.5
			l0.4,3.9c0,0.2,0.1,0.3,0.3,0.3c0.1,0,0.3,0,0.4-0.1c0,0,2.4-2.2,2.4-2.2c0.2-0.2,0.3-0.2,0.5-0.2c0.3,0.1,0.3,0.3,0.3,0.5
			c0.1,1,1.1,8.3,1.2,9.2c-1.5-0.9-1.7-3.7-2.2-5.7c-0.1-0.5-0.6-0.5-0.5,0.1l0.2,2.3c-0.3-0.1-1.4-0.5-1.7-0.6c-0.1,0-0.1,0-0.2,0
			c-0.3,0-0.4,0.3-0.4,0.4C71.9,16.9,72.8,20.1,73.1,21.5z"/>
		<path class="st3" d="M91,21.5c-0.3,0.1-0.8,0.1-1.1,0.1c-0.1,0-0.1,0-0.2,0l0,0l-0.6-2.8c-0.1-0.5-0.5-0.5-0.5,0.1l0.3,2.9
			c-0.1,0.1-0.5,0.9-0.9,0.9c-0.4,0-0.8-0.7-0.9-0.9l0.3-2.9c0.1-0.6-0.4-0.6-0.5-0.1l-0.6,2.8l0,0c-0.1,0-0.1,0-0.2,0
			c-0.3,0-0.9,0-1.1-0.1c0.4-1.5,1.2-4.6,1.4-5.7c0-0.2-0.1-0.4-0.4-0.4c0,0-0.1,0-0.2,0c-0.4,0.1-1.4,0.5-1.7,0.6l0.2-2.3
			c0-0.6-0.4-0.6-0.5-0.1c-0.5,2.1-0.7,4.8-2.2,5.7c0.1-1,1.1-8.3,1.2-9.2c0-0.2,0-0.4,0.3-0.5c0.2-0.1,0.4,0,0.5,0.2
			c0,0,2.4,2.2,2.4,2.2c0.1,0.1,0.3,0.2,0.4,0.1c0.1,0,0.3-0.2,0.3-0.3l0.3-2.8c0-0.1,0-0.2-0.1-0.3c-0.1-0.1-0.2-0.1-0.3-0.1
			c0,0-0.2,0-0.4,0l0.1-0.9c0.3-0.1,1-0.5,1.4-0.5c0,0,0,0,0,0c0,0,0.1,0,0.1,0c0.2,0,0.4,0.1,0.5,0.2c0.2,0.1,0.2,0.3,0.3,0.5
			l0.4,3.9c0,0.2,0.1,0.3,0.3,0.3c0.1,0,0.3,0,0.4-0.1c0,0,2.4-2.2,2.4-2.2c0.2-0.2,0.3-0.2,0.5-0.2c0.3,0.1,0.3,0.3,0.3,0.5
			c0.1,1,1.1,8.3,1.2,9.2c-1.5-0.9-1.7-3.7-2.2-5.7c-0.1-0.5-0.6-0.5-0.5,0.1l0.2,2.3c-0.3-0.1-1.4-0.5-1.7-0.6c-0.1,0-0.1,0-0.2,0
			c-0.3,0-0.4,0.3-0.4,0.4C89.8,16.9,90.7,20.1,91,21.5z"/>
		<path class="st3" d="M73.1,42.7c-0.3,0.1-0.8,0.1-1.1,0.1c-0.1,0-0.1,0-0.2,0l0,0l-0.6-2.8c-0.1-0.5-0.5-0.5-0.5,0.1l0.3,2.9
			c-0.1,0.1-0.5,0.9-0.9,0.9s-0.8-0.7-0.9-0.9l0.3-2.9c0.1-0.6-0.4-0.6-0.5-0.1l-0.6,2.8l0,0c-0.1,0-0.1,0-0.2,0
			c-0.3,0-0.9,0-1.1-0.1c0.4-1.5,1.2-4.6,1.4-5.7c0-0.2-0.1-0.4-0.4-0.4c0,0-0.1,0-0.2,0c-0.4,0.1-1.4,0.5-1.7,0.6l0.2-2.3
			c0-0.6-0.4-0.6-0.5-0.1c-0.5,2-0.7,4.8-2.2,5.7c0.1-1,1.1-8.3,1.2-9.2c0-0.2,0-0.4,0.3-0.5c0.2-0.1,0.4,0,0.5,0.2
			c0,0,2.4,2.2,2.4,2.2c0.1,0.1,0.3,0.2,0.4,0.1c0.1,0,0.3-0.2,0.3-0.3l0.3-2.8c0-0.1,0-0.2-0.1-0.3c-0.1-0.1-0.2-0.1-0.3-0.1
			c0,0-0.2,0-0.4,0l0.1-0.9c0.3-0.1,1-0.5,1.4-0.5c0,0,0,0,0,0c0,0,0.1,0,0.1,0c0.2,0,0.4,0.1,0.6,0.2c0.1,0.1,0.2,0.3,0.3,0.5
			l0.4,3.9c0,0.1,0.1,0.3,0.3,0.3c0.1,0,0.3,0,0.4-0.1c0,0,2.4-2.2,2.4-2.2c0.2-0.2,0.3-0.2,0.5-0.2c0.3,0.1,0.3,0.3,0.3,0.5
			c0.1,1,1.1,8.3,1.2,9.2c-1.5-0.9-1.7-3.7-2.2-5.7c-0.1-0.5-0.6-0.5-0.5,0.1l0.2,2.3c-0.3-0.1-1.4-0.5-1.7-0.6c-0.1,0-0.1,0-0.2,0
			c-0.3,0-0.4,0.3-0.4,0.4C71.9,38,72.8,41.2,73.1,42.7z"/>
		<path class="st3" d="M91,42.7c-0.3,0.1-0.8,0.1-1.1,0.1c-0.1,0-0.1,0-0.2,0l0,0l-0.6-2.8c-0.1-0.5-0.5-0.5-0.5,0.1l0.3,2.9
			c-0.1,0.1-0.5,0.9-0.9,0.9c-0.4,0-0.8-0.7-0.9-0.9l0.3-2.9c0.1-0.6-0.4-0.6-0.5-0.1l-0.6,2.8l0,0c-0.1,0-0.1,0-0.2,0
			c-0.3,0-0.9,0-1.1-0.1c0.4-1.5,1.2-4.6,1.4-5.7c0-0.2-0.1-0.4-0.4-0.4c0,0-0.1,0-0.2,0c-0.4,0.1-1.4,0.5-1.7,0.6l0.2-2.3
			c0-0.6-0.4-0.6-0.5-0.1c-0.5,2-0.7,4.8-2.2,5.7c0.1-1,1.1-8.3,1.2-9.2c0-0.2,0-0.4,0.3-0.5c0.2-0.1,0.4,0,0.5,0.2
			c0,0,2.4,2.2,2.4,2.2c0.1,0.1,0.3,0.2,0.4,0.1c0.1,0,0.3-0.2,0.3-0.3l0.3-2.8c0-0.1,0-0.2-0.1-0.3c-0.1-0.1-0.2-0.1-0.3-0.1
			c0,0-0.2,0-0.4,0l0.1-0.9c0.3-0.1,1-0.5,1.4-0.5c0,0,0,0,0,0c0,0,0.1,0,0.1,0c0.2,0,0.4,0.1,0.5,0.2c0.2,0.1,0.2,0.3,0.3,0.5
			l0.4,3.9c0,0.1,0.1,0.3,0.3,0.3c0.1,0,0.3,0,0.4-0.1c0,0,2.4-2.2,2.4-2.2c0.2-0.2,0.3-0.2,0.5-0.2c0.3,0.1,0.3,0.3,0.3,0.5
			c0.1,1,1.1,8.3,1.2,9.2c-1.5-0.9-1.7-3.7-2.2-5.7c-0.1-0.5-0.6-0.5-0.5,0.1l0.2,2.3c-0.3-0.1-1.4-0.5-1.7-0.6c-0.1,0-0.1,0-0.2,0
			c-0.3,0-0.4,0.3-0.4,0.4C89.8,38,90.7,41.2,91,42.7z"/>
		<path class="st3" d="M16.1,85.7c-0.3,0.1-0.8,0.1-1.1,0.1c-0.1,0-0.1,0-0.2,0l0,0L14.1,83c-0.1-0.5-0.5-0.5-0.5,0.1l0.3,2.9
			c-0.1,0.2-0.5,0.9-0.9,0.9c-0.4,0-0.8-0.7-0.9-0.9l0.3-2.9c0.1-0.6-0.4-0.6-0.5-0.1l-0.6,2.8l0,0c-0.1,0-0.1,0-0.2,0
			c-0.3,0-0.9,0-1.1-0.1c0.4-1.5,1.2-4.6,1.4-5.7c0-0.2-0.1-0.4-0.4-0.4c0,0-0.1,0-0.2,0c-0.4,0.1-1.4,0.5-1.7,0.6L9.3,78
			c0-0.6-0.4-0.6-0.5-0.1c-0.5,2-0.7,4.8-2.2,5.7c0.1-1,1.1-8.3,1.2-9.2c0-0.2,0-0.4,0.3-0.5c0.2-0.1,0.4,0,0.5,0.2
			c0,0,2.4,2.2,2.4,2.2c0.1,0.1,0.3,0.2,0.4,0.1c0.1,0,0.3-0.2,0.3-0.3l0.3-2.8c0-0.1,0-0.2-0.1-0.3C12,73,11.9,73,11.8,73
			c0,0-0.2,0-0.4,0l0.1-0.9c0.3-0.1,1-0.5,1.4-0.5c0,0,0,0,0,0c0,0,0.1,0,0.1,0c0.2,0,0.4,0.1,0.6,0.2c0.1,0.1,0.2,0.3,0.3,0.5
			l0.4,3.9c0,0.1,0.1,0.3,0.3,0.3c0.1,0,0.3,0,0.4-0.1c0,0,2.4-2.2,2.4-2.2c0.2-0.2,0.3-0.2,0.5-0.2c0.3,0.1,0.3,0.3,0.3,0.5
			c0.1,1,1.1,8.3,1.2,9.2c-1.5-0.9-1.7-3.7-2.2-5.7c-0.1-0.5-0.6-0.5-0.5,0.1l0.2,2.3c-0.3-0.1-1.4-0.5-1.7-0.6c-0.1,0-0.1,0-0.2,0
			c-0.3,0-0.4,0.3-0.4,0.4C14.9,81.1,15.7,84.3,16.1,85.7z"/>
		<path class="st3" d="M34,85.7c-0.3,0.1-0.8,0.1-1.1,0.1c-0.1,0-0.1,0-0.2,0l0,0L32.1,83c-0.1-0.5-0.5-0.5-0.5,0.1l0.3,2.9
			c-0.1,0.2-0.5,0.9-0.9,0.9c-0.4,0-0.8-0.7-0.9-0.9l0.3-2.9c0.1-0.6-0.4-0.6-0.5-0.1l-0.6,2.8l0,0c-0.1,0-0.1,0-0.2,0
			c-0.3,0-0.9,0-1.1-0.1c0.4-1.5,1.2-4.6,1.4-5.7c0-0.2-0.1-0.4-0.4-0.4c0,0-0.1,0-0.2,0c-0.4,0.1-1.4,0.5-1.7,0.6l0.2-2.3
			c0-0.6-0.4-0.6-0.5-0.1c-0.5,2-0.7,4.8-2.2,5.7c0.1-1,1.1-8.3,1.2-9.2c0-0.2,0-0.4,0.3-0.5c0.2-0.1,0.4,0,0.5,0.2
			c0,0,2.4,2.2,2.4,2.2c0.1,0.1,0.3,0.2,0.4,0.1c0.1,0,0.3-0.2,0.3-0.3l0.3-2.8c0-0.1,0-0.2-0.1-0.3C29.9,73,29.8,73,29.7,73
			c0,0-0.2,0-0.4,0l0.1-0.9c0.3-0.1,1-0.5,1.4-0.5c0,0,0,0,0,0c0,0,0.1,0,0.1,0c0.2,0,0.4,0.1,0.5,0.2c0.2,0.1,0.2,0.3,0.3,0.5
			l0.4,3.9c0,0.1,0.1,0.3,0.3,0.3c0.1,0,0.3,0,0.4-0.1c0,0,2.4-2.2,2.4-2.2c0.2-0.2,0.3-0.2,0.5-0.2c0.3,0.1,0.3,0.3,0.3,0.5
			c0.1,1,1.1,8.3,1.2,9.2c-1.5-0.9-1.7-3.7-2.2-5.7c-0.1-0.5-0.6-0.5-0.5,0.1l0.2,2.3c-0.3-0.1-1.4-0.5-1.7-0.6c-0.1,0-0.1,0-0.2,0
			c-0.3,0-0.4,0.3-0.4,0.4C32.8,81.1,33.6,84.3,34,85.7z"/>
		<path class="st3" d="M16.1,106.9c-0.3,0.1-0.8,0.1-1.1,0.1c-0.1,0-0.1,0-0.2,0l0,0l-0.6-2.8c-0.1-0.5-0.5-0.5-0.5,0.1l0.3,2.9
			c-0.1,0.2-0.5,0.9-0.9,0.9c-0.4,0-0.8-0.7-0.9-0.9l0.3-2.9c0.1-0.6-0.4-0.6-0.5-0.1l-0.6,2.8l0,0c-0.1,0-0.1,0-0.2,0
			c-0.3,0-0.9,0-1.1-0.1c0.4-1.5,1.2-4.6,1.4-5.7c0-0.2-0.1-0.4-0.4-0.4c0,0-0.1,0-0.2,0c-0.4,0.1-1.4,0.5-1.7,0.7l0.2-2.3
			c0-0.6-0.4-0.6-0.5-0.1c-0.5,2.1-0.7,4.8-2.2,5.7c0.1-1,1.1-8.3,1.2-9.2c0-0.2,0-0.4,0.3-0.5c0.2-0.1,0.4,0,0.5,0.2
			c0,0,2.4,2.2,2.4,2.2c0.1,0.1,0.3,0.2,0.4,0.1c0.1,0,0.3-0.2,0.3-0.3l0.3-2.8c0-0.1,0-0.2-0.1-0.3c-0.1-0.1-0.2-0.1-0.3-0.1
			c0,0-0.2,0-0.4,0l0.1-0.9c0.3-0.1,1-0.5,1.4-0.5c0,0,0,0,0,0c0,0,0.1,0,0.1,0c0.2,0,0.4,0.1,0.6,0.2c0.1,0.1,0.2,0.3,0.3,0.5
			l0.4,3.9c0,0.2,0.1,0.3,0.3,0.3c0.1,0,0.3,0,0.4-0.1c0,0,2.4-2.2,2.4-2.2c0.2-0.2,0.3-0.2,0.5-0.2c0.3,0.1,0.3,0.3,0.3,0.5
			c0.1,1,1.1,8.3,1.2,9.2c-1.5-0.9-1.7-3.7-2.2-5.7c-0.1-0.5-0.6-0.5-0.5,0.1l0.2,2.3c-0.3-0.1-1.4-0.5-1.7-0.7c-0.1,0-0.1,0-0.2,0
			c-0.3,0-0.4,0.3-0.4,0.4C14.9,102.2,15.7,105.4,16.1,106.9z"/>
		<path class="st3" d="M34,106.9c-0.3,0.1-0.8,0.1-1.1,0.1c-0.1,0-0.1,0-0.2,0l0,0l-0.6-2.8c-0.1-0.5-0.5-0.5-0.5,0.1l0.3,2.9
			c-0.1,0.2-0.5,0.9-0.9,0.9c-0.4,0-0.8-0.7-0.9-0.9l0.3-2.9c0.1-0.6-0.4-0.6-0.5-0.1l-0.6,2.8l0,0c-0.1,0-0.1,0-0.2,0
			c-0.3,0-0.9,0-1.1-0.1c0.4-1.5,1.2-4.6,1.4-5.7c0-0.2-0.1-0.4-0.4-0.4c0,0-0.1,0-0.2,0c-0.4,0.1-1.4,0.5-1.7,0.7l0.2-2.3
			c0-0.6-0.4-0.6-0.5-0.1c-0.5,2.1-0.7,4.8-2.2,5.7c0.1-1,1.1-8.3,1.2-9.2c0-0.2,0-0.4,0.3-0.5c0.2-0.1,0.4,0,0.5,0.2
			c0,0,2.4,2.2,2.4,2.2c0.1,0.1,0.3,0.2,0.4,0.1c0.1,0,0.3-0.2,0.3-0.3l0.3-2.8c0-0.1,0-0.2-0.1-0.3c-0.1-0.1-0.2-0.1-0.3-0.1
			c0,0-0.2,0-0.4,0l0.1-0.9c0.3-0.1,1-0.5,1.4-0.5c0,0,0,0,0,0c0,0,0.1,0,0.1,0c0.2,0,0.4,0.1,0.5,0.2c0.2,0.1,0.2,0.3,0.3,0.5
			l0.4,3.9c0,0.2,0.1,0.3,0.3,0.3c0.1,0,0.3,0,0.4-0.1c0,0,2.4-2.2,2.4-2.2c0.2-0.2,0.3-0.2,0.5-0.2c0.3,0.1,0.3,0.3,0.3,0.5
			c0.1,1,1.1,8.3,1.2,9.2c-1.5-0.9-1.7-3.7-2.2-5.7c-0.1-0.5-0.6-0.5-0.5,0.1l0.2,2.3c-0.3-0.1-1.4-0.5-1.7-0.7c-0.1,0-0.1,0-0.2,0
			c-0.3,0-0.4,0.3-0.4,0.4C32.8,102.2,33.6,105.4,34,106.9z"/>
		<path class="st3" d="M73.1,85.7c-0.3,0.1-0.8,0.1-1.1,0.1c-0.1,0-0.1,0-0.2,0l0,0L71.2,83c-0.1-0.5-0.5-0.5-0.5,0.1L71,86
			c-0.1,0.2-0.5,0.9-0.9,0.9s-0.8-0.7-0.9-0.9l0.3-2.9c0.1-0.6-0.4-0.6-0.5-0.1l-0.6,2.8l0,0c-0.1,0-0.1,0-0.2,0
			c-0.3,0-0.9,0-1.1-0.1c0.4-1.5,1.2-4.6,1.4-5.7c0-0.2-0.1-0.4-0.4-0.4c0,0-0.1,0-0.2,0c-0.4,0.1-1.4,0.5-1.7,0.6l0.2-2.3
			c0-0.6-0.4-0.6-0.5-0.1c-0.5,2-0.7,4.8-2.2,5.7c0.1-1,1.1-8.3,1.2-9.2c0-0.2,0-0.4,0.3-0.5c0.2-0.1,0.4,0,0.5,0.2
			c0,0,2.4,2.2,2.4,2.2c0.1,0.1,0.3,0.2,0.4,0.1c0.1,0,0.3-0.2,0.3-0.3l0.3-2.8c0-0.1,0-0.2-0.1-0.3C69,73,68.9,73,68.8,73
			c0,0-0.2,0-0.4,0l0.1-0.9c0.3-0.1,1-0.5,1.4-0.5c0,0,0,0,0,0c0,0,0.1,0,0.1,0c0.2,0,0.4,0.1,0.6,0.2c0.1,0.1,0.2,0.3,0.3,0.5
			l0.4,3.9c0,0.1,0.1,0.3,0.3,0.3c0.1,0,0.3,0,0.4-0.1c0,0,2.4-2.2,2.4-2.2c0.2-0.2,0.3-0.2,0.5-0.2c0.3,0.1,0.3,0.3,0.3,0.5
			c0.1,1,1.1,8.3,1.2,9.2c-1.5-0.9-1.7-3.7-2.2-5.7c-0.1-0.5-0.6-0.5-0.5,0.1l0.2,2.3c-0.3-0.1-1.4-0.5-1.7-0.6c-0.1,0-0.1,0-0.2,0
			c-0.3,0-0.4,0.3-0.4,0.4C71.9,81.1,72.8,84.3,73.1,85.7z"/>
		<path class="st3" d="M91,85.7c-0.3,0.1-0.8,0.1-1.1,0.1c-0.1,0-0.1,0-0.2,0l0,0L89.1,83c-0.1-0.5-0.5-0.5-0.5,0.1l0.3,2.9
			c-0.1,0.2-0.5,0.9-0.9,0.9c-0.4,0-0.8-0.7-0.9-0.9l0.3-2.9c0.1-0.6-0.4-0.6-0.5-0.1l-0.6,2.8l0,0c-0.1,0-0.1,0-0.2,0
			c-0.3,0-0.9,0-1.1-0.1c0.4-1.5,1.2-4.6,1.4-5.7c0-0.2-0.1-0.4-0.4-0.4c0,0-0.1,0-0.2,0c-0.4,0.1-1.4,0.5-1.7,0.6l0.2-2.3
			c0-0.6-0.4-0.6-0.5-0.1c-0.5,2-0.7,4.8-2.2,5.7c0.1-1,1.1-8.3,1.2-9.2c0-0.2,0-0.4,0.3-0.5c0.2-0.1,0.4,0,0.5,0.2
			c0,0,2.4,2.2,2.4,2.2c0.1,0.1,0.3,0.2,0.4,0.1c0.1,0,0.3-0.2,0.3-0.3l0.3-2.8c0-0.1,0-0.2-0.1-0.3C86.9,73,86.8,73,86.7,73
			c0,0-0.2,0-0.4,0l0.1-0.9c0.3-0.1,1-0.5,1.4-0.5c0,0,0,0,0,0c0,0,0.1,0,0.1,0c0.2,0,0.4,0.1,0.5,0.2c0.2,0.1,0.2,0.3,0.3,0.5
			l0.4,3.9c0,0.1,0.1,0.3,0.3,0.3c0.1,0,0.3,0,0.4-0.1c0,0,2.4-2.2,2.4-2.2c0.2-0.2,0.3-0.2,0.5-0.2c0.3,0.1,0.3,0.3,0.3,0.5
			c0.1,1,1.1,8.3,1.2,9.2c-1.5-0.9-1.7-3.7-2.2-5.7c-0.1-0.5-0.6-0.5-0.5,0.1l0.2,2.3c-0.3-0.1-1.4-0.5-1.7-0.6c-0.1,0-0.1,0-0.2,0
			c-0.3,0-0.4,0.3-0.4,0.4C89.8,81.1,90.7,84.3,91,85.7z"/>
		<path class="st3" d="M73.1,106.9c-0.3,0.1-0.8,0.1-1.1,0.1c-0.1,0-0.1,0-0.2,0l0,0l-0.6-2.8c-0.1-0.5-0.5-0.5-0.5,0.1l0.3,2.9
			c-0.1,0.2-0.5,0.9-0.9,0.9s-0.8-0.7-0.9-0.9l0.3-2.9c0.1-0.6-0.4-0.6-0.5-0.1l-0.6,2.8l0,0c-0.1,0-0.1,0-0.2,0
			c-0.3,0-0.9,0-1.1-0.1c0.4-1.5,1.2-4.6,1.4-5.7c0-0.2-0.1-0.4-0.4-0.4c0,0-0.1,0-0.2,0c-0.4,0.1-1.4,0.5-1.7,0.7l0.2-2.3
			c0-0.6-0.4-0.6-0.5-0.1c-0.5,2.1-0.7,4.8-2.2,5.7c0.1-1,1.1-8.3,1.2-9.2c0-0.2,0-0.4,0.3-0.5c0.2-0.1,0.4,0,0.5,0.2
			c0,0,2.4,2.2,2.4,2.2c0.1,0.1,0.3,0.2,0.4,0.1c0.1,0,0.3-0.2,0.3-0.3l0.3-2.8c0-0.1,0-0.2-0.1-0.3c-0.1-0.1-0.2-0.1-0.3-0.1
			c0,0-0.2,0-0.4,0l0.1-0.9c0.3-0.1,1-0.5,1.4-0.5c0,0,0,0,0,0c0,0,0.1,0,0.1,0c0.2,0,0.4,0.1,0.6,0.2c0.1,0.1,0.2,0.3,0.3,0.5
			l0.4,3.9c0,0.2,0.1,0.3,0.3,0.3c0.1,0,0.3,0,0.4-0.1c0,0,2.4-2.2,2.4-2.2c0.2-0.2,0.3-0.2,0.5-0.2c0.3,0.1,0.3,0.3,0.3,0.5
			c0.1,1,1.1,8.3,1.2,9.2c-1.5-0.9-1.7-3.7-2.2-5.7c-0.1-0.5-0.6-0.5-0.5,0.1l0.2,2.3c-0.3-0.1-1.4-0.5-1.7-0.7c-0.1,0-0.1,0-0.2,0
			c-0.3,0-0.4,0.3-0.4,0.4C71.9,102.2,72.8,105.4,73.1,106.9z"/>
		<path class="st3" d="M91,106.9c-0.3,0.1-0.8,0.1-1.1,0.1c-0.1,0-0.1,0-0.2,0l0,0l-0.6-2.8c-0.1-0.5-0.5-0.5-0.5,0.1l0.3,2.9
			c-0.1,0.2-0.5,0.9-0.9,0.9c-0.4,0-0.8-0.7-0.9-0.9l0.3-2.9c0.1-0.6-0.4-0.6-0.5-0.1l-0.6,2.8l0,0c-0.1,0-0.1,0-0.2,0
			c-0.3,0-0.9,0-1.1-0.1c0.4-1.5,1.2-4.6,1.4-5.7c0-0.2-0.1-0.4-0.4-0.4c0,0-0.1,0-0.2,0c-0.4,0.1-1.4,0.5-1.7,0.7l0.2-2.3
			c0-0.6-0.4-0.6-0.5-0.1c-0.5,2.1-0.7,4.8-2.2,5.7c0.1-1,1.1-8.3,1.2-9.2c0-0.2,0-0.4,0.3-0.5c0.2-0.1,0.4,0,0.5,0.2
			c0,0,2.4,2.2,2.4,2.2c0.1,0.1,0.3,0.2,0.4,0.1c0.1,0,0.3-0.2,0.3-0.3l0.3-2.8c0-0.1,0-0.2-0.1-0.3c-0.1-0.1-0.2-0.1-0.3-0.1
			c0,0-0.2,0-0.4,0l0.1-0.9c0.3-0.1,1-0.5,1.4-0.5c0,0,0,0,0,0c0,0,0.1,0,0.1,0c0.2,0,0.4,0.1,0.5,0.2c0.2,0.1,0.2,0.3,0.3,0.5
			l0.4,3.9c0,0.2,0.1,0.3,0.3,0.3c0.1,0,0.3,0,0.4-0.1c0,0,2.4-2.2,2.4-2.2c0.2-0.2,0.3-0.2,0.5-0.2c0.3,0.1,0.3,0.3,0.3,0.5
			c0.1,1,1.1,8.3,1.2,9.2c-1.5-0.9-1.7-3.7-2.2-5.7c-0.1-0.5-0.6-0.5-0.5,0.1l0.2,2.3c-0.3-0.1-1.4-0.5-1.7-0.7c-0.1,0-0.1,0-0.2,0
			c-0.3,0-0.4,0.3-0.4,0.4C89.8,102.2,90.7,105.4,91,106.9z"/>
	</g>
</g>
</svg>
