<svg xmlns="http://www.w3.org/2000/svg" viewBox="0 0 24 24">
    <g style="stroke-width: 0.95742702;">
        <path d="M 14.666666,22 H 0.91666663 a 0.91666663,1 0 0 0 0,2 H 14.666666 a 0.91666663,1 0 0 0 0,-2 z" />
        <path d="M 21.083333,17 H 0.91666663 a 0.91666663,1 0 0 0 0,2 H 21.083333 a 0.91666663,1 0 0 0 0,-2 z" />
        <path d="M 21.083333,12 H 0.91666663 a 0.91666663,1 0 0 0 0,2 H 21.083333 a 0.91666663,1 0 0 0 0,-2 z" />
    </g>
    <g style="stroke-width: 0.91287094;">
        <path d="M 9.166667,7 H 0.833334 a 0.83333341,1 0 0 0 0,2 h 8.333333 a 0.83333341,1 0 0 0 0,-2 z" />
        <path d="m 0.833334,4 h 8.333333 a 0.83333341,1 0 0 0 0,-2 H 0.833334 a 0.83333341,1 0 1 0 0,2 z" />
    </g>
    <rect x="12" ry="2" rx="2" height="10" width="10" y="0" />
</svg>
