<svg>
    <symbol id="m-accordion" viewBox="0 0 260 260">
        <rect x="10" y="10" class="modul-u--preview-img" width="240" height="43"/>
        <rect x="10" y="59.4" class="modul-u--preview-img--light" width="240" height="190.6"/>
        <g class="modul-u--preview-img--dark">
            <rect x="222" y="30"  width="13" height="3"/>
            <rect x="10" y="10" width="4" height="43"/>
        </g>
    </symbol>
    <symbol id="m-accordion-group" viewBox="0 0 260 260">
        <g class="modul-u--preview-img">
            <rect x="10" y="10" width="240" height="43"/>

            <rect x="10" y="59.3" width="240" height="43"/>
            <rect x="10" y="207" width="240" height="43"/>
        </g>
        <rect class="modul-u--preview-img--light" x="10" y="108.7" width="240" height="92"/>
        <g class="modul-u--preview-img--dark">
            <rect x="10" y="10" width="4" height="43"/>
            <polygon points="235,30 230,30 230,25 227,25 227,30 222,30 222,33 227,33 227,38 230,38
            230,33 235,33 		"/>
            <rect x="222" y="79.3" width="13" height="3"/>
            <polygon points="235,227 230,227 230,222 227,222 227,227 222,227 222,230 227,230
                227,235 230,235 230,230 235,230 		"/>
            <rect x="10" y="207" width="4" height="43"/>
            <rect x="10" y="59.3" width="4" height="43"/>
        </g>
    </symbol>
    <symbol id="m-button-group" viewBox="0 0 260 260">
        <g class="modul-u--preview-img">
            <path d="M86,116.8H14c-2.2,0-4,1.8-4,4v18.5c0,2.2,1.8,4,4,4h72V116.8z"/>
            <rect x="92" y="53.3" width="76" height="26.5"/>
            <rect x="92" y="180.3" width="76" height="26.5"/>
        </g>

        <g class="modul-u--preview-img--light">
            <rect x="92" y="116.8" width="76" height="26.5"/>
            <path d="M174,116.8v26.5h72c2.2,0,4-1.8,4-4v-18.5c0-2.2-1.8-4-4-4H174z"/>
            <path d="M86,53.3H14c-2.2,0-4,1.8-4,4v18.5c0,2.2,1.8,4,4,4h72V53.3z"/>
            <path d="M174,53.3v26.5h72c2.2,0,4-1.8,4-4V57.3c0-2.2-1.8-4-4-4H174z"/>
            <path d="M86,180.3H14c-2.2,0-4,1.8-4,4v18.5c0,2.2,1.8,4,4,4h72V180.3z"/>
            <path d="M174,180.3v26.5h72c2.2,0,4-1.8,4-4v-18.5c0-2.2-1.8-4-4-4H174z"/>
        </g>

        <g class="modul-u--preview-img--dark">
            <rect x="105" y="126.8" width="50" height="6.3"/>
            <rect x="23" y="126.8" width="50" height="6.3"/>
            <rect x="187" y="126.8" width="50" height="6.3"/>
            <rect x="105" y="63.3" width="50" height="6.3"/>
            <rect x="23" y="63.3" width="50" height="6.3"/>
            <rect x="187" y="63.3" width="50" height="6.3"/>
            <rect x="105" y="190.3" width="50" height="6.3"/>
            <rect x="23" y="190.3" width="50" height="6.3"/>
            <rect x="187" y="190.3" width="50" height="6.3"/>
        </g>
    </symbol>
    <symbol id="m-button" viewBox="0 0 260 260">
        <path class="modul-u--preview-img" d="M246,164.8H14c-2.2,0-4-1.8-4-4V99.2c0-2.2,1.8-4,4-4h232c2.2,0,4,1.8,4,4v61.5C250,163,248.2,164.8,246,164.8z"/>
        <rect class="modul-u--preview-img--dark" x="53.7" y="122" width="152.5" height="16"/>
    </symbol>
    <symbol id="m-checkbox" viewBox="0 0 260 260">
        <g class="modul-u--preview-img--dark">
            <path d="M37.4,58v24.5H13V58H37.4 M37.9,55H12.6c-1.4,0-2.6,1.2-2.6,2.6v25.3c0,1.4,1.2,2.6,2.6,2.6h25.3
                c1.4,0,2.6-1.2,2.6-2.6V57.6C40.4,56.1,39.3,55,37.9,55L37.9,55z"/>
            <path d="M22.6,78.2c-0.5,0-0.9-0.2-1.2-0.6l-4.9-6c-0.5-0.6-0.4-1.6,0.2-2.1c0.6-0.5,1.6-0.4,2.1,0.2l3.7,4.6l8.9-11.5
                c0.5-0.7,1.4-0.8,2.1-0.3c0.7,0.5,0.8,1.5,0.3,2.1l-10.1,13C23.5,78,23.1,78.2,22.6,78.2C22.6,78.2,22.6,78.2,22.6,78.2z"/>
            <path d="M22.6,118.1c-0.5,0-0.9-0.2-1.2-0.6l-4.9-6c-0.5-0.6-0.4-1.6,0.2-2.1c0.6-0.5,1.6-0.4,2.1,0.2l3.7,4.6
                l8.9-11.5c0.5-0.7,1.4-0.8,2.1-0.3c0.7,0.5,0.8,1.5,0.3,2.1l-10.1,13C23.5,117.9,23.1,118.1,22.6,118.1
                C22.6,118.1,22.6,118.1,22.6,118.1z"/>
            <path d="M22.6,197.8c-0.5,0-0.9-0.2-1.2-0.6l-4.9-6c-0.5-0.6-0.4-1.6,0.2-2.1c0.6-0.5,1.6-0.4,2.1,0.2l3.7,4.6l9-11.5
                c0.5-0.7,1.5-0.8,2.1-0.3c0.7,0.5,0.8,1.5,0.3,2.1l-10.1,13C23.5,197.6,23.1,197.8,22.6,197.8C22.6,197.8,22.6,197.8,22.6,197.8z"
                />
            <path d="M37.4,97.8v24.5H13V97.8H37.4 M37.9,94.8H12.6c-1.4,0-2.6,1.2-2.6,2.6v25.3c0,1.4,1.2,2.6,2.6,2.6h25.3
                c1.4,0,2.6-1.2,2.6-2.6V97.4C40.4,96,39.3,94.8,37.9,94.8L37.9,94.8z"/>
            <path d="M37.4,137.7v24.5H13v-24.5H37.4 M37.9,134.7H12.6c-1.4,0-2.6,1.2-2.6,2.6v25.3
                    c0,1.4,1.2,2.6,2.6,2.6h25.3c1.4,0,2.6-1.2,2.6-2.6v-25.3C40.4,135.9,39.3,134.7,37.9,134.7L37.9,134.7z"/>
            <path d="M37.4,177.6V202H13v-24.5H37.4 M37.9,174.6H12.6c-1.4,0-2.6,1.2-2.6,2.6v25.3c0,1.4,1.2,2.6,2.6,2.6h25.3
                c1.4,0,2.6-1.2,2.6-2.6v-25.3C40.4,175.7,39.3,174.6,37.9,174.6L37.9,174.6z"/>ﬂ
        </g>
        <g class="modul-u--preview-img">
            <rect x="55.7" y="103.6" width="194.3" height="12.9"/>
            <rect x="55.7" y="143.5" width="161.4" height="12.9"/>
            <rect x="55.7" y="63.7" width="113.2" height="12.9"/>
            <rect x="55.7" y="183.3" width="99" height="12.9"/>
        </g>
    </symbol>
    <symbol id="m-datepicker" viewBox="0 0 260 260">
        <g class="modul-u--preview-img--light">
            <path d="M10,29.5v201h240v-201H10z M36.5,208.5c-2.5,0-4.5-2-4.5-4.5s2-4.5,4.5-4.5s4.5,2,4.5,4.5
                S39,208.5,36.5,208.5z M36.5,180.5c-2.5,0-4.5-2-4.5-4.5s2-4.5,4.5-4.5s4.5,2,4.5,4.5S39,180.5,36.5,180.5z M36.5,152.5
                c-2.5,0-4.5-2-4.5-4.5s2-4.5,4.5-4.5s4.5,2,4.5,4.5S39,152.5,36.5,152.5z M36.5,124.5c-2.5,0-4.5-2-4.5-4.5s2-4.5,4.5-4.5
                s4.5,2,4.5,4.5S39,124.5,36.5,124.5z M36.5,93.8c-2.6,0-4.8-2.1-4.8-4.8s2.1-4.8,4.8-4.8s4.8,2.1,4.8,4.8S39.1,93.8,36.5,93.8z
                    M66.8,208.5c-2.5,0-4.5-2-4.5-4.5s2-4.5,4.5-4.5c2.5,0,4.5,2,4.5,4.5S69.3,208.5,66.8,208.5z M66.8,180.5c-2.5,0-4.5-2-4.5-4.5
                s2-4.5,4.5-4.5c2.5,0,4.5,2,4.5,4.5S69.3,180.5,66.8,180.5z M66.8,152.5c-2.5,0-4.5-2-4.5-4.5s2-4.5,4.5-4.5c2.5,0,4.5,2,4.5,4.5
                S69.3,152.5,66.8,152.5z M66.8,124.5c-2.5,0-4.5-2-4.5-4.5s2-4.5,4.5-4.5c2.5,0,4.5,2,4.5,4.5S69.3,124.5,66.8,124.5z M66.8,93.8
                c-2.6,0-4.8-2.1-4.8-4.8s2.1-4.8,4.8-4.8c2.6,0,4.8,2.1,4.8,4.8S69.5,93.8,66.8,93.8z M97.2,208.5c-2.5,0-4.5-2-4.5-4.5
                s2-4.5,4.5-4.5c2.5,0,4.5,2,4.5,4.5S99.7,208.5,97.2,208.5z M97.2,180.5c-2.5,0-4.5-2-4.5-4.5s2-4.5,4.5-4.5c2.5,0,4.5,2,4.5,4.5
                S99.7,180.5,97.2,180.5z M97.2,152.5c-2.5,0-4.5-2-4.5-4.5s2-4.5,4.5-4.5c2.5,0,4.5,2,4.5,4.5S99.7,152.5,97.2,152.5z M97.2,124.5
                c-2.5,0-4.5-2-4.5-4.5s2-4.5,4.5-4.5c2.5,0,4.5,2,4.5,4.5S99.7,124.5,97.2,124.5z M97.2,93.8c-2.6,0-4.8-2.1-4.8-4.8
                s2.1-4.8,4.8-4.8c2.6,0,4.8,2.1,4.8,4.8S99.8,93.8,97.2,93.8z M127.5,208.5c-2.5,0-4.5-2-4.5-4.5s2-4.5,4.5-4.5s4.5,2,4.5,4.5
                S130,208.5,127.5,208.5z M127.5,180.5c-2.5,0-4.5-2-4.5-4.5s2-4.5,4.5-4.5s4.5,2,4.5,4.5S130,180.5,127.5,180.5z M127.5,152.5
                c-2.5,0-4.5-2-4.5-4.5s2-4.5,4.5-4.5s4.5,2,4.5,4.5S130,152.5,127.5,152.5z M127.5,124.5c-2.5,0-4.5-2-4.5-4.5s2-4.5,4.5-4.5
                s4.5,2,4.5,4.5S130,124.5,127.5,124.5z M127.5,93.8c-2.6,0-4.8-2.1-4.8-4.8s2.1-4.8,4.8-4.8s4.8,2.1,4.8,4.8
                S130.1,93.8,127.5,93.8z M157.8,208.5c-2.5,0-4.5-2-4.5-4.5s2-4.5,4.5-4.5c2.5,0,4.5,2,4.5,4.5S160.3,208.5,157.8,208.5z
                    M157.8,180.5c-2.5,0-4.5-2-4.5-4.5s2-4.5,4.5-4.5c2.5,0,4.5,2,4.5,4.5S160.3,180.5,157.8,180.5z M157.8,124.5
                c-2.5,0-4.5-2-4.5-4.5s2-4.5,4.5-4.5c2.5,0,4.5,2,4.5,4.5S160.3,124.5,157.8,124.5z M157.8,93.8c-2.6,0-4.8-2.1-4.8-4.8
                s2.1-4.8,4.8-4.8c2.6,0,4.8,2.1,4.8,4.8S160.5,93.8,157.8,93.8z M188.2,208.5c-2.5,0-4.5-2-4.5-4.5s2-4.5,4.5-4.5
                c2.5,0,4.5,2,4.5,4.5S190.7,208.5,188.2,208.5z M188.2,180.5c-2.5,0-4.5-2-4.5-4.5s2-4.5,4.5-4.5c2.5,0,4.5,2,4.5,4.5
                S190.7,180.5,188.2,180.5z M188.2,152.5c-2.5,0-4.5-2-4.5-4.5s2-4.5,4.5-4.5c2.5,0,4.5,2,4.5,4.5S190.7,152.5,188.2,152.5z
                    M188.2,124.5c-2.5,0-4.5-2-4.5-4.5s2-4.5,4.5-4.5c2.5,0,4.5,2,4.5,4.5S190.7,124.5,188.2,124.5z M188.2,93.8
                c-2.6,0-4.8-2.1-4.8-4.8s2.1-4.8,4.8-4.8c2.6,0,4.8,2.1,4.8,4.8S190.8,93.8,188.2,93.8z M218.5,208.5c-2.5,0-4.5-2-4.5-4.5
                s2-4.5,4.5-4.5s4.5,2,4.5,4.5S221,208.5,218.5,208.5z M218.5,180.5c-2.5,0-4.5-2-4.5-4.5s2-4.5,4.5-4.5s4.5,2,4.5,4.5
                S221,180.5,218.5,180.5z M218.5,152.5c-2.5,0-4.5-2-4.5-4.5s2-4.5,4.5-4.5s4.5,2,4.5,4.5S221,152.5,218.5,152.5z M218.5,124.5
                c-2.5,0-4.5-2-4.5-4.5s2-4.5,4.5-4.5s4.5,2,4.5,4.5S221,124.5,218.5,124.5z M218.5,93.8c-2.6,0-4.8-2.1-4.8-4.8s2.1-4.8,4.8-4.8
                s4.8,2.1,4.8,4.8S221.1,93.8,218.5,93.8z"/>
            <circle cx="36.5" cy="89" r="3.8"/>
            <circle cx="157.8" cy="89" r="3.8"/>
            <circle cx="127.5" cy="89" r="3.8"/>
            <circle cx="97.2" cy="89" r="3.8"/>
            <circle cx="218.5" cy="89" r="3.8"/>
            <circle cx="188.2" cy="89" r="3.8"/>
            <circle cx="66.8" cy="89" r="3.8"/>
        </g>
        <g class="modul-u--preview-img">
            <circle cx="36.5" cy="120" r="4.5"/>
            <circle cx="66.8" cy="120" r="4.5"/>
            <circle cx="97.2" cy="120" r="4.5"/>
            <circle cx="127.5" cy="120" r="4.5"/>
            <circle cx="157.8" cy="120" r="4.5"/>
            <circle cx="188.2" cy="120" r="4.5"/>
            <circle cx="218.5" cy="120" r="4.5"/>
            <circle cx="36.5" cy="148" r="4.5"/>
            <circle cx="66.8" cy="148" r="4.5"/>
            <circle cx="97.2" cy="148" r="4.5"/>
            <circle cx="127.5" cy="148" r="4.5"/>
            <circle cx="188.2" cy="148" r="4.5"/>
            <circle cx="218.5" cy="148" r="4.5"/>
            <circle cx="36.5" cy="176" r="4.5"/>
            <circle cx="66.8" cy="176" r="4.5"/>
            <circle cx="97.2" cy="176" r="4.5"/>
            <circle cx="127.5" cy="176" r="4.5"/>
            <circle cx="157.8" cy="176" r="4.5"/>
            <circle cx="188.2" cy="176" r="4.5"/>
            <circle cx="218.5" cy="176" r="4.5"/>
            <circle cx="36.5" cy="204" r="4.5"/>
            <circle cx="66.8" cy="204" r="4.5"/>
            <circle cx="97.2" cy="204" r="4.5"/>
            <circle cx="127.5" cy="204" r="4.5"/>
            <circle cx="157.8" cy="204" r="4.5"/>
            <circle cx="188.2" cy="204" r="4.5"/>
            <circle cx="218.5" cy="204" r="4.5"/>
            <path d="M36.5,85.2c2.1,0,3.8,1.7,3.8,3.8s-1.7,3.8-3.8,3.8s-3.8-1.7-3.8-3.8S34.4,85.2,36.5,85.2 M36.5,84.2c-2.6,0-4.8,2.1-4.8,4.8s2.1,4.8,4.8,4.8s4.8-2.1,4.8-4.8S39.1,84.2,36.5,84.2L36.5,84.2z"/>
            <path d="M66.8,85.2c2.1,0,3.8,1.7,3.8,3.8s-1.7,3.8-3.8,3.8s-3.8-1.7-3.8-3.8S64.8,85.2,66.8,85.2 M66.8,84.2c-2.6,0-4.8,2.1-4.8,4.8s2.1,4.8,4.8,4.8c2.6,0,4.8-2.1,4.8-4.8S69.5,84.2,66.8,84.2L66.8,84.2z"/>
            <path d="M97.2,85.2c2.1,0,3.8,1.7,3.8,3.8s-1.7,3.8-3.8,3.8s-3.8-1.7-3.8-3.8S95.1,85.2,97.2,85.2 M97.2,84.2c-2.6,0-4.8,2.1-4.8,4.8s2.1,4.8,4.8,4.8c2.6,0,4.8-2.1,4.8-4.8S99.8,84.2,97.2,84.2L97.2,84.2z"/>
            <path d="M127.5,85.2c2.1,0,3.8,1.7,3.8,3.8s-1.7,3.8-3.8,3.8s-3.8-1.7-3.8-3.8S125.4,85.2,127.5,85.2 M127.5,84.2c-2.6,0-4.8,2.1-4.8,4.8s2.1,4.8,4.8,4.8s4.8-2.1,4.8-4.8S130.1,84.2,127.5,84.2L127.5,84.2z"/>
            <path d="M157.8,85.2c2.1,0,3.8,1.7,3.8,3.8s-1.7,3.8-3.8,3.8s-3.8-1.7-3.8-3.8S155.8,85.2,157.8,85.2 M157.8,84.2c-2.6,0-4.8,2.1-4.8,4.8s2.1,4.8,4.8,4.8c2.6,0,4.8-2.1,4.8-4.8S160.5,84.2,157.8,84.2L157.8,84.2z"/>
            <path d="M188.2,85.2c2.1,0,3.8,1.7,3.8,3.8s-1.7,3.8-3.8,3.8s-3.8-1.7-3.8-3.8S186.1,85.2,188.2,85.2 M188.2,84.2c-2.6,0-4.8,2.1-4.8,4.8s2.1,4.8,4.8,4.8c2.6,0,4.8-2.1,4.8-4.8S190.8,84.2,188.2,84.2L188.2,84.2z"/>
            <path d="M218.5,85.2c2.1,0,3.8,1.7,3.8,3.8s-1.7,3.8-3.8,3.8s-3.8-1.7-3.8-3.8S216.4,85.2,218.5,85.2 M218.5,84.2c-2.6,0-4.8,2.1-4.8,4.8s2.1,4.8,4.8,4.8s4.8-2.1,4.8-4.8S221.1,84.2,218.5,84.2L218.5,84.2z"/>
        </g>
        <g class="modul-u--preview-img--dark">
            <rect x="10" y="29.5" width="240" height="39"/>
            <circle cx="157.8" cy="148" r="8"/>
        </g>
    </symbol>
    <symbol id="m-dialog" viewBox="0 0 260 260">
        <path class="modul-u--preview-img" d="M10,18v224c0,4.4,3.6,8,8,8h224c4.4,0,8-3.6,8-8V18c0-4.4-3.6-8-8-8H18C13.6,10,10,13.6,10,18z M225,199H35V59
                h190V199z"/>
        <g class="modul-u--preview-img--light">
            <rect x="35" y="91.9" class="st1" width="190" height="107.2"/>
            <rect x="50.3" y="70.5" class="st1" width="110.4" height="9.1"/>
            <polygon class="st1" points="212.2,70.4 209.2,73.3 206.3,70.4 204.5,72.1 207.5,75.1 204.5,78 206.3,79.8 209.2,76.8 212.2,79.8
                    213.9,78 211,75.1 213.9,72.1 		"/>
        </g>
        <g class="modul-u--preview-img--dark">
            <rect x="50" y="107" class="Style_x0020_graphique_x0020_3" width="133.8" height="6.3"/>
            <rect x="50" y="120.1" class="Style_x0020_graphique_x0020_3" width="143.3" height="6.3"/>
            <rect x="50" y="133.1" class="Style_x0020_graphique_x0020_3" width="103.7" height="6.3"/>
            <path class="Style_x0020_graphique_x0020_3" d="M35,58.9v33h190v-33H35z M160.7,79.6H50.3v-9.1h110.4V79.6z M213.9,78l-1.8,1.8
                    l-2.9-2.9l-2.9,2.9l-1.8-1.8l2.9-2.9l-2.9-2.9l1.8-1.8l2.9,2.9l2.9-2.9l1.8,1.8l-2.9,2.9L213.9,78z"/>
        </g>
    </symbol>
    <symbol id="m-dropdown" viewBox="0 0 260 260">
        <g class="modul-u--preview-img--dark">
            <rect x="23" y="56.6" width="110" height="9.1"/>
            <polygon points="230,66.1 239.9,56.2 249.8,66.1 	"/>
            <rect x="10" y="77.1" width="240" height="3"/>
            <rect x="25.3" y="97" width="127.7" height="9.1"/>
            <rect x="25.3" y="136.5" width="160.7" height="9.1"/>
            <rect x="25.3" y="176" width="109.7" height="9.1"/>
        </g>
        <rect class="modul-u--preview-img--light" x="10" y="79.8" width="240" height="124"/>
    </symbol>
    <symbol id="m-flex-template" viewBox="0 0 260 260">
        <rect class="modul-u--preview-img" x="10" y="204" width="240" height="14"/>
        <rect class="modul-u--preview-img--light" x="88" y="90" width="162" height="106"/>
        <g class="modul-u--preview-img--dark">
            <rect x="10" y="90" width="70" height="106"/>
            <rect x="10" y="42" width="240" height="40"/>
        </g>
    </symbol>
    <symbol id="m-link" viewBox="0 0 260 260">
        <g class="modul-u--preview-img">
            <rect x="32.4" y="156.3" width="217.6" height="12.9"/>
            <rect x="32.4" y="123.5" width="92.6" height="12.9"/>
            <rect x="34.2" y="189" width="155.8" height="12.9"/>
            <rect x="32.6" y="90.8" width="176.4" height="12.9"/>
            <rect x="32.4" y="58" width="130.3" height="12.9"/>
        </g>
        <g class="modul-u--preview-img--dark">
            <polygon points="10.3,153 10,153.2 10,156.4 16.4,162.8 10,169.1 10,172.3 10.3,172.5
                20,162.8"/>
            <polygon points="10.3,120.3 10,120.4 10,123.7 16.4,130 10,136.3 10,139.6 10.3,139.7
                20,130"/>
            <polygon points="10.3,185.8 10,185.9 10,189.2 16.9,195.5 10,201.8 10,205.1 10.3,205.2
                20.8,195.5"/>
            <polygon points="10.3,87.5 10,87.7 10,90.9 16.4,97.3 10,103.6 10,106.8 10.3,107
                    20.1,97.3"/>
            <polygon points="10.3,54.8 10,54.9 10,58.2 16.4,64.5 10,70.8 10,74.1 10.3,74.2 20,64.5"/>
            <rect x="32.4" y="140.5" width="92.6" height="1.3"/>
        </g>
    </symbol>
    <symbol id="m-list-item" viewBox="0 0 260 260">
        <g class="modul-u--preview-img--dark">
            <rect x="10" y="77" width="240" height="0.6"/>
            <rect x="10" y="112" width="240" height="0.6"/>
            <rect x="10" y="147" width="240" height="0.6"/>
            <rect x="10" y="182" width="240" height="0.6"/>
        </g>
        <g class="modul-u--preview-img">
            <rect x="10" y="55.4" width="176" height="9.1"/>
            <rect x="10" y="90.4" width="116" height="9.1"/>
            <rect x="10" y="125.4" width="141" height="9.1"/>
            <rect x="10" y="160.4" width="94" height="9.1"/>
            <rect x="10" y="195.4" width="141" height="9.1"/>
        </g>
    </symnol>
    <symbol id="m-menu" viewBox="0 0 260 260">
        <rect class="modul-u--preview-img--light" x="10" y="80.7" width="240" height="124"/>
        <g class="modul-u--preview-img--dark">
            <circle cx="26.9" cy="57.4" r="2.1"/>
            <circle cx="26.9" cy="63.5" r="2.1"/>
            <circle cx="26.9" cy="69.6" r="2.1"/>
            <rect x="25.3" y="98.2" width="127.7" height="9.1"/>
            <rect x="25.3" y="137.7" width="160.7" height="9.1"/>
            <rect x="25.3" y="177.2" width="109.7" height="9.1"/>
        </g>
    </symbol>
    <symbol id="m-message" viewBox="0 0 260 260">
        <g class="modul-u--preview-img">
            <rect x="10" y="27.5" width="37" height="63"/>
            <rect x="10" y="98.5" width="37" height="63"/>
            <rect x="10" y="169.5" width="37" height="63"/>
        </g>
        <g class="modul-u--preview-img--dark">
            <path  d="M29,50.6c-4.6,0-8.4,3.8-8.4,8.4s3.8,8.4,8.4,8.4s8.4-3.8,8.4-8.4S33.6,50.6,29,50.6z M29,66.6
                c-4.2,0-7.6-3.4-7.6-7.6s3.4-7.6,7.6-7.6s7.6,3.4,7.6,7.6S33.2,66.6,29,66.6z"/>
            <path d="M29,121.6c-4.6,0-8.4,3.8-8.4,8.4s3.8,8.4,8.4,8.4s8.4-3.8,8.4-8.4S33.6,121.6,29,121.6z M29,137.6
                c-4.2,0-7.6-3.4-7.6-7.6c0-4.2,3.4-7.6,7.6-7.6s7.6,3.4,7.6,7.6C36.6,134.2,33.2,137.6,29,137.6z"/>
            <path d="M29,192.6c-4.6,0-8.4,3.8-8.4,8.4s3.8,8.4,8.4,8.4s8.4-3.8,8.4-8.4S33.6,192.6,29,192.6z M29,208.6
                c-4.2,0-7.6-3.4-7.6-7.6s3.4-7.6,7.6-7.6s7.6,3.4,7.6,7.6S33.2,208.6,29,208.6z"/>
            <path d="M47.4,27.5h-0.8H10v63h36.6h0.8H250v-63H47.4z M10.8,89.8V28.2h35.9v61.5H10.8z M249.2,89.8H47.4V28.2h201.9
                V89.8z"/>
            <path d="M46.6,98.5H10v63h36.6h0.8H250v-63H47.4H46.6z M10.8,160.8V99.2h35.9v61.5H10.8z M249.2,99.2v61.5H47.4V99.2
                H249.2z"/>
            <path d="M46.6,169.5H10v63h36.6h0.8H250v-63H47.4H46.6z M10.8,231.8v-61.5h35.9v61.5H10.8z M249.2,170.2v61.5H47.4
                v-61.5H249.2z"/>
            <rect x="64" y="42.8" width="133.8" height="6.3"/>
            <rect x="64" y="55.8" width="143.3" height="6.3"/>
            <rect x="64" y="68.9" width="103.7" height="6.3"/>
            <rect x="64" y="113.8" width="133.8" height="6.3"/>
            <rect x="64" y="126.8" width="143.3" height="6.3"/>
            <rect x="64" y="139.9" width="103.7" height="6.3"/>
            <rect x="64" y="184.8" width="133.8" height="6.3"/>
            <rect x="64" y="197.8" width="143.3" height="6.3"/>
            <rect x="64" y="210.9" width="103.7" height="6.3"/>
        </g>
    </symbol>
    <symbol id="m-modal" viewBox="0 0 260 260">
        <g class="modul-u--preview-img--light">
            <path d="M221,72.2H39c-2.2,0-4,1.8-4,4v107.6c0,2.2,1.8,4,4,4h182c2.2,0,4-1.8,4-4V76.2C225,74,223.2,72.2,221,72.2z
                M156.1,171.7c0,2.2-1.8,4-4,4h-44.2c-2.2,0-4-1.8-4-4v-12.4c0-2.2,1.8-4,4-4h44.2c2.2,0,4,1.8,4,4V171.7z"/>
        </g>
        <g class="modul-u--preview-img">
            <path d="M10,18v224c0,4.4,3.6,8,8,8h224c4.4,0,8-3.6,8-8V18c0-4.4-3.6-8-8-8H18C13.6,10,10,13.6,10,18z M225,183.8
                c0,2.2-1.8,4-4,4H39c-2.2,0-4-1.8-4-4V76.2c0-2.2,1.8-4,4-4h182c2.2,0,4,1.8,4,4V183.8z"/>
            <path d="M152.1,155.3h-44.2c-2.2,0-4,1.8-4,4v12.4c0,2.2,1.8,4,4,4h44.2c2.2,0,4-1.8,4-4v-12.4
                    C156.1,157.1,154.3,155.3,152.1,155.3z M143.1,168.8h-26.1v-6.3h26.1V168.8z"/>
        </g>
        <g class="modul-u--preview-img--dark">
            <rect x="50" y="90" width="133.8" height="6.3"/>
            <rect x="50" y="103.1" width="143.3" height="6.3"/>
            <rect x="50" y="116.1" width="103.7" height="6.3"/>
            <rect x="116.9" y="162.5" width="26.1" height="6.3"/>
        </g>
    </symbol>
    <symbol id="m-navbar" viewBox="0 0 260 260">
        <g class="modul-u--preview-img">
            <rect x="102" y="119.2" width="56.1" height="9.1"/>
            <rect x="193.9" y="119.2" width="56.1" height="9.1"/>
            <rect x="10" y="138.9" width="240" height="2"/>
            <rect x="10" y="55.7" width="56.1" height="9.1"/>
            <rect x="193.9" y="55.7" width="56.1" height="9.1"/>
            <rect x="10" y="75.4" width="240" height="2"/>
            <rect x="10" y="182.7" width="56.1" height="9.1"/>
            <rect x="193.9" y="182.7" width="56.1" height="9.1"/>
            <rect x="10" y="202.4" width="240" height="2"/>
        </g>
        <g class="modul-u--preview-img--dark">
            <rect x="10" y="119.2" width="56.1" height="9.1"/>
            <rect x="10" y="138.9" width="56" height="2"/>
            <rect x="102" y="55.7" width="56.1" height="9.1"/>
            <rect x="102" y="75.4" width="56" height="2"/>
            <rect x="102" y="182.7" width="56.1" height="9.1"/>
            <rect x="102" y="202.4" width="56" height="2"/>
        </g>
    </symbol>
    <symbol id="m-panel" viewBox="0 0 260 260">
        <rect class="modul-u--preview-img--light" x="10" y="60" width="240" height="144"/>
        <g class="modul-u--preview-img--dark">
            <rect x="25" y="103" width="194.9" height="6.3"/>
            <rect x="25" y="73.6" width="101" height="9.1"/>
            <rect x="25" y="116" width="209" height="6.3"/>
            <rect x="25" y="129.1" width="204" height="6.3"/>
            <rect x="25" y="142.1" width="209" height="6.3"/>
            <rect x="25" y="155.1" width="196" height="6.3"/>
            <rect x="25" y="168.1" width="150.4" height="6.3"/>
            <rect x="10" y="56" width="240" height="4"/>
            <rect x="25" y="103" width="194.9" height="6.3"/>
            <rect x="25" y="73.6" width="101" height="9.1"/>
            <rect x="25" y="116" width="209" height="6.3"/>
            <rect x="25" y="129.1" width="204" height="6.3"/>
            <rect x="25" y="142.1" width="209" height="6.3"/>
            <rect x="25" y="155.1" width="196" height="6.3"/>
            <rect x="25" y="168.1" width="150.4" height="6.3"/>
            <rect x="10" y="56" width="240" height="4"/>
        </g>
    </symbol>
    <symbol id="m-radio" viewBox="0 0 260 260">
        <g class="modul-u--preview-img--dark">
            <path d="M25.2,58c6.7,0,12.2,5.5,12.2,12.2c0,6.7-5.5,12.2-12.2,12.2C18.5,82.4,13,77,13,70.2C13,63.5,18.5,58,25.2,58
                L25.2,58 M25.2,55L25.2,55C16.8,55,10,61.8,10,70.2v0c0,8.4,6.8,15.2,15.2,15.2h0c8.4,0,15.2-6.8,15.2-15.2v0
                C40.4,61.8,33.6,55,25.2,55L25.2,55z"/>
            <path d="M25.2,97.8c6.7,0,12.2,5.5,12.2,12.2c0,6.7-5.5,12.2-12.2,12.2c-6.7,0-12.2-5.5-12.2-12.2
                C13,103.3,18.5,97.8,25.2,97.8 M25.2,94.8L25.2,94.8c-8.4,0-15.2,6.8-15.2,15.2v0c0,8.4,6.8,15.2,15.2,15.2h0
                c8.4,0,15.2-6.8,15.2-15.2v0C40.4,101.7,33.6,94.8,25.2,94.8L25.2,94.8z"/>
            <path d="M25.2,119.9L25.2,119.9c-5.4,0-9.8-4.4-9.8-9.8v0c0-5.4,4.4-9.8,9.8-9.8h0c5.4,0,9.8,4.4,9.8,9.8v0
                    C35,115.5,30.6,119.9,25.2,119.9z"/>
            <path d="M25.2,137.7c6.7,0,12.2,5.5,12.2,12.2c0,6.7-5.5,12.2-12.2,12.2c-6.7,0-12.2-5.5-12.2-12.2
                C13,143.2,18.5,137.7,25.2,137.7 M25.2,134.7L25.2,134.7c-8.4,0-15.2,6.8-15.2,15.2v0c0,8.4,6.8,15.2,15.2,15.2h0
                c8.4,0,15.2-6.8,15.2-15.2v0C40.4,141.5,33.6,134.7,25.2,134.7L25.2,134.7z"/>
            <path d="M25.2,177.6c6.7,0,12.2,5.5,12.2,12.2c0,6.7-5.5,12.2-12.2,12.2c-6.7,0-12.2-5.5-12.2-12.2
                C13,183,18.5,177.6,25.2,177.6 M25.2,174.6L25.2,174.6c-8.4,0-15.2,6.8-15.2,15.2v0c0,8.4,6.8,15.2,15.2,15.2h0
                c8.4,0,15.2-6.8,15.2-15.2v0C40.4,181.4,33.6,174.6,25.2,174.6L25.2,174.6z"/>
        </g>
        <g class="modul-u--preview-img">
            <rect x="55.7" y="63.7" width="113.2" height="12.9"/>
            <rect x="55.7" y="103.6" width="194.3" height="12.9"/>
            <rect x="55.7" y="143.5" width="161.4" height="12.9"/>
            <rect x="55.7" y="183.3" width="99" height="12.9"/>
        </g>
    </symbol>
    <symbol id="m-sidebar" viewBox="0 0 260 260">
        <path class="modul-u--preview-img" d="M250,171H10V18c0-4.4,3.6-8,8-8h224c4.4,0,8,3.6,8,8V171z"/>
        <rect class="modul-u--preview-img--light" x="10" y="171" width="240" height="79"/>
        <g class="modul-u--preview-img--dark ">
            <rect x="25" y="188" width="196.1" height="6.3"/>
            <rect x="25" y="201.1" width="210" height="6.3"/>
            <rect x="25" y="214.1" width="152" height="6.3"/>
            <polygon points="234.2,158 230.6,154.5 234.2,151 232,148.8 228.5,152.4 225,148.8
                222.8,151 226.4,154.5 222.8,158 225,160.2 228.5,156.6 232,160.2 		"/>
            <rect x="25" y="188" width="196.1" height="6.3"/>
            <rect x="25" y="201.1" width="210" height="6.3"/>
            <rect x="25" y="214.1" width="152" height="6.3"/>
            <polygon points="234.2,158 230.6,154.5 234.2,151 232,148.8 228.5,152.4 225,148.8
                    222.8,151 226.4,154.5 222.8,158 225,160.2 228.5,156.6 232,160.2 		"/>
        </g>
    </symbol>
    <symbol id="m-slider" viewBox="0 0 260 260">
        <g class="modul-u--preview-img">
            <rect x="10" y="191" width="240" height="5"/>
            <rect x="10" y="127.5" width="240" height="5"/>
            <rect x="10" y="64" width="240" height="5"/>
        </g>
        <g class="modul-u--preview-img--dark">
            <rect x="10" y="64" width="109" height="5"/>
            <rect x="10" y="127.5" width="59" height="5"/>
            <rect x="10" y="191" width="179" height="5"/>
            <circle cx="119.5" cy="66.5" r="7.5"/>
            <circle cx="69.5" cy="130" r="7.5"/>
            <circle cx="188.5" cy="193.5" r="7.5"/>
        </g>
    </symbol>
    <symbol id="m-spinner" viewBox="0 0 260 260">
        <path class="modul-u--preview-img" d="M217.8,136c-3.1,45.5-41.3,81.5-87.8,81.5c-48.5,0-88-39.3-88-87.5c0-46.2,36.3-84.2,82-87.3V10.2
        C60.6,13.3,10,65.8,10,130c0,66.2,53.8,120,120,120c64.2,0,116.7-50.6,119.8-114H217.8z"/>
        <path class="modul-u--preview-img--dark" d="M250,130h-32c0-48.2-39.5-87.5-88-87.5V10C196.2,10,250,63.8,250,130z"/>
    </symbol>
    <symbol id="m-switch" viewBox="0 0 260 260">
        <g class="modul-u--preview-img">
            <rect x="85" y="183.3" width="70" height="12.9"/>
            <rect x="85" y="63.7" width="84" height="12.9"/>
            <rect x="85" y="103.6" width="165" height="12.9"/>
            <rect x="85" y="143.5" width="132" height="12.9"/>
            <path d="M55.7,96c-0.1,0-0.2,0-0.3,0v0H24.3v0c-0.1,0-0.2,0-0.3,0c-7.7,0-14,6.3-14,14s6.3,14,14,14c0.1,0,0.2,0,0.3,0
                v0h31.1v0c0.1,0,0.2,0,0.3,0c7.7,0,14-6.3,14-14S63.4,96,55.7,96z"/>
            <path d="M55.7,135.9c-0.1,0-0.2,0-0.3,0v0H24.3v0c-0.1,0-0.2,0-0.3,0c-7.7,0-14,6.3-14,14c0,7.7,6.3,14,14,14
                c0.1,0,0.2,0,0.3,0v0h31.1v0c0.1,0,0.2,0,0.3,0c7.7,0,14-6.3,14-14C69.7,142.2,63.4,135.9,55.7,135.9z"/>
            <path d="M55.7,175.8c-0.1,0-0.2,0-0.3,0v0H24.3v0c-0.1,0-0.2,0-0.3,0c-7.7,0-14,6.3-14,14c0,7.7,6.3,14,14,14
                c0.1,0,0.2,0,0.3,0v0h31.1v0c0.1,0,0.2,0,0.3,0c7.7,0,14-6.3,14-14C69.7,182,63.4,175.8,55.7,175.8z"/>
            <path d="M55.7,56.2c-0.1,0-0.2,0-0.3,0v0H24.3v0c-0.1,0-0.2,0-0.3,0c-7.7,0-14,6.3-14,14c0,7.7,6.3,14,14,14
                c0.1,0,0.2,0,0.3,0v0h31.1v0c0.1,0,0.2,0,0.3,0c7.7,0,14-6.3,14-14C69.7,62.5,63.4,56.2,55.7,56.2z"/>
        </g>
        <g class="modul-u--preview-img--dark">
            <circle cx="24" cy="110.1" r="11"/>
            <circle cx="55.7" cy="149.9" r="11"/>
            <circle cx="24" cy="189.8" r="11"/>
            <circle cx="56" cy="70.2" r="11"/>
        </g>
    </symbol>
    <symbol id="m-tabs" viewBox="0 0 260 260">
        <g class="modul-u--preview-img--light">
            <rect x="154.7" y="56" width="66.4" height="26.5"/>
            <rect x="82.3" y="56" width="66.4" height="26.5"/>
        </g>
        <polygon class="modul-u--preview-img" points="76.4,82.5 76.4,56 10,56 10,82.5 10,82.5 10,204 250,204 250,82.5 	"/>
        <g class="modul-u--preview-img--dark">
            <rect x="21.4" y="66.2" width="44" height="6.3"/>
            <rect x="93.5" y="66.1" width="44" height="6.3"/>
            <rect x="165.9" y="66.1" width="44" height="6.3"/>
        </g>
    </symbol>
    <symbol id="m-template" viewBox="0 0 260 260">
        <g class="modul-u--preview-img">
            <rect x="10" y="204" width="141" height="14"/>
            <rect x="159" y="90" width="91" height="128"/>
        </g>
        <rect class="modul-u--preview-img--light" x="10" y="90" width="141" height="106"/>
        <rect class="modul-u--preview-img--dark" x="10" y="42" width="240" height="40"/>
    </symbol>
    <symbol id="m-textfield" viewBox="0 0 260 260">
        <g class="modul-u--preview-img--dark">
            <rect x="135" y="111.9" width="1" height="23.1"/>
            <rect x="10" y="138.1" width="240" height="3"/>
        </g>
        <g class="modul-u--preview-img" >
            <rect x="10" y="118.9" width="116" height="9.1"/>
            <rect x="10" y="74.6" width="240" height="3"/>
            <rect x="10" y="55.4" width="116" height="9.1"/>
            <rect x="10" y="201.6" width="240" height="3"/>
            <rect x="10" y="182.4" width="116" height="9.1"/>
        </g>
    </symbol>
    <symbol id="m-timepicker" viewBox="0 0 260 260">
        <path class="modul-u--preview-img--light" d="M130,17C67.6,17,17,67.6,17,130s50.6,113,113,113s113-50.6,113-113S192.4,17,130,17z M128.1,18.3h5v17.1h-5
                V18.3z M35.3,131.9H18.3v-5h17.1V131.9z M52.4,210.4l-3.5-3.5l12.1-12.1l3.5,3.5L52.4,210.4z M61.7,64.4L49.6,52.4l3.5-3.5
                l12.1,12.1L61.7,64.4z M131.9,241.7h-5v-17.1h5V241.7z M130,141c-6.1,0-11-4.9-11-11s4.9-11,11-11s11,4.9,11,11S136.1,141,130,141z
                M206.9,211.2l-12.1-12.1l3.5-3.5l12.1,12.1L206.9,211.2z M199.1,65.2l-3.5-3.5l12.1-12.1l3.5,3.5L199.1,65.2z M224.7,133.1v-5
                h17.1v5H224.7z"/>
        <circle class="modul-u--preview-img" cx="130" cy="130" r="11"/>
        <g class="modul-u--preview-img--dark">
            <rect x="128.1" y="22" width="4.8" height="16.5"/>
            <rect x="57.4" y="50.8" transform="matrix(0.7071 -0.7071 0.7071 0.7071 -24.2546 59.6195)" width="4.8" height="16.5"/>
            <rect x="22" y="127.1" width="16.5" height="4.8"/>
            <rect x="50.8" y="197.7" transform="matrix(0.7071 -0.7071 0.7071 0.7071 -124.2282 100.4068)" width="16.5" height="4.8"/>
            <rect x="127.1" y="221.5" width="4.8" height="16.5"/>
            <rect x="197.7" y="192.7" transform="matrix(0.7071 -0.7071 0.7071 0.7071 -83.441 200.3804)" width="4.8" height="16.5"/>
            <rect x="221.5" y="128.1" width="16.5" height="4.8"/>
            <rect x="192.7" y="57.4" transform="matrix(0.7071 -0.7071 0.7071 0.7071 16.5327 159.5932)" width="16.5" height="4.8"/>
            <path d="M137.2,144.2l24,24l7-7l-24-24C142.7,140.2,140.2,142.7,137.2,144.2z"/>
            <path d="M143.9,122.2l46.3-45.4l-6.9-7.1l-46.6,45.7C139.7,116.9,142.3,119.3,143.9,122.2z
                    "/>
            <path d="M130,250c-66.2,0-120-53.8-120-120S63.8,10,130,10s120,53.8,120,120
                    S196.2,250,130,250z M130,26.5C72.9,26.5,26.5,72.9,26.5,130S72.9,233.5,130,233.5S233.5,187.1,233.5,130S187.1,26.5,130,26.5z"/>
            <path d="M130,11c65.6,0,119,53.4,119,119s-53.4,119-119,119S11,195.6,11,130S64.4,11,130,11 M130,234.5
                    c57.6,0,104.5-46.9,104.5-104.5S187.6,25.5,130,25.5S25.5,72.4,25.5,130S72.4,234.5,130,234.5 M130,10C63.8,10,10,63.8,10,130
                    s53.8,120,120,120s120-53.8,120-120S196.2,10,130,10L130,10z M130,233.5c-57.1,0-103.5-46.4-103.5-103.5S72.9,26.5,130,26.5
                    S233.5,72.9,233.5,130S187.1,233.5,130,233.5L130,233.5z"/>
        </g>
    </symbol>
    <symbol id="m-tooltip" viewBox="0 0 260 260">
        <g class="modul-u--preview-img--dark">
            <rect x="31.9" y="62.4" width="1.2" height="4.9"/>
            <circle cx="32.5" cy="60.6" r="0.9"/>
            <path d="M32.5,71c-4.1,0-7.5-3.4-7.5-7.5s3.4-7.5,7.5-7.5s7.5,3.4,7.5,7.5S36.6,71,32.5,71z M32.5,57.2
                c-3.5,0-6.3,2.8-6.3,6.3s2.8,6.3,6.3,6.3s6.3-2.8,6.3-6.3S36,57.2,32.5,57.2z"/>
            <polygon points="236.2,104 232.6,100.5 236.2,97 234,94.8 230.5,98.4 227,94.8 224.8,97 228.4,100.5 224.8,104
                227,106.2 230.5,102.6 234,106.2 "/>
            <rect x="25" y="97.2" width="172.6" height="6.3"/>
            <rect x="25" y="110.2" width="185" height="6.3"/>
            <rect x="25" y="123.3" width="180.6" height="6.3"/>
            <rect x="25" y="136.3" width="185" height="6.3"/>
            <rect x="25" y="149.3" transform="matrix(1 2.707632e-03 -2.707632e-03 1 0.4132 -0.3019)" width="173.5" height="6.3"/>
            <rect x="24.9" y="162.3" transform="matrix(1 2.707632e-03 -2.707632e-03 1 0.4483 -0.2472)" width="133.2" height="6.3"/>
        </g>
        <path class="modul-u--preview-img--light" d="M14,204h232c2.2,0,4-1.8,4-4V84c0-2.2-1.8-4-4-4H14c-2.2,0-4,1.8-4,4v116C10,202.2,11.8,204,14,204z"/>
    </symbol>
    <symbol id="m-edit" viewBox="0 0 20 20">
        <path d="M19.375 2.412l-1.768-1.769c-0.786-0.786-2.16-0.786-2.947 0l-0.589 0.589c0 0 0 0 0 0.001l-12.198 12.199c-0.001 0.001-0.002 0.001-0.003 0.003s-0.001 0.002-0.002 0.003l-0.207 0.207c-0.055 0.055-0.093 0.124-0.111 0.199l-1.264 5.388c-0.033 0.14 0.009 0.287 0.111 0.39 0.079 0.079 0.186 0.122 0.295 0.122 0.032 0 0.063-0.004 0.095-0.011l5.388-1.264c0.075-0.017 0.144-0.056 0.199-0.111l0.207-0.207c0.001-0.001 0.002-0.001 0.003-0.003s0.001-0.003 0.003-0.003l10.999-10.997c0.004-0.002 0.009-0.004 0.012-0.008s0.005-0.009 0.008-0.013l1.17-1.17c0.003-0.003 0.008-0.004 0.011-0.008s0.004-0.008 0.008-0.011l0.581-0.581c0.811-0.812 0.811-2.134 0-2.945zM17.303 6.251l-3.528-3.544 0.59-0.591 3.537 3.536-0.599 0.599zM6.288 17.264l-3.535-3.535 10.432-10.434 3.527 3.544-10.425 10.425zM2.269 14.423l3.325 3.326-4.344 1.018 1.019-4.344zM18.785 4.768l-0.295 0.295-3.537-3.537 0.295-0.295c0.471-0.472 1.296-0.473 1.768 0l1.768 1.769c0.487 0.487 0.487 1.28 0 1.768z"></path>
    </symbol>
    <symbol id="m-standard-edit"  viewBox="0 0 32 32">
       <path d="M4,10h24c1.104,0,2-0.896,2-2s-0.896-2-2-2H4C2.896,6,2,6.896,2,8S2.896,10,4,10z M28,14H4c-1.104,0-2,0.896-2,2  s0.896,2,2,2h24c1.104,0,2-0.896,2-2S29.104,14,28,14z M28,22H4c-1.104,0-2,0.896-2,2s0.896,2,2,2h24c1.104,0,2-0.896,2-2  S29.104,22,28,22z"/>
    </symbol>
</svg>
