<svg height="512" viewBox="0 0 128 128" width="512" xmlns="http://www.w3.org/2000/svg"><g><g><path d="m53.933 84.724a9.283 9.283 0 0 1 0 8.276s2.692 5.119 2.067 10.06h10.358v-23.56l-15.858-7.75z" fill="#82a626"/><path d="m109.48 40.45s.11.75-.85 5.23-13.12 6.61-13.12 6.61c.86 6.26-3.2 11.71-3.2 11.71a6.084 6.084 0 0 1 4.69 7.27 5.064 5.064 0 0 0 -5.75-.32c-1.6-2.45-3.42-2.16-3.42-2.16-1.56 4.69-8.39 5.68-8.39 5.68a18.608 18.608 0 0 1 -9.95 12.66 14 14 0 0 0 3.27 8.82 8.642 8.642 0 0 1 6.4 7.11h-12.8c-.43-8.11-6.4-15.93-6.4-15.93a11.843 11.843 0 0 0 1.42-7.39s-20.71 22.43-37.33 9.45c-.29-.23-.57-.45-.83-.68a15.559 15.559 0 0 1 -3.69-4.47c-4.44-8.4 3.74-16.55 4.14-16.94-7.43 9.27 2 17.76 10.23 16.76a9.863 9.863 0 0 0 4.24-1.52 10.85 10.85 0 0 0 4.04-5.09 63.443 63.443 0 0 1 7.04-13.17 33.973 33.973 0 0 1 4.63-5.26c5.11-4.66 10.57-6.31 16.48-7.65a23.3 23.3 0 0 0 5.07-1.67 9.052 9.052 0 0 0 4.08-3.59c1.54-2.6 1.79-6.09 2.52-10.83 1.42-9.17 11.09-8.1 14.51-8.18s3.98-3.27 8.74-1.35 4.77 8.82 4.77 8.82c-3.84-.5-7.04.64-10.88 4.2s-6.26 3.12-6.26 3.12c6.44 1.89 16.6-1.24 16.6-1.24z" fill="#94be24"/><path d="m92.969 35.292a2.136 2.136 0 1 1 2.131-2.136 2.139 2.139 0 0 1 -2.131 2.136z" fill="#fd4d1e"/><g fill="#82a626"><path d="m55.44 61.78a3.529 3.529 0 0 1 -3.53 3.53 3.58 3.58 0 0 1 -2.69-1.23 33.973 33.973 0 0 1 4.63-5.26 3.542 3.542 0 0 1 1.59 2.96z"/><circle cx="69.969" cy="59.094" r="2.344"/><path d="m80.06 47.59a2.722 2.722 0 0 1 -4.66 1.91 9.052 9.052 0 0 0 4.08-3.59 2.674 2.674 0 0 1 .58 1.68z"/><circle cx="58.688" cy="71.938" r="1.563"/><path d="m38.5 83.56a2.309 2.309 0 0 1 -4.6.3 9.863 9.863 0 0 0 4.24-1.52 2.213 2.213 0 0 1 .36 1.22z"/><path d="m24.05 86.48a2.917 2.917 0 0 1 -.83 2.03 15.559 15.559 0 0 1 -3.69-4.47 2.917 2.917 0 0 1 4.52 2.44z"/></g></g><g fill="#432c00"><path d="m57.693 57.631a1.744 1.744 0 0 0 .932-.27c.179-.112.358-.223.538-.33a1.75 1.75 0 1 0 -1.793-3.006q-.306.183-.612.375a1.75 1.75 0 0 0 .935 3.231z"/><path d="m63.485 54.833a1.768 1.768 0 0 0 .595-.1 56.152 56.152 0 0 1 6.64-1.856c10.844-2.457 11.564-7.484 12.653-15.093.11-.771.226-1.581.358-2.431.972-6.271 6.5-6.749 11.617-6.7.45.005.853.008 1.2 0a7.893 7.893 0 0 0 3.908-1.23c1.248-.693 2-1.112 4.148-.247 2.272.915 3.137 3.525 3.467 5.335-3.535.075-6.664 1.573-10.117 4.77-2.993 2.773-4.814 2.68-4.764 2.69a1.75 1.75 0 0 0 -.8 3.4c4.858 1.422 11.445.271 15.032-.571-.118.65-.279 1.472-.5 2.507-.2.944-1.974 2.461-6.341 3.887a1.75 1.75 0 0 0 1.086 3.327c5.274-1.721 8.113-3.841 8.678-6.481a25.774 25.774 0 0 0 .875-5.84 1.75 1.75 0 0 0 -2.247-1.426 47.26 47.26 0 0 1 -9.373 1.718q.355-.3.725-.642c3.389-3.138 6.045-4.186 9.465-3.745a1.749 1.749 0 0 0 1.976-1.735c0-.33-.067-8.106-5.86-10.44-3.693-1.489-5.613-.424-7.155.432a4.636 4.636 0 0 1 -2.282.792c-.311.007-.68 0-1.09 0-4.072-.04-13.592-.129-15.109 9.66-.134.864-.251 1.687-.364 2.471-1.067 7.46-1.467 10.251-9.962 12.176a59.138 59.138 0 0 0 -7.055 1.977 1.75 1.75 0 0 0 .594 3.4z"/><path d="m92.969 35.292a2.136 2.136 0 1 0 -2.136-2.136 2.139 2.139 0 0 0 2.136 2.136z"/><path d="m110.018 101.31h-1.143a1.75 1.75 0 0 0 0 3.5h1.143a1.75 1.75 0 0 0 0-3.5z"/><path d="m103.375 101.31h-22.826a10.157 10.157 0 0 0 -6.79-6.891 12.665 12.665 0 0 1 -2.451-6.255 20.352 20.352 0 0 0 9.57-12.2c2-.492 5.989-1.85 7.927-5.12a3.834 3.834 0 0 1 .974 1.068 1.752 1.752 0 0 0 2.412.516 3.3 3.3 0 0 1 3.714.209 1.749 1.749 0 0 0 2.807-.977 7.71 7.71 0 0 0 -3.81-8.526 18.591 18.591 0 0 0 2.344-11.08 1.75 1.75 0 1 0 -3.468.472c.542 3.973-1.213 7.666-2.217 9.4a15.872 15.872 0 0 0 -5.053-.831 1.75 1.75 0 1 0 .317 3.485 17.553 17.553 0 0 1 4.91 1.076c.017.006.035 0 .052.009s.05.024.078.031a4.293 4.293 0 0 1 3.327 2.848 6.883 6.883 0 0 0 -3.426.255 4.98 4.98 0 0 0 -4.2-1.738 1.752 1.752 0 0 0 -1.389 1.176c-.714 2.14-3.023 3.322-4.794 3.934a18.212 18.212 0 0 0 -2.227-9.023 1.75 1.75 0 1 0 -3.056 1.708 15.162 15.162 0 0 1 1.628 9.262 16.717 16.717 0 0 1 -8.928 11.405 1.75 1.75 0 0 0 -1.06 1.654 15.758 15.758 0 0 0 3.756 9.982 1.753 1.753 0 0 0 .811.481 6.743 6.743 0 0 1 4.5 3.67h-8.865c-.852-6.373-4.461-12.177-5.954-14.348a13.84 13.84 0 0 0 1.179-7.1 12.438 12.438 0 0 0 -4.854-13 1.75 1.75 0 0 0 -2.126 2.78 8.869 8.869 0 0 1 3.624 9.2c-2.455 2.51-20.5 20.041-34.685 8.97-3.255-2.541-4.988-5.408-5.15-8.521a9.806 9.806 0 0 1 .036-1.487c.107.258.217.5.326.714a13.917 13.917 0 0 0 12.725 7.164 11.832 11.832 0 0 0 10.737-7.769c3.049-7.421 6.352-12.886 10.1-16.708a1.75 1.75 0 1 0 -2.5-2.45c-4.068 4.15-7.613 9.982-10.836 17.828a8.326 8.326 0 0 1 -7.632 5.6 10.451 10.451 0 0 1 -9.466-5.238c-1.374-2.736-.824-5.769 1.592-8.773a1.75 1.75 0 0 0 -2.574-2.361c-.26.25-6.379 6.2-6 13.636.21 4.181 2.395 7.923 6.493 11.122a19.8 19.8 0 0 0 12.48 4.38c9.8 0 19.1-6.745 23.874-10.882a11.449 11.449 0 0 1 -.91 2.234 1.75 1.75 0 0 0 .151 1.889c.052.068 4.755 6.309 5.835 13.116h-6.566a22.645 22.645 0 0 0 -2.359-9.124 1.75 1.75 0 0 0 -3.1 1.628 19.187 19.187 0 0 1 1.957 7.5h-36.357a1.75 1.75 0 0 0 0 3.5h85.393a1.75 1.75 0 0 0 0-3.5z"/></g></g></svg>
