<svg xmlns="http://www.w3.org/2000/svg" id="Calque_1" width="10em" height="10em" viewBox="0 0 233.65 259.32">
  <style>
    .st3,.st7,.st8{fill:none;stroke:#1f3139;stroke-width:3;stroke-linecap:round;stroke-linejoin:round;stroke-miterlimit:10}.st7,.st8{stroke:#000;stroke-width:4}.st8{stroke:#1f3139}
  </style>
  <switch>
    <g>
      <path d="M114.83 32.21v184.66c0 21.5-17.43 38.92-38.93 38.92-16.47 0-30.54-10.22-36.23-24.67-14.18-2.29-25.01-14.58-25.01-29.4 0-3.8.71-7.42 2-10.76-7.83-2.78-13.43-10.25-13.43-19.03 0-8.28 4.98-15.39 12.11-18.51-4.98-7.07-7.9-15.71-7.9-25.01 0-8.39 2.37-16.23 6.49-22.87a43.39 43.39 0 0 1-1.49-11.3c0-17.46 10.27-32.51 25.11-39.45-.01-.36-.03-.72-.03-1.08 0-14 11.35-25.35 25.35-25.35.52 0 1.03.02 1.54.05 1.82-12.2 12.35-21.55 25.07-21.55 14 0 25.35 11.34 25.35 25.35z" class="st7"/>
      <path fill="#1895fd" stroke="#201d1d" stroke-linecap="round" stroke-linejoin="round" stroke-miterlimit="10" stroke-width="3" d="M114.83 32.21v184.66c0 21.5-17.43 38.92-38.93 38.92-16.47 0-30.54-10.22-36.23-24.67-14.18-2.29-25.01-14.58-25.01-29.4 0-3.8.71-7.42 2-10.76-7.83-2.78-13.43-10.25-13.43-19.03 0-8.28 4.98-15.39 12.11-18.51-4.98-7.07-7.9-15.71-7.9-25.01 0-8.39 2.37-16.23 6.49-22.87a43.39 43.39 0 0 1-1.49-11.3c0-17.46 10.27-32.51 25.11-39.45-.01-.36-.03-.72-.03-1.08 0-14 11.35-25.35 25.35-25.35.52 0 1.03.02 1.54.05 1.82-12.2 12.35-21.55 25.07-21.55 14 0 25.35 11.34 25.35 25.35z"/>
      <path d="M61.67 226.53a29.689 29.689 0 0 1-16.78 5.17c-16.45 0-29.78-13.33-29.78-29.78M15.1 201.92c0-12.34 7.5-22.92 18.19-27.44M37.91 130.35c-14.49-6.13-24.65-20.47-24.65-37.19 0-22.29 18.07-40.36 40.36-40.36 6.66 0 12.94 1.61 18.48 4.47M47.29 93.16s34.02-4.54 34.02 40.36M99.87 126.11s-.68-15.58-20.76-12M58.17 205.16s28.84-3.65 27.85 23.46M84.35 180.04c17.43 3.57 30.55 18.99 30.55 37.48M53.48 180.04s7.5-29.55 41-24.55M114.89 58.58s-3.14-11.59-15.03-12.09" class="st7"/>
      <path fill="#fff" d="M114.83 42.25V206.7c0 19.14-14.15 34.66-31.61 34.66-13.37 0-24.8-9.1-29.42-21.97-11.52-2.04-20.31-12.98-20.31-26.18 0-3.38.58-6.61 1.63-9.58-6.35-2.47-10.91-9.13-10.91-16.95 0-7.37 4.05-13.71 9.84-16.49-4.04-6.3-6.42-13.99-6.42-22.27 0-7.47 1.93-14.45 5.27-20.37-.79-3.21-1.21-6.58-1.21-10.06 0-15.54 8.34-28.95 20.39-35.13-.01-.32-.02-.64-.02-.96 0-12.47 9.22-22.58 20.59-22.58.42 0 .83.01 1.25.04 1.48-10.87 10.03-19.2 20.36-19.2 11.35.02 20.57 10.12 20.57 22.59z" opacity=".3"/>
      <g>
        <path d="M114.89 32.21v184.66c0 21.5 17.43 38.92 38.93 38.92 16.47 0 30.54-10.22 36.23-24.67 14.18-2.29 25.01-14.58 25.01-29.4 0-3.8-.71-7.42-2-10.76 7.83-2.78 13.43-10.25 13.43-19.03 0-8.28-4.98-15.39-12.11-18.51 4.98-7.07 7.9-15.71 7.9-25.01 0-8.39-2.37-16.23-6.49-22.87.97-3.6 1.49-7.39 1.49-11.3 0-17.46-10.27-32.51-25.11-39.45.01-.36.03-.72.03-1.08 0-14-11.35-25.35-25.35-25.35-.52 0-1.03.02-1.54.05-1.83-12.21-12.35-21.56-25.07-21.56-14 .01-25.35 11.35-25.35 25.36z" class="st7"/>
        <path fill="#ffc20c" stroke="#201d1d" stroke-linecap="round" stroke-linejoin="round" stroke-miterlimit="10" stroke-width="3" d="M114.89 32.21v184.66c0 21.5 17.43 38.92 38.93 38.92 16.47 0 30.54-10.22 36.23-24.67 14.18-2.29 25.01-14.58 25.01-29.4 0-3.8-.71-7.42-2-10.76 7.83-2.78 13.43-10.25 13.43-19.03 0-8.28-4.98-15.39-12.11-18.51 4.98-7.07 7.9-15.71 7.9-25.01 0-8.39-2.37-16.23-6.49-22.87.97-3.6 1.49-7.39 1.49-11.3 0-17.46-10.27-32.51-25.11-39.45.01-.36.03-.72.03-1.08 0-14-11.35-25.35-25.35-25.35-.52 0-1.03.02-1.54.05-1.83-12.21-12.35-21.56-25.07-21.56-14 .01-25.35 11.35-25.35 25.36z"/>
        <path fill="#fff" d="M114.89 42.88v164.45c0 19.14 14.15 34.66 31.61 34.66 13.37 0 24.8-9.1 29.42-21.97 11.52-2.04 20.31-12.98 20.31-26.18 0-3.38-.58-6.61-1.63-9.58 6.35-2.47 10.91-9.13 10.91-16.95 0-7.37-4.05-13.71-9.84-16.49 4.04-6.3 6.42-13.99 6.42-22.27 0-7.47-1.93-14.45-5.27-20.37.79-3.21 1.21-6.58 1.21-10.06 0-15.54-8.34-28.95-20.39-35.13.01-.32.02-.64.02-.96 0-12.47-9.22-22.58-20.59-22.58-.42 0-.83.01-1.25.04-1.48-10.87-10.03-19.2-20.36-19.2-11.35.01-20.57 10.11-20.57 22.59z" opacity=".6"/>
        <path d="M168.05 226.53a29.689 29.689 0 0 0 16.78 5.17c16.45 0 29.78-13.33 29.78-29.78M214.62 201.92c0-12.34-7.5-22.92-18.19-27.44M191.81 130.35c14.49-6.13 24.65-20.47 24.65-37.19 0-22.29-18.07-40.36-40.36-40.36-6.66 0-12.94 1.61-18.48 4.47M182.43 93.16s-34.02-4.54-34.02 40.36M129.85 126.11s.68-15.58 20.76-12M171.55 205.16s-28.84-3.65-27.85 23.46M145.37 180.04c-17.43 3.57-30.55 18.99-30.55 37.48M176.24 180.04s-7.5-29.55-41-24.55M114.83 58.58s3.14-11.59 15.03-12.09" class="st8"/>
        <path d="M114.89 32.21v184.66c0 21.5 17.43 38.92 38.93 38.92 16.47 0 30.54-10.22 36.23-24.67 14.18-2.29 25.01-14.58 25.01-29.4 0-3.8-.71-7.42-2-10.76 7.83-2.78 13.43-10.25 13.43-19.03 0-8.28-4.98-15.39-12.11-18.51 4.98-7.07 7.9-15.71 7.9-25.01 0-8.39-2.37-16.23-6.49-22.87.97-3.6 1.49-7.39 1.49-11.3 0-17.46-10.27-32.51-25.11-39.45.01-.36.03-.72.03-1.08 0-14-11.35-25.35-25.35-25.35-.52 0-1.03.02-1.54.05-1.83-12.21-12.35-21.56-25.07-21.56-14 .01-25.35 11.35-25.35 25.36z" class="st3"/>
      </g>
      <g>
        <path d="M114.83 32.21v184.66c0 21.5-17.43 38.92-38.93 38.92-16.47 0-30.54-10.22-36.23-24.67-14.18-2.29-25.01-14.58-25.01-29.4 0-3.8.71-7.42 2-10.76-7.83-2.78-13.43-10.25-13.43-19.03 0-8.28 4.98-15.39 12.11-18.51-4.98-7.07-7.9-15.71-7.9-25.01 0-8.39 2.37-16.23 6.49-22.87a43.39 43.39 0 0 1-1.49-11.3c0-17.46 10.27-32.51 25.11-39.45-.01-.36-.03-.72-.03-1.08 0-14 11.35-25.35 25.35-25.35.52 0 1.03.02 1.54.05 1.82-12.2 12.35-21.55 25.07-21.55 14 0 25.35 11.34 25.35 25.35z" class="st8"/>
        <path d="M114.83 32.21v184.66c0 21.5-17.43 38.92-38.93 38.92-16.47 0-30.54-10.22-36.23-24.67-14.18-2.29-25.01-14.58-25.01-29.4 0-3.8.71-7.42 2-10.76-7.83-2.78-13.43-10.25-13.43-19.03 0-8.28 4.98-15.39 12.11-18.51-4.98-7.07-7.9-15.71-7.9-25.01 0-8.39 2.37-16.23 6.49-22.87a43.39 43.39 0 0 1-1.49-11.3c0-17.46 10.27-32.51 25.11-39.45-.01-.36-.03-.72-.03-1.08 0-14 11.35-25.35 25.35-25.35.52 0 1.03.02 1.54.05 1.82-12.2 12.35-21.55 25.07-21.55 14 0 25.35 11.34 25.35 25.35z" class="st3"/>
        <path d="M61.67 226.53a29.689 29.689 0 0 1-16.78 5.17c-16.45 0-29.78-13.33-29.78-29.78M15.1 201.92c0-12.34 7.5-22.92 18.19-27.44M37.91 130.35c-14.49-6.13-24.65-20.47-24.65-37.19 0-22.29 18.07-40.36 40.36-40.36 6.66 0 12.94 1.61 18.48 4.47M47.29 93.16s34.02-4.54 34.02 40.36M99.87 126.11s-.68-15.58-20.76-12M58.17 205.16s28.84-3.65 27.85 23.46M84.35 180.04c17.43 3.57 30.55 18.99 30.55 37.48M53.48 180.04s7.5-29.55 41-24.55M114.89 58.58s-3.14-11.59-15.03-12.09" class="st8"/>
        <path fill="none" d="M114.83 42.25V206.7c0 19.14-14.15 34.66-31.61 34.66-13.37 0-24.8-9.1-29.42-21.97-11.52-2.04-20.31-12.98-20.31-26.18 0-3.38.58-6.61 1.63-9.58-6.35-2.47-10.91-9.13-10.91-16.95 0-7.37 4.05-13.71 9.84-16.49-4.04-6.3-6.42-13.99-6.42-22.27 0-7.47 1.93-14.45 5.27-20.37-.79-3.21-1.21-6.58-1.21-10.06 0-15.54 8.34-28.95 20.39-35.13-.01-.32-.02-.64-.02-.96 0-12.47 9.22-22.58 20.59-22.58.42 0 .83.01 1.25.04 1.48-10.87 10.03-19.2 20.36-19.2 11.35.02 20.57 10.12 20.57 22.59z" opacity=".6"/>
      </g>
    </g>
  </switch>
</svg>
