<svg xmlns="http://www.w3.org/2000/svg" id="Calque_1" width="10em" height="10em" viewBox="0 0 233.65 259.32">
  <style>
    .st0,.st1{fill:#1895fd;stroke:#201d1d;stroke-width:3;stroke-linecap:round;stroke-linejoin:round;stroke-miterlimit:10}.st1{fill:#ffc20c}.st2{opacity:.6;fill:#fff}.st3,.st4{fill:none;stroke:#1f3139;stroke-width:3;stroke-linecap:round;stroke-linejoin:round;stroke-miterlimit:10}.st4{fill:#ffc20c}.st6{opacity:.3;fill:#fff}
  </style>
  <switch>
    <g>
      <path d="M228.88 130.33v84.38h-43.97c-3.75-23.9-24.44-42.19-49.39-42.19s-45.64 18.29-49.39 42.19H42.16v-84.38h186.72z" class="st0"/>
      <circle cx="196.07" cy="106.11" r="24.22" class="st1"/>
      <ellipse cx="191.09" cy="106.11" class="st2" rx="19.24" ry="24.22"/>
      <circle cx="196.07" cy="106.11" r="24.22" class="st3"/>
      <path d="M5.45 214.71h130.08v38.28H5.45zM185.52 214.71h43.36v38.28h-43.36z" class="st4"/>
      <path d="M42.16 63.92h66.41v66.41H42.16z" class="st1"/>
      <path fill="#1895fd" stroke="#1f3139" stroke-linecap="round" stroke-linejoin="round" stroke-miterlimit="10" stroke-width="3" d="M108.57 91.27h39.06v39.06h-39.06z"/>
      <path d="M75.37 6.33l16.62 28.8 16.62 28.79H42.12l16.62-28.79z" class="st0"/>
      <path d="M75.37 6.33l16.62 28.8-49.87 28.79h33.25-33.25l16.62-28.79z" class="st6"/>
      <path d="M4.77 214.71h20.05v38.28H4.77zM186.04 214.71h10.03v38.28h-10.03zM42.16 63.92h33.2v66.01h-33.2z" class="st2"/>
      <path d="M5.45 214.71h130.08v38.28H5.45z" class="st3"/>
      <path d="M135.52 130.33v42.19c-24.95 0-45.64 18.29-49.39 42.19H42.16v-84.38h93.36z" class="st6"/>
      <path d="M228.88 130.33v84.38h-43.97c-3.75-23.9-24.44-42.19-49.39-42.19s-45.64 18.29-49.39 42.19H42.16v-84.38h186.72zM185.52 214.71h43.36v38.28h-43.36zM42.16 63.92h66.41v66.41H42.16zM75.37 6.33l16.62 28.8 16.62 28.79H42.12l16.62-28.79z" class="st3"/>
    </g>
  </switch>
</svg>
