<svg xmlns="http://www.w3.org/2000/svg" id="Calque_1" width="10em" height="10em" viewBox="0 0 233.65 259.32">
  <style>
    .st2{opacity:.6;fill:#fff}.st3,.st5{fill:none;stroke:#1f3139;stroke-width:3;stroke-linecap:round;stroke-linejoin:round;stroke-miterlimit:10}.st5{fill:#1895fd}.st6{opacity:.3;fill:#fff}
  </style>
  <switch>
    <g>
      <path fill="#1895fd" stroke="#201d1d" stroke-linecap="round" stroke-linejoin="round" stroke-miterlimit="10" stroke-width="3" d="M225.52 233.35L18.13 25.96C14.02 21.85 7 24.76 7 30.57v207.39c0 3.6 2.92 6.52 6.52 6.52h207.39c5.81 0 8.72-7.02 4.61-11.13zm-85.14-25.32H46.73c-1.63 0-2.95-1.32-2.95-2.94v-93.66c0-2.62 3.17-3.93 5.03-2.08l93.65 93.66c1.86 1.85.54 5.02-2.08 5.02z"/>
      <path d="M43.78 231.48v13M62.98 231.48v13M82.19 231.48v13M101.39 231.48v13M120.59 231.48v13M139.79 231.48v13M159 231.48v13M178.2 231.48v13" class="st3"/>
      <path d="M31.98 39.81v204.67H13.52c-3.6 0-6.52-2.92-6.52-6.52V30.57c0-5.81 7.02-8.72 11.13-4.61l13.85 13.85z" class="st6"/>
      <path d="M7 209.29h13M7 190.09h13M7 170.89h13M7 151.69h13M7 132.48h13M7 113.28h13M7 94.08h13M7 74.88h13M225.52 233.35L31.98 39.81 18.13 25.96C14.02 21.85 7 24.76 7 30.57v207.39c0 3.6 2.92 6.52 6.52 6.52h207.39c5.81 0 8.72-7.02 4.61-11.13zm-85.14-25.32H46.73c-1.63 0-2.95-1.32-2.95-2.94v-93.66c0-2.62 3.17-3.93 5.03-2.08l93.65 93.66c1.86 1.85.54 5.02-2.08 5.02z" class="st3"/>
      <path fill="#ffc20c" stroke="#201d1d" stroke-linecap="round" stroke-linejoin="round" stroke-miterlimit="10" stroke-width="3" d="M183.01 125.61l-16.94 16.93-62.87-62.87 16.93-16.94z"/>
      <path d="M171.13 137.57l-5.02 5.01-62.91-62.91 5.01-5.02z" class="st2"/>
      <path d="M183.01 125.61l-16.94 16.93-62.87-62.87 16.93-16.94z" class="st3"/>
      <path d="M165 133.07h23.95v6.87H165z" class="st5" transform="rotate(-44.984 176.968 136.508)"/>
      <path d="M175.88 142.47l-4.95 4.93-4.86-4.86 4.95-4.93z" class="st6"/>
      <path fill="#ff8089" stroke="#201d1d" stroke-linecap="round" stroke-linejoin="round" stroke-miterlimit="10" stroke-width="3" d="M198.33 142.35l-15.52 15.52a.996.996 0 0 1-1.41 0l-10.47-10.47 16.94-16.93 10.46 10.46c.39.39.39 1.02 0 1.42z"/>
      <path d="M186.38 154.31l-3.56 3.56a.996.996 0 0 1-1.41 0l-10.47-10.47 4.98-4.97 10.46 10.46c.39.39.39 1.02 0 1.42z" class="st2"/>
      <path fill="none" stroke="#201d1d" stroke-linecap="round" stroke-linejoin="round" stroke-miterlimit="10" stroke-width="3" d="M169.87 112.47v-.01"/>
      <path d="M107.17 58.39l-8.32 8.32-4.19-12.51z" class="st5"/>
      <path fill="#ffedc0" stroke="#1f3139" stroke-linecap="round" stroke-linejoin="round" stroke-miterlimit="10" stroke-width="3" d="M120.13 62.73L103.2 79.67l-4.35-12.96 8.32-8.32z"/>
      <path d="M165 133.07h23.95v6.87H165z" class="st3" transform="rotate(-44.984 176.968 136.508)"/>
      <path d="M198.33 142.35l-15.52 15.52a.996.996 0 0 1-1.41 0l-10.47-10.47 16.94-16.93 10.46 10.46c.39.39.39 1.02 0 1.42z" class="st3"/>
    </g>
  </switch>
</svg>
