<?xml version="1.0" encoding="utf-8"?>
<!-- Generator: Adobe Illustrator 23.0.2, SVG Export Plug-In . SVG Version: 6.00 Build 0)  -->
<svg version="1.1" id="Calque_1" xmlns="http://www.w3.org/2000/svg" xmlns:xlink="http://www.w3.org/1999/xlink" x="0px" y="0px"
	 width="180px" height="75.9px" viewBox="0 0 180 75.9" style="enable-background:new 0 0 180 75.9;" xml:space="preserve">
<style type="text/css">
	.st0{fill:none;stroke:#FFFFFF;stroke-width:1.5;stroke-miterlimit:10;}
	.st1{fill:#0099FF;}
	.st2{fill:#FFFFFF;}
</style>
<g>
	<path class="st0" d="M73.2,25.1C68,10.9,54.3,0.8,38.3,0.8h-0.4C17.4,0.8,0.8,17.4,0.8,37.9V38c0,20.5,16.6,37.2,37.1,37.2h0.4
		c16,0,29.7-10.2,34.9-24.3"/>
	<path class="st0" d="M75.1,51L75.1,51C67.8,51,62,45.2,62,38l0,0c0-7.2,5.8-13,13-13h0.2c7.2,0,13,5.8,13,13l0,0
		C88.1,45.1,82.3,51,75.1,51z"/>
	<ellipse class="st1" cx="75.1" cy="38" rx="8.1" ry="8.1"/>
	<g>
		<path class="st2" d="M93.2,23.6c0-1.3,1-2.3,2.3-2.3h10.1c2.2,0,4.2,0.4,6.2,1.3c1.9,0.9,3.6,2.1,5,3.5c1.4,1.5,2.6,3.2,3.4,5.1
			c0.8,2,1.2,4,1.2,6.1s-0.4,4.1-1.2,6.1c-0.8,2-1.9,3.7-3.4,5.2c-1.4,1.5-3.1,2.7-5,3.6c-1.9,0.9-4,1.3-6.2,1.3H95.5
			c-1.3,0-2.3-1-2.3-2.3V23.6z M101.6,46.5h1.9c1.5,0,2.7-0.2,3.9-0.7c1.1-0.5,2.1-1.1,2.9-1.9c0.8-0.8,1.4-1.7,1.8-2.8
			s0.6-2.3,0.6-3.6s-0.2-2.5-0.6-3.6s-1-2.1-1.8-2.9s-1.7-1.4-2.9-1.9c-1.1-0.5-2.4-0.7-3.8-0.7h-1.9L101.6,46.5L101.6,46.5z"/>
		<path class="st2" d="M132.9,21.4c1.3,0,2.3,1,2.3,2.3V39c0,0.9,0,1.9,0.1,2.9s0.3,1.9,0.6,2.7c0.4,0.8,0.9,1.4,1.7,1.9
			s1.8,0.7,3.2,0.7s2.5-0.2,3.2-0.7c0.8-0.5,1.3-1.1,1.7-1.9c0.4-0.8,0.6-1.7,0.7-2.7c0.1-1,0.1-1.9,0.1-2.9V23.6
			c0-1.3,1-2.3,2.3-2.3h3.8c1.3,0,2.3,1,2.3,2.3V40c0,5-1.1,8.7-3.4,11c-2.3,2.3-5.8,3.5-10.6,3.5s-8.3-1.2-10.6-3.5s-3.5-6-3.5-11
			V23.6c0-1.3,1-2.3,2.3-2.3L132.9,21.4L132.9,21.4z"/>
		<path class="st2" d="M170,23.6v22.9h7.6c1.3,0,2.4,1.1,2.4,2.4v4.7h-18.4v-30c0-1.3,1-2.3,2.3-2.3h3.8
			C168.9,21.4,170,22.4,170,23.6z"/>
	</g>
	<path class="st2" d="M48.3,21.8L48.3,21.8c-2.2,0-4.3,1.4-5,3.5L38.1,39L33,25.3c-0.8-2.1-2.8-3.5-5-3.5l0,0
		c-2.6,0-4.9,1.9-5.3,4.5L18,54.1h6.4c1.1,0,2.1-0.8,2.3-1.9L29,35.5l4.3,11.1c0.7,1.9,2.6,3.2,4.7,3.2l0,0c2,0,3.9-1.2,4.6-3.1
		l4.6-11.2l2.5,16.6c0.2,1.1,1.1,1.9,2.3,1.9h6.4l-4.7-27.8C53.1,23.7,50.9,21.8,48.3,21.8z"/>
</g>
</svg>
