<svg version="1.1" xmlns="http://www.w3.org/2000/svg" xmlns:xlink="http://www.w3.org/1999/xlink" viewBox="0 0 375.6 70.8" enable-background="new 0 0 375.6 70.8" xml:space="preserve">
    <g enable-background="new    ">
        <path fill="#FFFFFF" d="M50.5,69.8h-6V29.2v-3.6c-0.2,0.4-0.4,1-0.8,1.8c-0.4,0.8-0.6,1.4-0.8,1.8L24.6,70.8L7.3,29.2
            c-0.1-0.3-0.3-0.9-0.7-1.6c-0.3-0.7-0.6-1.3-0.7-1.7v3.3v40.6H0V10.1h5.1l18.5,43.2c0.2,0.3,0.4,0.9,0.7,1.6
            c0.3,0.7,0.6,1.3,0.7,1.7c0.2-0.4,0.4-1,0.7-1.7c0.3-0.7,0.6-1.3,0.7-1.6l18.8-43.2h5.2V69.8z"/>
        <path fill="#FFFFFF" d="M101.9,68.2c-3.3,1.8-7.2,2.7-11.6,2.7c-4.4,0-8.3-0.9-11.6-2.7c-3.3-1.8-5.9-4.2-7.7-7.3
            c-1.9-3-3.2-6.3-4.1-9.8c-0.9-3.5-1.3-7.2-1.3-11.1s0.4-7.6,1.3-11.1c0.9-3.5,2.2-6.8,4.1-9.8c1.8-3,4.4-5.5,7.7-7.3
            C81.9,9.9,85.8,9,90.2,9c4.4,0,8.3,0.9,11.6,2.7c3.3,1.8,5.9,4.2,7.7,7.3c1.8,3,3.2,6.3,4.1,9.8c0.9,3.5,1.3,7.2,1.3,11.1
            s-0.4,7.6-1.3,11.1c-0.9,3.5-2.2,6.8-4.1,9.8C107.7,63.9,105.2,66.4,101.9,68.2z M90.2,65.5c3.3,0,6.2-0.8,8.7-2.3
            c2.5-1.5,4.4-3.5,5.8-6.1c1.4-2.5,2.4-5.3,3.1-8.2c0.7-2.9,1-5.9,1-9c0-4.6-0.6-8.8-1.7-12.4c-1.1-3.7-3.1-6.8-6-9.3
            c-2.9-2.5-6.5-3.8-10.9-3.8c-3.3,0-6.2,0.8-8.7,2.3c-2.5,1.5-4.4,3.5-5.8,6.1c-1.4,2.5-2.4,5.3-3.1,8.2c-0.7,2.9-1,5.9-1,9
            c0,4.6,0.6,8.8,1.7,12.4c1.1,3.7,3.1,6.8,6,9.3C82.2,64.2,85.9,65.5,90.2,65.5z"/>
        <path fill="#FFFFFF" d="M129.9,10.1h15.9c4.8,0,9.1,0.9,12.7,2.6c3.6,1.7,6.5,4,8.5,6.9c2,2.9,3.5,6.1,4.4,9.5
            c1,3.4,1.5,7.1,1.5,10.9c0,2.9-0.3,5.7-0.8,8.4c-0.5,2.7-1.4,5.4-2.7,8c-1.3,2.6-3,5-5,6.9c-2,2-4.6,3.5-7.9,4.7
            c-3.2,1.2-6.9,1.8-11.1,1.8h-15.5V10.1z M145.9,64.4c3.8,0,7.1-0.7,9.9-2.1c2.8-1.4,5-3.4,6.5-5.8c1.5-2.4,2.6-5,3.3-7.8
            c0.7-2.7,1-5.7,1-8.8c0-6.8-1.7-12.6-5-17.4c-3.3-4.8-8.3-7.1-14.9-7.1h-10.9v49H145.9z"/>
        <path fill="#FFFFFF" d="M207.9,70.8c-13.7,0-20.5-7.7-20.5-23.2V10.1h6v37.6c0,11.9,4.8,17.8,14.5,17.8c9.7,0,14.5-5.9,14.5-17.8
            V10.1h6v37.6C228.4,63.1,221.6,70.8,207.9,70.8z"/>
        <path fill="#FFFFFF" d="M245.9,69.8V10.1h6v54h29.6v5.7H245.9z"/>
    </g>
    <g>
        <rect x="326.7" y="28.1" fill="#FFC20C" stroke="#FFFFFF" stroke-width="2" stroke-miterlimit="10" width="20.9" height="20.9"/>
        <rect x="305.7" y="28.1" fill="#1895FD" stroke="#FFFFFF" stroke-width="2" stroke-miterlimit="10" width="20.9" height="20.9"/>
        <rect x="305.7" y="7.2" fill="#1895FD" stroke="#FFFFFF" stroke-width="2" stroke-miterlimit="10" width="20.9" height="20.9"/>
        <rect x="305.7" y="48.9" fill="#1895FD" stroke="#FFFFFF" stroke-width="2" stroke-miterlimit="10" width="20.9" height="20.9"/>
        <rect x="326.7" y="48.9" fill="#1895FD" stroke="#FFFFFF" stroke-width="2" stroke-miterlimit="10" width="20.9" height="20.9"/>
        <rect x="347.5" y="28.1" fill="#FFC20C" stroke="#FFFFFF" stroke-width="2" stroke-miterlimit="10" width="20.9" height="20.9"/>
        <rect x="347.5" y="48.9" fill="#FFC20C" stroke="#FFFFFF" stroke-width="2" stroke-miterlimit="10" width="20.9" height="20.9"/>
        <rect x="326.7" y="7.2" fill="#FFC20C" stroke="#FFFFFF" stroke-width="2" stroke-miterlimit="10" width="20.9" height="20.9"/>
        <rect x="353.7" y="1" fill="#E11B22" stroke="#FFFFFF" stroke-width="2" stroke-miterlimit="10" width="20.9" height="20.9"/>
    </g>
</svg>
