
<svg id="m-svg__message-error-conflict"
     xmlns="http://www.w3.org/2000/svg"
     viewBox="0 0 150 148.4">
    <polygon fill="#F39612" stroke="#000000" stroke-width="3" stroke-linecap="round" stroke-linejoin="round" stroke-miterlimit="10" points="
    103.9,110.1 95.7,85.3 74.7,85.3 99,35.3 100.2,32.7 133.6,48.9 		"/>
    <polygon fill="#FFC103" points="116.3,42 96.1,85.2 74.7,85.1 99.2,33.4 			"/>
    <g stroke="#000000" stroke-width="3" stroke-linecap="round" stroke-linejoin="round" stroke-miterlimit="10" >
        <polygon fill="#1895FD" points="
        100.3,32.7 104.9,23.1 138.2,39.3 133.6,48.9 		"/>
        <path fill="#EF7382" d="
        M148.4,18.4l-10.2,21L105,23.2l10.2-21c0.2-0.6,0.9-0.8,1.5-0.6l31.1,15.2C148.4,17.1,148.6,17.8,148.4,18.4z"/>
        <polygon fill="none" points="
        103.9,110.1 95.7,85.3 74.7,85.3 100.2,32.7 133.6,48.9 		"/>
        <polygon fill="#F39612" points="
        88,103.4 79.6,128 43.1,146.5 26.4,113.4 71.2,90.7 	"/>
    </g>
    <polygon fill="#FFC103" points="87.6,103.4 63.4,115.4 35.4,129.4 26.1,111.8 58.7,95.8 70,90.2 		"/>
    <g stroke="#000000" stroke-width="3" stroke-linecap="round" stroke-linejoin="round" stroke-miterlimit="10" >
        <polygon fill="#3D3D3D" points="
        22,146.8 1.5,146.9 13.7,130.5 	"/>
        <polygon fill="#FFFBD4" points="
        43.1,146.5 22,146.8 13.7,130.5 26.4,113.4 	"/>
        <polygon fill="none" points="
        88,103.4 79.6,128 43.1,146.5 26.4,113.4 29,112.1 60.3,96.2 71.2,90.7 	"/>
        <line fill="none" x1="102.5" y1="122.4" x2="112.1" y2="133.4"/>
        <line fill="none" x1="106.9" y1="118.4" x2="115.6" y2="122.2"/>
        <line fill="none" x1="96.9" y1="125.5" x2="98.9" y2="133.6"/>
    </g>
</svg>
