<svg id="m-svg__message-error-missing-resources"
    xmlns="http://www.w3.org/2000/svg"
    viewBox="0 0 150 116.5" >
    <g stroke-width="2" stroke-miterlimit="10">
        <g stroke="#000000" stroke-linecap="round" stroke-linejoin="round">
            <path fill="#FFC103" d="M65.6,115.5H9.1c-4.5,0-8.1-3.7-8.1-8.1V67.6h64.6V115.5z"/>
            <path fill="#E30513" d="M130.2,67.6v43.8c0,2.2-1.8,4.1-4.1,4.1H65.6V97.4c-0.6,0.2-1.3,0.3-2,0.3c-4,0-7.1-3.2-7.1-7.1s3.2-7.1,7.1-7.1
                c0.7,0,1.4,0.1,2,0.3V67.6h25.7c-0.2-0.6-0.3-1.3-0.3-2c0-4,3.2-7.1,7.1-7.1s7.1,3.2,7.1,7.1c0,0.7-0.1,1.4-0.3,2H130.2z"/>
            <path fill="#1895FD" d="
                M56.4,43.7c0,4,3.2,7.1,7.1,7.1c0.7,0,1.4-0.1,2-0.3v17.1H40.4c0.2,0.6,0.3,1.3,0.3,2c0,4-3.2,7.1-7.1,7.1s-7.1-3.2-7.1-7.1
                c0-0.7,0.1-1.4,0.3-2H1V23.9c0-2.2,1.8-4.1,4.1-4.1h60.5v17.1c-0.6-0.2-1.3-0.3-2-0.3C59.7,36.6,56.4,39.9,56.4,43.7z"/>
        </g>
        <path fill="#FFFFFF" stroke="#C1C1C1"  d="M149,5.1v43.8h-25.2c0.2-0.6,0.3-1.3,0.3-2
            c0-4-3.2-7.1-7.1-7.1s-7.1,3.2-7.1,7.1c0,0.7,0.1,1.4,0.3,2H84.4V31.7c-0.6,0.2-1.3,0.3-2,0.3c-4,0-7.1-3.2-7.1-7.1
            s3.2-7.1,7.1-7.1c0.7,0,1.4,0.1,2,0.3V1h60.5C147.2,1,149,2.8,149,5.1z"/>
    </g>
    <path fill="#C1C1C1" d="M118.4,16.6c0-1.3-0.8-2.4-2.4-2.4c-1.1,0-2.1,0.5-2.9,1.5l-1.2-1.1c1-1.2,2.4-2.1,4.2-2.1
        c2.6,0,4.3,1.5,4.3,4c0,3.3-4,4.6-3.6,8.1H115C114.4,20.6,118.4,19.2,118.4,16.6z M115.9,26.6c0.8,0,1.5,0.7,1.5,1.6
        c0,0.9-0.7,1.6-1.5,1.6c-0.8,0-1.5-0.7-1.5-1.6C114.5,27.3,115.1,26.6,115.9,26.6z"/>
</svg>
