<svg id="m-svg__arrow-head-circle--right" xmlns="http://www.w3.org/2000/svg" viewBox="-1 -1 26 26">
    <path fill="currentColor" d="M12 0c-6.617 0-12 5.383-12 12s5.383 12 12 12 12-5.383 12-12-5.383-12-12-12zM12 23c-6.065 0-11-4.935-11-11s4.935-11 11-11 11 4.935 11 11-4.935 11-11 11z"/>
    <path fill="currentColor" d="M17.724 11.553l-9-4.5c-0.155-0.077-0.339-0.070-0.487 0.021-0.147 0.092-0.237 0.253-0.237 0.426v9c0 0.173 0.090 0.334 0.237 0.426 0.080 0.049 0.172 0.074 0.263 0.074 0.077 0 0.153-0.018 0.224-0.053l9-4.5c0.169-0.085 0.276-0.258 0.276-0.447s-0.107-0.362-0.276-0.447zM9 15.691v-7.382l7.382 3.691-7.382 3.691z"/>
</svg>
