<svg id="m-svg__attachment" xmlns="http://www.w3.org/2000/svg" viewBox="-1 -1 26 26">
    <g fill="none" stroke="currentColor" stroke-width="0.9326" stroke-linecap="round" stroke-linejoin="round" stroke-miterlimit="10">
        <path d="
            M11,17.1l8.8-8.8c0.9-0.9,0.9-2.3,0-3.2l0,0c-0.9-0.9-2.3-0.9-3.2,0l-8.8,8.8"/>
        <path d="
            M14.1,4.2L1.5,16.7c-1.4,1.4-1.4,3.6,0,4.9l0,0c1.4,1.4,3.6,1.4,4.9,0L19,9.1"/>
        <path d="
            M12.7,18.8l9.5-9.5c1.8-1.8,1.8-4.8,0-6.6l0,0c-1.8-1.8-4.8-1.8-6.6,0L2.4,15.9"/>
    </g>
</svg>
