<svg id="m-svg__avatar" xmlns="http://www.w3.org/2000/svg" viewBox="-1 -1 26 26">
    <path fill="currentColor" d="M1.9,24h20c0.1-0.1-1.6-3.7-1.6-3.7l0,0c-0.6-1.3-1.1-1.7-1.7-2l-3.9-1.7v-2.1c1-0.9,1.6-2.3,1.7-3.7
    c0.3-0.2,0.5-0.5,0.5-0.9V8.6c0-0.4-0.2-0.7-0.4-0.9c0-0.2,0-0.4,0-0.6c0-2-1.2-3.6-2.9-3.6c-0.1,0-0.2,0-0.3,0.1
    C12.6,3.2,11.9,3,11,3C8.8,3,7,4.6,7,6.6C7,7,7.1,7.3,7.2,7.7C7.1,8,7,8.3,7,8.6V10c0,0.4,0.2,0.7,0.5,0.9c0.1,1.5,0.7,2.8,1.7,3.7
    v2.1l-3.8,1.7c0,0-1.1,0.4-1.7,1.8C3.7,20.3,1.9,24,1.9,24z"/>
</svg>
