<svg id="m-svg__calendar" xmlns="http://www.w3.org/2000/svg" viewBox="-1 -1 26 26">
    <g fill="none" stroke="currentColor" stroke-linecap="round" stroke-linejoin="round" stroke-miterlimit="2.0308" >
		<line x1="16.8" y1="10.1" x2="19.7" y2="10.1"/>
		<line x1="10.5" y1="10.1" x2="13.5" y2="10.1"/>
		<line x1="4.3" y1="10.1" x2="7.2" y2="10.1"/>
		<line x1="16.8" y1="14.1" x2="19.7" y2="14.1"/>
		<line x1="10.5" y1="14.1" x2="13.5" y2="14.1"/>
		<line x1="4.3" y1="14.1" x2="7.2" y2="14.1"/>
		<line x1="16.8" y1="18.2" x2="19.7" y2="18.2"/>
		<line x1="10.5" y1="18.2" x2="13.5" y2="18.2"/>
		<line x1="4.3" y1="18.2" x2="7.2" y2="18.2"/>
		<line x1="0.5" y1="6.2" x2="23.5" y2="6.2"/>
		<path d="M1.5,1.9 c-0.6,0-1,0.4-1,1v18.2c0,0.6,0.4,1,1,1h21c0.6,0,1-0.4,1-1V2.9c0-0.6-0.4-1-1-1C22.5,1.9,1.5,1.9,1.5,1.9z"/>
	</g>
</svg>
