<svg id="m-svg__calendar" xmlns="http://www.w3.org/2000/svg" viewBox="-1 -1 26 26">
    <g fill="none" stroke="currentColor" stroke-linecap="round" stroke-linejoin="round">
        <polygon points="23.5,2.9 23.5,23.5 0.5,23.5
            0.5,2.9 5.6,2.9 5.6,5.3 8.5,5.3 8.5,2.9 15.5,2.9 15.5,5.3 18.4,5.3 18.4,2.9 	"/>
        <polygon points="23.5,2.9 23.5,8.2 0.5,8.2 0.5,2.9
            5.6,2.9 5.6,5.3 8.5,5.3 8.5,2.9 15.5,2.9 15.5,5.3 18.4,5.3 18.4,2.9 	"/>
        <rect x="5.6" y="0.5" width="2.9" height="4.8"/>
        <rect x="15.5" y="0.5" width="2.9" height="4.8"/>
        <line x1="4.2" y1="11.8" x2="6.4" y2="11.8"/>
        <line x1="8.7" y1="11.8" x2="10.9" y2="11.8"/>
        <line x1="13.1" y1="11.8" x2="15.3" y2="11.8"/>
        <line x1="17.6" y1="11.8" x2="19.8" y2="11.8"/>
        <line x1="4.2" y1="15.5" x2="6.4" y2="15.5"/>
        <line x1="8.7" y1="15.5" x2="10.9" y2="15.5"/>
        <line x1="13.1" y1="15.5" x2="15.3" y2="15.5"/>
        <line x1="17.6" y1="15.5" x2="19.8" y2="15.5"/>
        <line x1="4.2" y1="19.2" x2="6.4" y2="19.2"/>
        <line x1="8.7" y1="19.2" x2="10.9" y2="19.2"/>
        <line x1="13.1" y1="19.2" x2="15.3" y2="19.2"/>
        <line x1="17.6" y1="19.2" x2="19.8" y2="19.2"/>
    </g>
</svg>
