<svg id="m-svg__dragndrop" xmlns="http://www.w3.org/2000/svg" viewBox="-1 -1 26 26">
    <path fill="none" stroke="currentColor" stroke-linejoin="round" d="M14.6,17.6v-7.3c0-0.6,0.5-1.1,1.1-1.1
        c0.6,0,1.1,0.5,1.1,1.1v2.1h1.5c0.4,0,0.7,0.3,0.7,0.7h1.5c0.4,0,0.7,0.3,0.7,0.7h1.1c0.6,0,1.1,0.5,1.1,1.1v2.3
        c0,0.7,0,1.6-0.2,2.3l-1.2,3.6c-0.1,0.2-0.3,0.4-0.5,0.4l-6,0c-0.2,0-0.3-0.1-0.4-0.2c-1.2-1.7-3.4-6.1-3.4-6.1
        c-0.2-0.4-0.2-0.8,0.1-1.1c0.3-0.3,0.8-0.3,1.2,0L14.6,17.6z"/>
    <g fill="none" stroke="currentColor" stroke-linecap="round" stroke-linejoin="round">
        <g stroke-miterlimit="10">
            <line x1="19" y1="13.2" x2="19" y2="14.7"/>
            <line x1="16.8" y1="12.1" x2="16.8" y2="14.7"/>
            <line x1="21.2" y1="13.9" x2="21.2" y2="15.4"/>
        </g>
        <line x1="10" y1="17.5" x2="9.8" y2="17.5"/>
        <line stroke-dasharray="0.47,1.8802" x1="7.9" y1="17.5" x2="1.8" y2="17.5"/>
        <polyline points="0.8,17.5 0.6,17.5 0.6,17.2
            "/>
        <line stroke-dasharray="0.4836,1.9344" x1="0.6" y1="15.3" x2="0.6" y2="1.7"/>
        <polyline points="0.6,0.8 0.6,0.5 0.8,0.5 			"/>
        <line stroke-dasharray="0.4836,1.9344" x1="2.8" y1="0.5" x2="16.3" y2="0.5"/>
        <polyline points="17.3,0.5 17.5,0.5 17.5,0.8
            "/>
        <line stroke-dasharray="0.4862,1.945" x1="17.5" y1="2.7" x2="17.5" y2="6.6"/>
        <line x1="17.5" y1="7.6" x2="17.5" y2="7.8"/>
    </g>
</svg>
