<svg id="m-svg__email-send" xmlns="http://www.w3.org/2000/svg" viewBox="-1 -1 26 26">
    <path fill="currentColor" d="M17.249 24.002c-3.722 0-6.75-3.028-6.75-6.75s3.028-6.75 6.75-6.75 6.75 3.028 6.75 6.75-3.028 6.75-6.75 6.75zm0-12c-2.895 0-5.25 2.355-5.25 5.25s2.355 5.25 5.25 5.25 5.25-2.355 5.25-5.25-2.355-5.25-5.25-5.25z"/>
    <path fill="currentColor" d="M17.999 20.252a.752.752 0 0 1-.53-1.281l.97-.97H14.25a.75.75 0 0 1 0-1.5h4.189l-.97-.97a.752.752 0 0 1 .53-1.281c.2 0 .389.078.53.22l2.25 2.25a.74.74 0 0 1 .163.245l.01.026a.73.73 0 0 1 .001.517l-.006.017a.748.748 0 0 1-.167.256l-2.25 2.25a.744.744 0 0 1-.531.221zM2.249 16.502a2.252 2.252 0 0 1-2.25-2.25v-12c0-.497.161-.969.465-1.366A.74.74 0 0 1 .569.759a2.25 2.25 0 0 1 1.68-.758h18c.669 0 1.297.295 1.727.809l.026.03.024.034c.31.399.473.874.473 1.377V9a.75.75 0 0 1-1.5 0V2.562L13.723 8.16a4.081 4.081 0 0 1-2.474.841 4.08 4.08 0 0 1-2.474-.841L1.499 2.562v11.689c0 .414.336.75.75.75h6a.75.75 0 0 1 0 1.5h-6zm7.44-9.531c.444.342.998.53 1.559.53s1.115-.188 1.559-.53l7.109-5.47H2.58l7.109 5.47z"/>
</svg>
