<svg id="m-svg__file-word" xmlns="http://www.w3.org/2000/svg" viewBox="-1 -1 26 26" data-badge-origin="21.68,23.5">
    <g fill="none" stroke="#004A94" stroke-linejoin="round" stroke-miterlimit="10">
        <path d="M4.7,1.8V1c0-0.3,0.2-0.5,0.5-0.5h11.5v5 h5V23c0,0.3-0.2,0.5-0.5,0.5h-16c-0.3,0-0.5-0.2-0.5-0.5v-9.2"/>
        <polygon points="16.7,0.5 16.7,5.5 21.7,5.5"/>
        <g stroke-linecap="round" >
            <line x1="17.9" y1="11.3" x2="14.1" y2="11.3"/>
            <line x1="17.9" y1="14.3" x2="8.9" y2="14.3"/>
            <line x1="17.9" y1="17.3" x2="8.9" y2="17.3"/>
            <line x1="17.9" y1="20.3" x2="8.9" y2="20.3"/>
        </g>
    </g>
    <path fill="#004A94" d="M12.2,2.5H3c-0.4,0-0.7,0.3-0.7,0.7v9.2C2.3,12.7,2.6,13,3,13h9.2c0.4,0,0.7-0.3,0.7-0.7V3.2
        C12.8,2.8,12.5,2.5,12.2,2.5z M11.1,5.4l-1.5,5c-0.1,0.2-0.3,0.3-0.5,0.3c-0.2,0-0.4-0.1-0.5-0.3l-1-3.4l-1,3.4
        c-0.1,0.2-0.3,0.3-0.5,0.3c-0.2,0-0.4-0.1-0.5-0.3L4,5.4C4,5.1,4.1,4.8,4.4,4.8C4.6,4.7,4.9,4.8,5,5.1l1,3.4l1.1-3.4
        c0.1-0.2,0.3-0.4,0.5-0.4C7.8,4.7,8,4.9,8,5.1l1,3.4l1.1-3.4c0.1-0.3,0.4-0.4,0.6-0.3C11,4.8,11.2,5.1,11.1,5.4z"/>
</svg>
