<svg id="m-svg__file-access" xmlns="http://www.w3.org/2000/svg" viewBox="-1 -1 26 26" data-badge-origin="21.68,23.5">
    <g fill="none" stroke="#C11E60" stroke-linejoin="round" stroke-miterlimit="10">
        <path d="M4.7,1.7V1c0-0.3,0.2-0.5,0.5-0.5h11.5v5h5
            V23c0,0.3-0.2,0.5-0.5,0.5h-16c-0.3,0-0.5-0.2-0.5-0.5v-9.2"/>
        <polygon points="16.7,0.5 16.7,5.5 21.7,5.5 		"/>
        <g stroke-linecap="round">
            <path d="M18.2,15.2
                c0,0.7-1.3,1.3-3,1.3c-1.6,0-2.9-0.6-2.9-1.2c0-0.7,1.3-1.2,2.9-1.2C16.8,14,18.2,14.5,18.2,15.2z"/>
            <path d="M12.2,15.2v4
                c0,0.7,1.3,1.2,2.9,1.2c1.6,0,3-0.6,3-1.3v-4"/>
            <line x1="8" y1="14.8" x2="10.1" y2="14.8"/>
            <line x1="8" y1="17.2" x2="10.1" y2="17.2"/>
            <line x1="8" y1="19.6" x2="10.1" y2="19.6"/>
        </g>
    </g>
    <path fill="#C11E60" d="M7.6,5.9l-1.2,3h2.4L7.6,5.9z M7.6,5.9l-1.2,3h2.4L7.6,5.9z M12.2,2.5H3c-0.4,0-0.7,0.3-0.7,0.7v9.2
            C2.3,12.7,2.6,13,3,13h9.2c0.4,0,0.7-0.3,0.7-0.7V3.1C12.8,2.8,12.5,2.5,12.2,2.5z M10.2,11.4c-0.3,0.1-0.5,0-0.6-0.3L9.1,9.9H6
            l-0.4,1.1c-0.1,0.2-0.3,0.3-0.5,0.3c-0.1,0-0.1,0-0.2,0c-0.3-0.1-0.4-0.4-0.3-0.6l0.5-1.4c0-0.1,0-0.1,0.1-0.2l1.9-4.8
            C7.3,4,7.9,4,8,4.4l1.9,4.9c0,0,0,0.1,0,0.1l0.5,1.4C10.6,11,10.5,11.3,10.2,11.4z M6.4,8.9h2.4l-1.2-3L6.4,8.9z M7.6,5.9l-1.2,3
            h2.4L7.6,5.9z"/>
</svg>
