<svg id="m-svg__file-realplayer" xmlns="http://www.w3.org/2000/svg" viewBox="-1 -1 26 26" data-badge-origin="24.5,20">
    <g fill="none" stroke="currentColor" stroke-miterlimit="10" >
        <path stroke-linecap="round" stroke-linejoin="round" d="M23.5,10.7
            c0,2.8-2.1,5.3-5.2,6.7l-1.4,4.3l-3.3-3.1c-0.5,0-1,0.1-1.5,0.1c-6.3,0-11.5-3.6-11.5-8c0-4.4,5.2-8,11.5-8
            C18.4,2.7,23.5,6.3,23.5,10.7z"/>
        <path d="M17.6,7l-0.8,2.8c0,0-2.8-1.5-4.3,1.4l-1,3.4H7.2l2.5-8.5h4.2
            l-0.5,1.5C14.2,7.1,15.7,5.7,17.6,7z"/>
    </g>
</svg>
