<svg id="m-svg__file-flash" xmlns="http://www.w3.org/2000/svg" viewBox="-1 -1 26 26" data-badge-origin="23.5,23.5">
    <g fill="none" stroke="currentColor" stroke-linecap="round" stroke-linejoin="round" stroke-miterlimit="10">
        <path d="M23,23.5H1
            c-0.3,0-0.5-0.2-0.5-0.5V1c0-0.3,0.2-0.5,0.5-0.5h22c0.3,0,0.5,0.2,0.5,0.5v22C23.5,23.3,23.3,23.5,23,23.5z"/>
        <path d="M5.1,20v-3.1
            c0,0,3.4,0.6,5.2-5.1c0,0,2-8.4,8.6-7.8v3c0,0-2.8-0.5-4.3,3.2h2.7v3.3h-3.9C13.4,13.4,10.9,20.4,5.1,20z"/>
    </g>
</svg>
