<svg id="m-svg__file-powerpoint" xmlns="http://www.w3.org/2000/svg" viewBox="-1 -1 26 26" data-badge-origin="21.68,23.5">
    <g fill="none" stroke="#FF671B" stroke-linejoin="round" stroke-miterlimit="10">
        <path d="M4.7,1.8V1c0-0.3,0.2-0.5,0.5-0.5h11.5v5
            h5V23c0,0.3-0.2,0.5-0.5,0.5h-16c-0.3,0-0.5-0.2-0.5-0.5v-9.2"/>
        <polygon points="16.7,0.5 16.7,5.5 21.7,5.5
            "/>
        <g stroke-linecap="round">
            <line x1="8" y1="14.8" x2="10.1" y2="14.8"/>
            <line x1="8" y1="17.2" x2="10.1" y2="17.2"/>
            <line x1="8" y1="19.6" x2="10.1" y2="19.6"/>
            <circle cx="15.2" cy="17.1" r="3"/>
            <polyline points="16.4,14.3
                15.2,17.1 12.7,18.7 	"/>
        </g>
    </g>
    <g fill="#FF671B" >
        <path d="M8.8,6.4c0,0.3-0.1,1.2-1.5,1.2H6.4V5.2h0.9C8.7,5.2,8.8,6.1,8.8,6.4z"/>
        <path d="M12.2,2.5H3c-0.4,0-0.7,0.3-0.7,0.7v9.2C2.3,12.7,2.6,13,3,13h9.2c0.4,0,0.7-0.3,0.7-0.7V3.2
            C12.8,2.8,12.5,2.5,12.2,2.5z M7.3,8.8H6.4v2c0,0.3-0.3,0.6-0.6,0.6s-0.6-0.3-0.6-0.6V4.6C5.2,4.3,5.4,4,5.8,4h1.5
            C9.1,4,10,5.3,10,6.4C10,7.6,9.1,8.8,7.3,8.8z"/>
    </g>
</svg>
