<svg id="m-svg__file-pdf" xmlns="http://www.w3.org/2000/svg" viewBox="-1 -1 26 26" data-badge-origin="20.5,23.5">
    <g fill="none" stroke="#FB3449" stroke-linecap="round" stroke-linejoin="round">
        <path stroke-miterlimit="10" d="M20.5,5.5V23
            c0,0.3-0.2,0.5-0.5,0.5H4c-0.3,0-0.5-0.2-0.5-0.5V1c0-0.3,0.2-0.5,0.5-0.5h11.5v5H20.5z"/>
        <polygon stroke-miterlimit="10" points="15.5,0.5
            15.5,5.5 20.5,5.5 		"/>

        <path stroke-miterlimit="10" d="M7.5,6.1
            c-0.7-1.1,1-2.2,1.4-1c0.7,2,1.9,7.5-0.8,11.2c-0.8,1-2.4,0.1-1.5-1c1.4-1.7,5.2-4.9,10.2-4.7c1.4,0.1,1.3,2,0.1,1.8
            C15,12.1,10.6,11.1,7.5,6.1z"/>
    </g>
    <rect x="3.4" y="19.8" fill="#FB3449" width="17" height="3.8"/>
    <path fill="#FFFFFF" d="M14.3,21.1L14.3,21.1C14.3,21.1,14.3,21.1,14.3,21.1C14.3,21.1,14.3,21.1,14.3,21.1z"/>
</svg>
