<svg id="m-svg__file-mediaplayer" xmlns="http://www.w3.org/2000/svg" viewBox="-1 -1 26 26" data-badge-origin="22.5,23.5">
    <g fill="none" stroke="currentColor" stroke-miterlimit="10">
        <path d="M1,2.8h17.5c0.3,0,0.5,0.2,0.5,0.5v17.5c0,0.3-0.2,0.5-0.5,0.5H1
            c-0.3,0-0.5-0.2-0.5-0.5V3.3C0.5,3,0.7,2.8,1,2.8z"/>
        <path d="M20.1,4.4h0.7c0.3,0,0.5,0.2,0.5,0.5v14.3c0,0.3-0.2,0.5-0.5,0.5
            h-0.7"/>
        <path d="M22.5,6H23c0.3,0,0.5,0.2,0.5,0.5v11c0,0.3-0.2,0.5-0.5,0.5h-0.5"/>
        <polygon stroke-linecap="round" stroke-linejoin="round" points="8.1,8.8
            13,12 8.1,15.2 			"/>
        <circle stroke-linejoin="round" cx="9.7" cy="12" r="5.6"/>
    </g>
</svg>
