<svg id="m-svg__file-visio" xmlns="http://www.w3.org/2000/svg" viewBox="-1 -1 26 26" data-badge-origin="21.68,23.5">
    <g fill="none" stroke="#004A94" stroke-linejoin="round" stroke-miterlimit="10">
        <path d="M4.7,1.8V1c0-0.3,0.2-0.5,0.5-0.5h11.5v5
            h5V23c0,0.3-0.2,0.5-0.5,0.5h-16c-0.3,0-0.5-0.2-0.5-0.5v-9.2"/>
        <polygon points="16.7,0.5 16.7,5.5 21.7,5.5
            "/>
        <rect x="7.8" y="17.1" transform="matrix(0.7071 0.7071 -0.7071 0.7071 15.9384 -1.1572)" width="3.1" height="3.1"/>
        <rect x="15.9" y="10.1" width="3.1" height="3.1"/>
    </g>
    <g fill="#004A94">
        <path d="M12.2,2.5H3c-0.4,0-0.7,0.3-0.7,0.7v9.2C2.3,12.7,2.6,13,3,13h9.2c0.4,0,0.7-0.3,0.7-0.7V3.1
            C12.8,2.8,12.5,2.5,12.2,2.5z M10.2,4.9L8,10.9c-0.1,0.2-0.3,0.3-0.5,0.3s-0.4-0.1-0.5-0.3L5,4.9C4.8,4.7,5,4.4,5.3,4.3
            c0.3-0.1,0.5,0,0.6,0.3l1.7,4.6l1.7-4.6c0.1-0.3,0.4-0.4,0.6-0.3C10.2,4.4,10.3,4.7,10.2,4.9z"/>
        <rect x="16.6" y="14.7" width="1.7" height="1.7"/>
        <rect x="16.6" y="17.9" width="1.7" height="1.7"/>
        <rect x="13.6" y="17.9" width="1.7" height="1.7"/>
    </g>
</svg>
