<svg id="m-svg__file-code" xmlns="http://www.w3.org/2000/svg" viewBox="-1 -1 26 26">
    <g fill="none" stroke="currentColor" stroke-linecap="round" stroke-linejoin="round">
        <path d="M20.5,5.5V23a.5.5,0,0,1-.5.5H4a.5.5,0,0,1-.5-.5V1A.5.5,0,0,1,4,.5H15.5v5Z"/>
        <polygon points="15.5 0.5 15.5 5.5 20.5 5.5 15.5 0.5"/>
    </g>
    <g fill="currentColor" stroke="currentColor" stroke-miterlimit="10" stroke-width="0.25">
        <path d="M8,17.85V15.51a.76.76,0,0,0-.42-.75.34.34,0,0,1-.23-.31.36.36,0,0,1,.23-.32A.75.75,0,0,0,8,13.38V11.06A1.46,1.46,0,0,1,9.36,9.53h.47a.3.3,0,0,1,.3.31.31.31,0,0,1-.3.31H9.36a.82.82,0,0,0-.75.91v2.39a1,1,0,0,1-.52,1,1,1,0,0,1,.52,1v2.4a.82.82,0,0,0,.75.9h.47a.32.32,0,0,1,0,.63H9.36A1.45,1.45,0,0,1,8,17.85Z"/>
        <path d="M11.53,12.28a.62.62,0,0,1,1.24,0,.62.62,0,0,1-1.24,0Zm.36,6.33a.26.26,0,0,1-.26-.26.24.24,0,0,1,.08-.2,1.69,1.69,0,0,0,.52-.9l-.16,0a.54.54,0,0,1-.54-.58.6.6,0,0,1,.6-.61.77.77,0,0,1,.71.86,2.17,2.17,0,0,1-.78,1.6A.26.26,0,0,1,11.89,18.61Z"/>
        <path d="M14.18,19.37a.32.32,0,0,1,0-.63h.46a.82.82,0,0,0,.75-.9v-2.4a1,1,0,0,1,.52-1,1,1,0,0,1-.52-1V11.06a.82.82,0,0,0-.75-.91h-.46a.3.3,0,0,1-.3-.31.3.3,0,0,1,.3-.31h.46a1.46,1.46,0,0,1,1.41,1.53v2.32a.73.73,0,0,0,.44.75.35.35,0,0,1,.21.32.34.34,0,0,1-.21.31.74.74,0,0,0-.44.75v2.34a1.45,1.45,0,0,1-1.41,1.52Z"/>
    </g>
</svg>
