<svg id="m-svg__file-zip" xmlns="http://www.w3.org/2000/svg" viewBox="-1 -1 26 26" data-badge-origin="20.5,23.5">
    <g fill="none" stroke="currentColor" stroke-linecap="round" stroke-linejoin="round" stroke-miterlimit="10">
        <path d="M20.5,5.5V23 c0,0.3-0.2,0.5-0.5,0.5H4c-0.3,0-0.5-0.2-0.5-0.5V1c0-0.3,0.2-0.5,0.5-0.5h11.5v5H20.5z"/>
        <polygon points="15.5,0.5 15.5,5.5 20.5,5.5 	"/>
        <polyline points="12.4,0.5 12.4,3.2 13.4,3.2 13.4,8.5 10.6,8.5 10.6,3.3"/>
        <line x1="10.6" y1="5.5" x2="11.6" y2="5.5"/>
        <line x1="12.1" y1="20.6" x2="12.1" y2="16.8"/>
        <path d="M14.3,20.6v-3.9h0.9 c0.8,0,0.9,0.4,0.9,1c0,0.5-0.1,1-0.9,1h-0.9"/>
        <polyline points="7.9,16.8 10.1,16.8 7.9,20.6 10.1,20.6 	"/>

        <g stroke-width="0.7231">
            <line x1="11.1" y1="10.6" x2="12.3" y2="10.6"/>
            <line x1="11.7" y1="11.3" x2="12.9" y2="11.3"/>
            <line x1="11.1" y1="12" x2="12.3" y2="12"/>
            <line x1="11.7" y1="12.7" x2="12.9" y2="12.7"/>
            <line x1="11.1" y1="13.4" x2="12.3" y2="13.4"/>
            <line x1="11.7" y1="14.1" x2="12.9" y2="14.1"/>
        </g>
    </g>
</svg>
