<svg id="m-svg__file-excel" xmlns="http://www.w3.org/2000/svg" viewBox="-1 -1 26 26" data-badge-origin="21.68,23.5">
    <path fill="#1F7144" d="M12.2,2.5H3c-0.4,0-0.7,0.3-0.7,0.7v9.2C2.3,12.7,2.6,13,3,13h9.2c0.4,0,0.7-0.3,0.7-0.7V3.2
        C12.8,2.8,12.5,2.5,12.2,2.5z M9.7,10.5c0.1,0.2,0.1,0.5-0.2,0.7c-0.1,0.1-0.2,0.1-0.3,0.1c-0.2,0-0.3-0.1-0.4-0.3L7.6,8.7L6.3,11
        c-0.1,0.2-0.3,0.3-0.4,0.3c-0.1,0-0.2,0-0.3-0.1c-0.2-0.1-0.3-0.4-0.2-0.7L7,7.7L5.4,5C5.3,4.8,5.3,4.5,5.6,4.3s0.5-0.1,0.7,0.2
        l1.3,2.3l1.3-2.3C9,4.3,9.3,4.2,9.6,4.3S9.9,4.8,9.7,5L8.1,7.7L9.7,10.5z"/>
    <g fill="none" stroke="#1F7144" stroke-linejoin="round" stroke-miterlimit="10">
        <path d="M4.7,1.8V1c0-0.3,0.2-0.5,0.5-0.5h11.5v5
            h5V23c0,0.3-0.2,0.5-0.5,0.5h-16c-0.3,0-0.5-0.2-0.5-0.5v-9.2"/>
        <polygon points="16.7,0.5 16.7,5.5 21.7,5.5
            "/>
        <rect x="7.3" y="14.9" width="11" height="6.1"/>
        <rect x="15.4" y="8.9" width="3" height="12.1"/>
        <line x1="15.4" y1="12" x2="18.3" y2="12"/>
        <line x1="7.3" y1="18" x2="18.3" y2="18"/>
    </g>
</svg>
