<svg id="m-svg__file-video" xmlns="http://www.w3.org/2000/svg" viewBox="-1 -1 26 26" data-badge-origin="20.5,23.5">
    <g fill="none" stroke="currentColor" stroke-linejoin="round" stroke-miterlimit="10" >
        <g fill="none" stroke="currentColor" stroke-linejoin="round" stroke-miterlimit="10">
            <path d="M20.5,5.5V23 c0,0.3-0.2,0.5-0.5,0.5H4c-0.3,0-0.5-0.2-0.5-0.5V1c0-0.3,0.2-0.5,0.5-0.5h11.5v5H20.5z"/>
            <polygon points="15.5,0.5 15.5,5.5 20.5,5.5 	"/>
        </g>
        <polygon points="17.3,14.8 14.5,13.6 14.5,11.6 17.3,10.4 	"/>
        <path d="M12.8,15.3H7.2c-0.3,0-0.5-0.2-0.5-0.5v-4.3 c0-0.3,0.2-0.5,0.5-0.5h5.6c0.3,0,0.5,0.2,0.5,0.5v4.3C13.3,15,13.1,15.3,12.8,15.3z"/>
    </g>
</svg>
