<svg xmlns="http://www.w3.org/2000/svg" viewBox="0 0 24 24">
    <path style="stroke-width:0.95742702" d="M 14.666666,22 H 0.91666663 a 0.91666663,1 0 0 0 0,2 H 14.666666 a 0.91666663,1 0 0 0 0,-2 z" />
    <path style="stroke-width:0.95742702" d="M 21.083333,17 H 0.91666663 a 0.91666663,1 0 0 0 0,2 H 21.083333 a 0.91666663,1 0 0 0 0,-2 z" />
    <path style="stroke-width:0.95742702" d="M 21.083333,2 H 0.91666663 a 0.91666663,1 0 0 0 0,2 H 21.083333 a 0.91666663,1 0 0 0 0,-2 z" />
    <rect x="0" ry="2" rx="2" height="10" width="10" y="5.5" />
</svg>
