<svg id="m-svg__help-circle" xmlns="http://www.w3.org/2000/svg" viewBox="-1 -1 26 26">
	<circle fill="none" stroke="currentColor" stroke-miterlimit="10" cx="12" cy="12" r="11.5"/>
	<circle fill="currentColor" cx="12" cy="17.5" r="1.4"/>
	<path fill="currentColor" d="M12,4.7c-1.5,0-2.6,0.8-3.4,1.8l0,0C8.5,6.6,8.4,6.7,8.4,6.9c0,0.4,0.3,0.7,0.7,0.7c0.2,0,0.4-0.1,0.5-0.3l0,0
		c0.6-0.8,1.4-1.2,2.3-1.2c1.2,0,2.2,0.7,2.1,1.8c-0.2,1.7-3.3,2.5-3.1,6c0,0.4,0.3,0.8,0.8,0.8s0.8-0.5,0.8-0.9c0-3.2,3-3.2,3-5.9
		C15.6,5.9,14,4.7,12,4.7z"/>
</svg>
