<svg id="m-svg__help-circle" xmlns="http://www.w3.org/2000/svg" viewBox="-1 -1 26 26">
    <circle fill="none" stroke="currentColor" stroke-miterlimit="10" cx="13" cy="13" r="11.5"/>
    <circle fill="currentColor" cx="13" cy="18.5" r="1.4"/>
    <path fill="currentColor" d="M13,5.7c-1.5,0-2.6,0.8-3.4,1.8l0,0C9.5,7.6,9.4,7.7,9.4,7.9c0,0.4,0.3,0.7,0.7,0.7c0.2,0,0.4-0.1,0.5-0.3l0,0
        c0.6-0.8,1.4-1.2,2.3-1.2c1.2,0,2.2,0.7,2.1,1.8c-0.2,1.7-3.3,2.5-3.1,6c0,0.4,0.3,0.8,0.8,0.8s0.8-0.5,0.8-0.9c0-3.2,3-3.2,3-5.9
        C16.6,6.9,15,5.7,13,5.7z"/>
</svg>
