<svg id="m-svg__help-circle" xmlns="http://www.w3.org/2000/svg" viewBox="-1 -1 26 26">
    <circle fill="none" stroke="currentColor" stroke-miterlimit="10" cx="13" cy="13" r="11.5"/>
    <path fill="currentColor" d="M14.4,18.5c0,0.8-0.6,1.4-1.4,1.4s-1.4-0.6-1.4-1.4c0-0.8,0.6-1.3,1.4-1.3S14.4,17.8,14.4,18.5z"/>
    <path fill="currentColor" d="M14.8,9c0-1.1-0.7-2-1.9-2c-0.9,0-1.7,0.4-2.3,1.2l-1-0.9c0.8-1,2-1.7,3.5-1.7c2,0,3.4,1.2,3.4,3.2c0,2.7-3.3,3.7-2.9,6.5
        H12C11.6,12.3,14.8,11.1,14.8,9z"/>
</svg>
