<svg id="m-svg__image1-filled" xmlns="http://www.w3.org/2000/svg" viewBox="-1 -1 26 26">
    <path d="M23.9,23.3H0.1C0,23.3,0,23.2,0,23.1l4.4-7.6c0.3-0.5,1-0.5,1.3,0l2.5,4.3l6.3-11c0.3-0.5,1-0.5,1.3,0L24,23.1
        C24,23.2,24,23.3,23.9,23.3z"/>
    <path fill="none" stroke="currentColor" stroke-width="0.7308" stroke-miterlimit="10" d="M11.1,5.2c0,0.8-0.6,1.4-1.3,1.5
        c0,0-0.1,0-0.1,0H3.3c-1.1,0-2-0.9-2-2c0-1.1,0.9-2,2-2c0.2,0,0.5,0,0.7,0.1c0.4-1.2,1.5-2,2.8-2c1.6,0,3,1.3,3,3v0.1
        C10.6,3.8,11.1,4.5,11.1,5.2z"/>
</svg>
