<svg id="m-svg__list-filled" xmlns="http://www.w3.org/2000/svg" viewBox="-1 -1 26 26">
    <g stroke="currentColor" stroke-miterlimit="10">
        <path d="M5.1,6.7H1c-0.3,0-0.5-0.2-0.5-0.5V2c0-0.3,0.2-0.5,0.5-0.5h4.1
            c0.3,0,0.5,0.2,0.5,0.5v4.1C5.6,6.4,5.4,6.7,5.1,6.7z"/>
        <path d="M23,6.7H8.7c-0.3,0-0.5-0.2-0.5-0.5V2c0-0.3,0.2-0.5,0.5-0.5H23
            c0.3,0,0.5,0.2,0.5,0.5v4.1C23.5,6.4,23.3,6.7,23,6.7z"/>
        <path d="M5.1,14.6H1c-0.3,0-0.5-0.2-0.5-0.5V9.9c0-0.3,0.2-0.5,0.5-0.5h4.1
            c0.3,0,0.5,0.2,0.5,0.5v4.1C5.6,14.3,5.4,14.6,5.1,14.6z"/>
        <path d="M23,14.6H8.7c-0.3,0-0.5-0.2-0.5-0.5V9.9c0-0.3,0.2-0.5,0.5-0.5H23
            c0.3,0,0.5,0.2,0.5,0.5v4.1C23.5,14.3,23.3,14.6,23,14.6z"/>
        <path d="M5.1,22.5H1c-0.3,0-0.5-0.2-0.5-0.5v-4.1c0-0.3,0.2-0.5,0.5-0.5h4.1
            c0.3,0,0.5,0.2,0.5,0.5V22C5.6,22.2,5.4,22.5,5.1,22.5z"/>
        <path d="M23,22.5H8.7c-0.3,0-0.5-0.2-0.5-0.5v-4.1c0-0.3,0.2-0.5,0.5-0.5H23
            c0.3,0,0.5,0.2,0.5,0.5V22C23.5,22.2,23.3,22.5,23,22.5z"/>
    </g>
</svg>
