<svg id="m-svg__multimedia" xmlns="http://www.w3.org/2000/svg" viewBox="-1 -1 26 26">
    <g fill="none" stroke="currentColor" stroke-linejoin="round" stroke-miterlimit="10">
        <g stroke-width="0.8825" stroke-linecap="round">
            <ellipse cx="16.1" cy="19.3" rx="2.3" ry="1.8"/>
            <polyline points="18.4,19.1 18.4,11.8 21,14.3"/>
        </g>
        <polygon points="18.3,9.6 15.1,8.2 15.1,5.9 18.3,4.4"/>
        <path d="M13.1,10.2H6.2C6,10.2,5.7,10,5.7,9.7V4.3 c0-0.3,0.2-0.5,0.5-0.5h6.9c0.3,0,0.5,0.2,0.5,0.5v5.4C13.6,10,13.4,10.2,13.1,10.2z"/>
        <path stroke-linecap="round" d="M23,0.5H1 C0.8,0.5,0.5,0.7,0.5,1v22c0,0.3,0.2,0.5,0.5,0.5h22c0.3,0,0.5-0.2,0.5-0.5V1C23.5,0.7,23.3,0.5,23,0.5z"/>
        <polygon points="10,19.3 9,17.9 4.7,21 3.1,18.8 7.4,15.7 6.4,14.3 12.8,13.6"/>
    </g>
</svg>
