<svg id="m-svg__multimedia-filled" xmlns="http://www.w3.org/2000/svg" viewBox="-1 -1 26 26">
    <path fill="currentColor" d="M11.2,12.9l-2.3,4.9C8.8,17.9,8.7,18,8.6,18c-0.1,0-0.3,0-0.3-0.2l-0.6-0.9l-3.3,2.4c-0.1,0-0.1,0.1-0.2,0.1c0,0,0,0-0.1,0
        s-0.2-0.1-0.2-0.2l-1.3-1.9c-0.1-0.2-0.1-0.4,0.1-0.5L6,14.4l-0.6-0.9c-0.1-0.1-0.1-0.2,0-0.4c0.1-0.1,0.2-0.2,0.3-0.2l5.3-0.6
        c0.1,0,0.3,0,0.3,0.2S11.3,12.8,11.2,12.9z M12.6,9.6c0,0.3-0.2,0.5-0.5,0.5H6.5C6.2,10.1,6,9.9,6,9.6V5.2c0-0.3,0.2-0.5,0.5-0.5
        h5.6c0.3,0,0.5,0.2,0.5,0.5V9.6z M13.3,8.4v-2c0-0.2,0.1-0.4,0.3-0.5l2.7-1.2c0.2-0.1,0.3-0.1,0.5,0C16.9,4.8,17,4.9,17,5.1v4.4
        c0,0.2-0.1,0.3-0.2,0.4C16.7,10,16.6,10,16.5,10s-0.1,0-0.2,0l-2.7-1.2C13.4,8.8,13.3,8.6,13.3,8.4z M21.3,12.9
        c-0.2,0.2-0.5,0.2-0.7,0L19,11.3V17v0.1v0.1c0,1.2-1.2,2.2-2.7,2.2s-2.7-1-2.7-2.2s1.2-2.2,2.7-2.2c0.7,0,1.3,0.2,1.7,0.5V10
        c0-0.2,0.1-0.4,0.3-0.5c0.2-0.1,0.4,0,0.5,0.1l2.5,2.5C21.5,12.3,21.5,12.7,21.3,12.9z"/>
</svg>
