<svg id="m-svg__multimedia-external" xmlns="http://www.w3.org/2000/svg" viewBox="-1 -1 26 26">
    <g fill="currentColor">
        <path d="M7.5,11.7v5.6l5.6-2.6L7.5,11.7z"/>
        <path d="M18.8,13.8c-0.3,0-0.6,0.3-0.6,0.6c0,0,0,0,0,0v8.5h-17V5.8h8.6c0.3,0,0.6-0.3,0.6-0.6 c0-0.3-0.3-0.6-0.6-0.6H0.6C0.3,4.5,0,4.8,0,5.1c0,0,0,0,0,0v18.2c0,0.3,0.3,0.6,0.6,0.6c0,0,0,0,0,0h18.2c0.3,0,0.6-0.3,0.6-0.6 c0,0,0,0,0,0v-8.9C19.4,14.1,19.1,13.8,18.8,13.8L18.8,13.8z"/>
        <path d="M23.3,0.1h-9.1c-0.3,0-0.6,0.3-0.6,0.6c0,0,0,0,0,0c0,0.3,0.2,0.6,0.5,0.6 c0,0,0.1,0,0.1,0H22l-9.9,9c-0.2,0.2-0.2,0.6,0,0.8c0.2,0.2,0.5,0.2,0.8,0L22.8,2v7.7c0,0.3,0.3,0.6,0.6,0.6c0,0,0,0,0,0 c0.3,0,0.6-0.2,0.6-0.5c0,0,0-0.1,0-0.1V0.7c0-0.2-0.1-0.4-0.2-0.5C23.7,0.1,23.6,0.1,23.3,0.1z"/>
    </g>
</svg>
