<svg id="m-svg__notification" xmlns="http://www.w3.org/2000/svg" viewBox="-1 -1 26 26">
    <path fill="none" stroke="currentColor" stroke-linecap="round" stroke-linejoin="round" stroke-miterlimit="10" d="M8.7,20.4h13.3
		c0.5,0,0.9-0.6,0.6-1l-0.6-1c-0.8-1.3-1.2-2.7-1.3-4.2l-0.4-4.4c-0.6-4.5-2.5-6.2-6.3-6.8c0-0.2,0.1-0.4,0.1-0.5
		c0-1.1-0.9-1.9-1.9-1.9h-0.2c-1,0-1.9,0.8-1.9,1.9c0,0.1,0.1,0.3,0.1,0.5C6.3,3.5,4.4,5.2,3.8,9.7l-0.4,4.4
		c-0.1,1.5-0.6,2.9-1.3,4.2l-0.6,1c-0.3,0.5,0.1,1,0.6,1h4h2.8c0,1.7,1.4,3.1,3.1,3.1s3.1-1.4,3.1-3.1"/>
</svg>
