<svg id="m-svg__notification" xmlns="http://www.w3.org/2000/svg" viewBox="-1 -1 26 26">
    <g fill="none" stroke="currentColor" stroke-linecap="round" stroke-linejoin="round" stroke-miterlimit="10">
        <path d="M21.1,18.7v1.7H2.9
            v-1.7l2-1.8V9.7c0-3.2,2.2-6,5.2-6.8c0-0.2-0.1-0.4-0.1-0.5c0-1.1,0.9-1.9,1.9-1.9c1.1,0,1.9,0.9,1.9,1.9c0,0.2,0,0.4-0.1,0.5
            c3,0.8,5.2,3.5,5.2,6.8v7.1L21.1,18.7z"/>
        <path d="M15.1,20.4
            c0,1.7-1.4,3.1-3.1,3.1c-1.7,0-3.1-1.4-3.1-3.1H15.1z"/>
    </g>
</svg>
