<svg id="m-svg__profile" xmlns="http://www.w3.org/2000/svg" viewBox="-1 -1 26 26">
    <g fill="none" stroke="currentColor" stroke-linejoin="round" stroke-miterlimit="10">
        <path d="M23.5,12c0,3.4-1.4,6.3-3.7,8.4
        c-2,1.9-4.8,3.1-7.8,3.1s-5.7-1.1-7.9-3.1c-2.2-2-3.7-5.1-3.7-8.4c0-6.3,5.1-11.6,11.6-11.6C18.3,0.6,23.5,5.7,23.5,12z"/>
        <path d="M19.8,20.4c-2,1.9-4.8,3.1-7.8,3.1
            s-5.7-1.1-7.9-3.1c0.5-1.2,1.4-1.5,1.4-1.5L9.8,17v-2.7c-1-0.8-1.7-2.2-1.7-3.9l0,0c-0.3,0-0.5-0.2-0.5-0.5V8.6
            c0-0.3,0.2-0.5,0.5-0.5l0,0l0,0C7.8,7.6,7.7,7.2,7.7,6.7c0-1.7,1.5-3.1,3.5-3.1c0.8,0,1.5,0.2,2,0.6c0.1,0,0.3-0.1,0.4-0.1
            C15,4.1,16,5.5,16,7.2c0,0.3,0,0.5-0.1,0.8v0.1l0,0c0.3,0,0.5,0.2,0.5,0.5v1.1c0,0.3-0.2,0.5-0.5,0.5l0,0c0,1.6-0.7,3.1-1.7,3.9
            v2.7l4.2,1.8C18.4,18.9,19.3,19.2,19.8,20.4z"/>
    </g>
</svg>
