<svg id="m-svg__remove-assignation" xmlns="http://www.w3.org/2000/svg" viewBox="-1 -1 26 26">
    <g fill="none" stroke="currentColor" stroke-linejoin="round" stroke-width="1.5">
        <path stroke-linecap="round" d="M20.999 2.254l2.25 3h-7.5M21 8.254l2.25-3"/>
        <circle cx="6.75" cy="3.754" r="3" />
        <path d="M6.75 7.5a6 6 0 0 0-6 6v2.25a1.5 1.5 0 0 0 1.5 1.5h1.5v4.5a1.5 1.5 0 0 0 1.5 1.5h3a1.5 1.5 0 0 0 1.5-1.5v-4.5h1.5a1.5 1.5 0 0 0 1.5-1.5V13.5a6 6 0 0 0-6-6z"/>
    </g>
</svg>

