<svg id="m-svg__setting" xmlns="http://www.w3.org/2000/svg" viewBox="-1 -1 26 26">
    <g fill="none" stroke="currentColor" stroke-miterlimit="10">
        <path stroke-linecap="round" stroke-linejoin="round" d="M13.6,0.5l0.9,2.6c0.8,0.3,1.2,0.5,2.1,0.9L19,2.8c1.1,1.1,1.1,1.1,2.3,2.3L20,7.5c0.3,0.8,0.5,1.2,0.9,2.1l2.6,0.9c0,1.6,0,1.6,0,3.2l-2.6,0.9c-0.3,0.8-0.5,1.2-0.9,2.1l1.2,2.5c-1.1,1.1-1.1,1.1-2.3,2.3L16.6,20c-0.8,0.3-1.2,0.5-2.1,0.9l-0.9,2.6c-1.6,0-1.6,0-3.2,0l-0.9-2.6c-0.8-0.3-1.2-0.5-2.1-0.9L5,21.2c-1.1-1.1-1.1-1.1-2.3-2.3L4,16.5c-0.3-0.8-0.5-1.2-0.9-2.1l-2.6-0.9c0-1.6,0-1.6,0-3.2l2.6-0.9C3.4,8.7,3.6,8.3,4,7.5L2.7,5C3.9,3.9,3.9,3.9,5,2.8L7.5,4c0.8-0.3,1.2-0.5,2.1-0.9l0.9-2.6C12,0.5,12,0.5,13.6,0.5z"/>
        <circle  cx="12" cy="12" r="4.7"/>
    </g>
</svg>
